<svg xmlns="http://www.w3.org/2000/svg" xmlns:xlink="http://www.w3.org/1999/xlink" viewBox="3073 -44 700 160">
  <defs>
    <style>
      .cls-1 {
        clip-path: url(#clip-dark-md);
      }

      .cls-2 {
        fill: #054686;
      }
    </style>
    <clipPath id="clip-dark-md">
      <rect x="3073" y="-44" width="700" height="160"/>
    </clipPath>
  </defs>
  <g id="dark-md" class="cls-1">
    <path id="path-130" class="cls-2" d="M-2054.594,3426.046s59.255-8.615,119.356,6.47c0,0,11.851,2.808,32.23,3.981,16.083.531,49.517,1.942,87.963-3.981,10.2.156,51.915-10.391,117.456,5.043-.229.072,9.518,1.607,16.083,2.22,14.814,1.292,35.583,2.479,71.964-2.673.168-.059,51.8-8.012,109.366,4.977,32.948,6.068,41.816,15.6,99.836,2.021,35.579-6.142,76.446,8.261,96.834,10.377,15.32,2.162,29.248,3.867,51.235-3.839.465.1.044,104.82,0,104.9.165-.095-802.324-2.528-802.324-2.528Z" transform="translate(5126.982 -3436.041)"/>
  </g>
</svg>
