<svg xmlns="http://www.w3.org/2000/svg" xmlns:xlink="http://www.w3.org/1999/xlink" viewBox="3073 251 400 160">
  <defs>
    <style>
      .cls-1 {
        clip-path: url(#clip-dark-sm);
      }

      .cls-2 {
        fill: #054686;
      }
    </style>
    <clipPath id="clip-dark-sm">
      <rect x="3073" y="251" width="400" height="160"/>
    </clipPath>
  </defs>
  <g id="dark-sm" class="cls-1">
    <path id="path-130" class="cls-2" d="M-2054.594,3426.591s38.372-10.533,77.292,7.91c0,0,7.674,3.433,20.871,4.867,10.415.648,32.066,2.373,56.962-4.867,6.608.191,33.619-12.7,76.062,6.165a74.652,74.652,0,0,0,10.415,2.714c9.593,1.58,23.043,3.03,46.6-3.268.109-.073,33.547-9.795,70.823,6.084,21.336,7.418,27.079,19.071,64.651,2.471,23.04-7.508,49.5,10.1,62.707,12.687,9.921,2.643,18.94,4.728,33.179-4.693.3.121.028,112.361,0,112.459.107-.116-519.565,1.184-519.565,1.184Z" transform="translate(5127.593 -3156.27)"/>
  </g>
</svg>
