<svg xmlns="http://www.w3.org/2000/svg" xmlns:xlink="http://www.w3.org/1999/xlink" viewBox="3073 -339 1600 160">
  <defs>
    <style>
      .cls-1 {
        clip-path: url(#clip-dark-lg);
      }

      .cls-2 {
        fill: #054686;
      }
    </style>
    <clipPath id="clip-dark-lg">
      <rect x="3073" y="-339" width="1600" height="160"/>
    </clipPath>
  </defs>
  <g id="dark-lg" class="cls-1">
    <path id="path-130" class="cls-2" d="M-2054.593,3428.253s118.385-16.381,238.462,12.3c0,0,23.677,5.338,64.392,7.569,32.133,1.009,98.931,3.691,175.742-7.569,20.388.3,103.721-19.756,234.667,9.589-.456.136,19.016,3.054,32.134,4.221,29.6,2.457,71.092,4.713,143.778-5.083.335-.113,103.5-15.233,218.5,9.464,65.826,11.538,83.543,29.661,199.463,3.843,71.083-11.677,152.733,15.707,193.466,19.731,30.607,4.111,58.9,7.175,102.829-7.479.929.188.014,109.773-.073,109.927.329-.181-1603.045,1.541-1603.045,1.541Z" transform="translate(5124.189 -3762.596)"/>
  </g>
</svg>
