<svg xmlns="http://www.w3.org/2000/svg" xmlns:xlink="http://www.w3.org/1999/xlink" viewBox="3073 1146 400 100">
  <defs>
    <style>
      .cls-1 {
        clip-path: url(#clip-light-sm);
      }

      .cls-2 {
        fill: #206db9;
      }
    </style>
    <clipPath id="clip-light-sm">
      <rect x="3073" y="1146" width="400" height="100"/>
    </clipPath>
  </defs>
  <g id="light-sm" class="cls-1">
    <path id="path-130" class="cls-2" d="M-2054.594,3426.046s59.209-8.615,119.265,6.47c0,0,11.842,2.808,32.205,3.981,16.071.531,49.479,1.942,87.9-3.981,10.2.156,51.875-10.391,117.367,5.043-.228.072,9.511,1.607,16.071,2.22,14.8,1.292,35.556,2.479,71.91-2.673.168-.059,51.765-8.012,109.282,4.977,32.923,6.068,41.784,15.6,99.76,2.021,35.552-6.142,76.388,8.261,96.76,10.377,15.308,2.162,29.226,3.867,51.2-3.839.465.1.044,41.318,0,41.4.165-.095-118.935,0-118.935,0h-682.779Z" transform="translate(5127.593 -2246.041)"/>
  </g>
</svg>
