<svg xmlns="http://www.w3.org/2000/svg" xmlns:xlink="http://www.w3.org/1999/xlink" viewBox="3073 2127 400 100">
  <defs>
    <style>
      .cls-1 {
        clip-path: url(#clip-lighter-sm);
      }

      .cls-2 {
        fill: #4895e2;
      }
    </style>
    <clipPath id="clip-lighter-sm">
      <rect x="3073" y="2127" width="400" height="100"/>
    </clipPath>
  </defs>
  <g id="lighter-sm" class="cls-1">
    <path id="path-130" class="cls-2" d="M-2054.594,3426.046s46.632-8.615,93.931,6.47c0,0,9.327,2.808,25.364,3.981,12.657.531,38.969,1.942,69.225-3.981,8.031.156,40.856-10.391,92.436,5.043a127.306,127.306,0,0,0,12.657,2.22c11.658,1.292,28,2.479,56.635-2.673.132-.059,40.769-8.012,86.069,4.977,25.929,6.068,32.908,15.6,78.569,2.021,28-6.142,60.162,8.261,76.207,10.377,12.056,2.162,23.018,3.867,40.322-3.839.366.1.034,41.318,0,41.4.13-.095-93.671,0-93.671,0h-537.745Z" transform="translate(5127.593 -1265.041)"/>
  </g>
</svg>
