<svg xmlns="http://www.w3.org/2000/svg" xmlns:xlink="http://www.w3.org/1999/xlink" viewBox="3073 1474 1600 160">
  <defs>
    <style>
      .cls-1 {
        clip-path: url(#clip-lighter-lg);
      }

      .cls-2 {
        fill: #4895e2;
      }
    </style>
    <clipPath id="clip-lighter-lg">
      <rect x="3073" y="1474" width="1600" height="160"/>
    </clipPath>
  </defs>
  <g id="lighter-lg" class="cls-1">
    <path id="path-130" class="cls-2" d="M-2054.594,3428.236s132.012-16.32,265.91,12.257c0,0,26.4,5.318,71.8,7.541,35.832,1,110.318,3.678,195.97-7.541,22.734.3,115.66-19.683,261.678,9.553-.509.136,21.205,3.043,35.832,4.206,33,2.448,79.275,4.7,160.328-5.064.374-.112,115.413-15.177,243.653,9.429,73.4,11.495,93.159,29.551,222.422,3.828,79.265-11.634,170.313,15.649,215.734,19.658,34.13,4.1,65.161,7.326,114.147-7.273,1.036.188.1,113.115,0,113.268.367-.181-1793,.879-1793,.879Z" transform="translate(5077.632 -1949.596)"/>
  </g>
</svg>
