<svg xmlns="http://www.w3.org/2000/svg" xmlns:xlink="http://www.w3.org/1999/xlink" viewBox="3073 869 700 140">
  <defs>
    <style>
      .cls-1 {
        clip-path: url(#clip-light-md);
      }

      .cls-2 {
        fill: #206db9;
      }
    </style>
    <clipPath id="clip-light-md">
      <rect x="3073" y="869" width="700" height="140"/>
    </clipPath>
  </defs>
  <g id="light-md" class="cls-1">
    <path id="path-130" class="cls-2" d="M-2054.593,3426.049s65.588-8.625,132.113,6.478c0,0,13.118,2.811,35.675,3.986,17.8.531,54.81,1.944,97.365-3.986,11.3.156,57.464-10.4,130.01,5.049-.253.072,10.535,1.609,17.8,2.223,16.4,1.293,39.386,2.482,79.656-2.677.186-.059,57.341-8.021,121.055,4.983,36.469,6.075,46.285,15.619,110.507,2.023,39.382-6.149,84.617,8.271,107.184,10.39,16.957,2.165,32.374,3.872,56.712-3.844.515.1.048,83.718,0,83.8.182-.095-888.251-2.323-888.251-2.323Z" transform="translate(5126.203 -2523.041)"/>
  </g>
</svg>
