<svg xmlns="http://www.w3.org/2000/svg" xmlns:xlink="http://www.w3.org/1999/xlink" viewBox="3073 1832 700 140">
  <defs>
    <style>
      .cls-1 {
        clip-path: url(#clip-lighter-md);
      }

      .cls-2 {
        fill: #4895e2;
      }
    </style>
    <clipPath id="clip-lighter-md">
      <rect x="3073" y="1832" width="700" height="140"/>
    </clipPath>
  </defs>
  <g id="lighter-md" class="cls-1">
    <path id="path-130" class="cls-2" d="M-2054.594,3426.046s59.209-8.615,119.265,6.47c0,0,11.842,2.808,32.205,3.981,16.071.531,49.479,1.942,87.9-3.981,10.2.156,51.875-10.391,117.367,5.043-.228.072,9.511,1.607,16.071,2.22,14.8,1.292,35.556,2.479,71.91-2.673.168-.059,51.765-8.012,109.282,4.977,32.923,6.068,41.784,15.6,99.76,2.021,35.552-6.142,76.388,8.261,96.76,10.377,15.308,2.162,30.34,3.8,52.31-3.911.465.1.044,87.662,0,87.742.165-.095-802.827-1.734-802.827-1.734Z" transform="translate(5025.593 -1560.041)"/>
  </g>
</svg>
