<svg xmlns="http://www.w3.org/2000/svg" xmlns:xlink="http://www.w3.org/1999/xlink" viewBox="3073 579 1600 160">
  <defs>
    <style>
      .cls-1 {
        clip-path: url(#clip-light-lg);
      }

      .cls-2 {
        fill: #206db9;
      }
    </style>
    <clipPath id="clip-light-lg">
      <rect x="3073" y="579" width="1600" height="160"/>
    </clipPath>
  </defs>
  <g id="light-lg" class="cls-1">
    <path id="path-130" class="cls-2" d="M-2054.594,3428.255s135.56-16.388,273.055,12.309c0,0,27.112,5.341,73.733,7.573,36.795,1.009,113.282,3.693,201.236-7.573,23.345.3,118.768-19.765,268.709,9.593-.522.136,21.775,3.056,36.8,4.223,33.89,2.458,81.4,4.715,164.636-5.086.384-.113,118.514-15.24,250.2,9.468,75.376,11.543,95.663,29.675,228.4,3.844,81.4-11.682,174.89,15.715,221.531,19.74,35.047,4.113,67.439,7.178,117.741-7.482,1.063.189.1,116.677,0,116.831.377-.182-1836.035-.4-1836.035-.4Z" transform="translate(4949.593 -2844.596)"/>
  </g>
</svg>
