<svg xmlns="http://www.w3.org/2000/svg" xmlns:xlink="http://www.w3.org/1999/xlink" viewBox="11691 2775 70 95">
  <defs>
    <style>
      .cls-1 {
        clip-path: url(#clip-booking-penguin);
      }

      .cls-2 {
        fill: #191919;
      }

      .cls-3 {
        fill: #dd8781;
      }

      .cls-4 {
        fill: #eac574;
      }

      .cls-5 {
        fill: #b95630;
      }

      .cls-6 {
        fill: #915400;
      }
    </style>
    <clipPath id="clip-booking-penguin">
      <rect x="11691" y="2775" width="70" height="95"/>
    </clipPath>
  </defs>
  <g id="booking-penguin" class="cls-1">
    <g id="group-85" transform="translate(11688.142 2778.314) rotate(-3)">
      <path id="path-151" class="cls-2" d="M42.6,3.894S37.66,1.515,36.923,1.266c-6.831-2-11.137-1.552-14.293.8-2.254,1.5-5.812,8.627-6.179,13.743-.05,2.744-2.281,5.772-4.6,8.629C6.839,30.626,4.354,47.543,4.354,47.543S.382,57.333,0,64.3C-.006,67.908.995,78.011,2.493,81a28.3,28.3,0,0,1,2.069,5.325s4.667,1.692,6.551.032c-.015-.71,7.9,7.76,18.882-1.387,1.1-1.191,3.066,1.1,4.813.023,1.222-.9,1.2,2.075,2.14-7.361-.151-5.058,1.38-21.788-.144-26.922.446-2.889,3.008-16.272,1.611-21.81-.992-3.678-3.972-4.7-4.341-13.684C33.687,12.6,44.719,7.5,47.124,7.8L45.8,4.7Z" transform="translate(12.154 0)"/>
      <path id="path-152" class="cls-2" d="M22.932,0A127.418,127.418,0,0,1,9.753,13.66C7.776,15.053,1.668,24.133.9,29.086A11.578,11.578,0,0,0,.29,36.26c1.366,1.043,4.35-5.268,4.35-5.268s6.229-9,11.953-10.079C17.51,19.631,22.932,0,22.932,0Z" transform="translate(0 26.114)"/>
      <path id="path-153" class="cls-2" d="M2.789,0S7.149,8.167,11.9,11.953c3.277,3.084,9.275,10.717,8.911,16.581,0,3.609-.276,4.242-.8,8.365-1.106,1.966-3.336-3.2-4.992-6.062-2.375-5.892-8.184-10.4-9.777-10.919S.683,17.885.075,14.9,2.789,0,2.789,0Z" transform="translate(47.365 33.654)"/>
      <path id="path-154" class="cls-3" d="M11.058,0s-.436,4.809-1.089,5.495C9.483,6,8.486,5.7,6.492,5.686c-.541,0-3.666.32-3.666.32S-.07,7.065,0,7.871s5.411-1.753,4.992.343c-.417.754.108,1.691,3.71,1.127,1.53.053,2.172-.533,3.547,1.007.783.46,1.9-2.693,4.317-.56,1.286.1.3-3.5-.5-4.582s.451-5.179.451-5.179Z" transform="translate(5.138 82.136)"/>
      <path id="path-155" class="cls-3" d="M5.476.769S5.069,6.938,7.55,7.63s6.32,2.26,7.806,2.463,1.385,2.419-4.282,1.071c-2.167.113-.121,2.572-4.5,1.107-2.253-.659-4.11-4.12-4-1.066-.358,1.939-1.991.561-2.427-.463S.382,7.665.382,7.665,2.017,2.566.419.794,5.476.769,5.476.769Z" transform="translate(36.75 80.115)"/>
      <path id="path-156" class="cls-2" d="M34.241.014S25.887-.667,18.312,7.48c-4.734,2.648-4.154,1.4-9.774,6.979C7.611,15.805,1.69,26.983.008,46.786c-.032,10.57-.186,20.393,4.73,22.964s6.469.032,6.469.032,10.054,7.575,19.617-1.646c.758-.746,2.141,2.123,5.208.025,6.846-17.809,6.03-50.342,1.714-58.774C33.841,2.862,34.241.014,34.241.014Z" transform="translate(12.07 16.61)"/>
      <path id="path-157" class="cls-4" d="M16.481,2.28a7.755,7.755,0,0,0-6.334-.031C9.332,2.211,5.939-.407,3.914.055A9.156,9.156,0,0,0,0,4.86S5.894,2.887,9.491,4.6c.841.86.5,1.1,2.287,2.214a4.959,4.959,0,0,0,6.306-1.33A3.025,3.025,0,0,0,16.481,2.28Z" transform="translate(31.64 1.381)"/>
      <path id="ellipse-18" class="cls-5" d="M2.363,4.07A3.41,3.41,0,0,0,5.285,1.731C5.463.641,4.443-.081,3.007.12A3.41,3.41,0,0,0,.085,2.458C-.093,3.549.927,4.27,2.363,4.07Z" transform="translate(44.085 2.498) rotate(31)"/>
      <path id="ellipse-18-2" data-name="ellipse-18" class="cls-6" d="M1.29,2.221A1.861,1.861,0,0,0,2.885.945c.1-.6-.46-.989-1.243-.88A1.861,1.861,0,0,0,.046,1.342C-.051,1.937.506,2.331,1.29,2.221Z" transform="translate(44.586 3.923) rotate(31)"/>
      <path id="path-98" class="cls-3" d="M17.756.052S15.71,2.434,8.781,2.476A39.451,39.451,0,0,1,0,1.5C.142,1.5,4.281.189,15.7.055,15.7.058,17.756.052,17.756.052Z" transform="translate(49.946 5.533) rotate(3)"/>
      <path id="path-97" class="cls-5" d="M.045,3.847A16.093,16.093,0,0,1,8,.28a18.785,18.785,0,0,1,7.219.244,13.1,13.1,0,0,1,1.842.935c.692.508,1.847,1.2.063,1.087-1.873-.012.2-.217-8.536.406C6.911,3.116,3.8,3.258.045,3.847Z" transform="translate(50.01 3.182) rotate(3)"/>
    </g>
  </g>
</svg>
