<svg xmlns="http://www.w3.org/2000/svg" xmlns:xlink="http://www.w3.org/1999/xlink" viewBox="2635 3518 800 825"><defs><style>.a{clip-path:url(#b);}.b{fill:none;stroke:#95989a;stroke-width:1px;}.c{fill:#191919;}.d{fill:#dd8781;}.e{fill:#fff;}.f{fill:#eac574;}.g{fill:#da7a36;}.h{fill:#915400;}.i{fill:#b95630;}</style><clipPath id="b"><rect x="2635" y="3518" width="800" height="825"/></clipPath></defs><g id="a" class="a"><path class="b" d="M343,294.288" transform="translate(2877.527 3909.415)"/><g transform="matrix(0.998, -0.07, 0.07, 0.998, 2832.632, 3886.051)"><path class="c" d="M93.634,9.472S82.885,3.647,81.28,3.04C66.4-1.825,57-.662,50.092,5.182,45.157,8.916,37.315,26.59,36.454,39.247c-.143,6.788-5.044,14.306-10.143,21.4C15.314,76.023,9.7,117.894,9.7,117.894S.915,142.155,0,159.391c-.053,8.926,2.01,33.9,5.243,41.284A75.371,75.371,0,0,1,9.7,213.82s10.161,4.129,14.289,0c-.023-1.757,17.135,19.1,41.205-3.659,2.406-2.96,6.675,2.672,10.5,0,2.675-2.241,2.6,5.12,4.755-18.232-.269-12.509,3.266-53.906,0-66.585,1.006-7.15,6.749-40.283,3.769-53.964C82.095,62.294,75.6,59.813,74.9,37.587c-.816-6.483,23.308-19.231,28.551-18.517l-2.844-7.634Z" transform="translate(26.454 0)"/><path class="c" d="M50.414,0S36.236,19.588,21.505,33.947c-4.329,3.467-17.759,26-19.483,38.261C.06,79.1-.6,80.947.6,89.959c2.967,2.559,9.552-13.082,9.552-13.082S23.843,54.55,36.34,51.8C38.355,48.62,50.414,0,50.414,0Z" transform="translate(0 64.814)"/><path class="c" d="M6.247,0s9.416,20.147,19.724,29.454c7.115,7.589,20.108,26.395,19.246,40.9-.052,8.929-.653,10.5-1.845,20.7-2.436,4.874-7.24-7.864-10.818-14.932-5.113-14.546-17.73-25.614-21.2-26.89S1.445,44.26.152,36.881,6.247,0,6.247,0Z" transform="translate(103.455 83.132)"/><path class="d" d="M24.213,0s-1.006,11.9-2.441,13.6c-1.064,1.265-3.236.534-7.586.516-1.179,0-8,.835-8,.835S-.141,17.608,0,19.6s11.825-4.4,10.887.79c-.917,1.871.217,4.177,8.081,2.742,3.337.11,4.741-1.345,7.722,2.446,1.705,1.132,4.183-6.68,9.426-1.435,2.8.236.693-8.652-1.044-11.328S36.118,0,36.118,0Z" transform="translate(12.124 206.804)"/><path class="d" d="M10.584,1.754S9.85,15.431,14.7,16.993s12.344,5.082,15.245,5.548,2.725,5.382-8.336,2.332c-4.227.223-.211,5.7-8.77,2.406-4.4-1.487-8.057-9.183-7.8-2.406C4.355,29.167,1.155,26.093.3,23.817s.428-6.824.428-6.824S3.856,5.7.724,1.754,10.584,1.754,10.584,1.754Z" transform="translate(79.576 206.181)"/><path class="e" d="M75.9.034S57.073-1.643,40.452,18.6C30.1,25.2,31.375,22.1,19.052,35.978,17.016,39.317,3.967,67.035.065,116.036c-.191,26.145-.644,50.441,10.051,56.739s14.11,0,14.11,0,21.844,18.615,42.808-4.308c1.664-1.855,4.647,5.227,11.36,0C93.535,124.34,92.137,43.881,82.822,23.08,74.38,6.99,75.9.034,75.9.034Z" transform="translate(26.228 41.121)"/><path class="f" d="M35.983,5.491s-5.731-3.638-13.818,0C20.389,5.41,13.02-1.025,8.595.141,2.373,3.867,0,12.072,0,12.072s12.881-4.951,20.706-.744c1.826,2.118,1.079,2.7,4.966,5.447,1.553.927,8.391,4.1,13.769-3.365A7.565,7.565,0,0,0,35.983,5.491Z" transform="translate(69.637 3.483)"/><path class="g" d="M5.341,9.459c3.2-.306,6.015-2.664,6.28-5.267S9.5-.273,6.3.033.285,2.7.02,5.3,2.137,9.765,5.341,9.459Z" transform="translate(96.915 6.927) rotate(31)"/><path class="h" d="M2.915,5.163A3.71,3.71,0,0,0,6.343,2.288C6.488.867,5.187-.149,3.439.018A3.71,3.71,0,0,0,.011,2.893C-.134,4.313,1.167,5.33,2.915,5.163Z" transform="translate(97.953 10.091) rotate(31)"/><path class="d" d="M38.709,0S34.255,5.884,19.145,5.968C18.275,6.017,7.174,5.818,0,3.522.3,3.522,9.322.293,34.217,0,34.224.006,38.709,0,38.709,0Z" transform="translate(109.584 13.77) rotate(3)"/><path class="i" d="M.075,9.4C-.914,10.016,8,1.583,17.421.6c.892-.11,8.774-1.622,15.744.627a27.538,27.538,0,0,1,4.021,2.318C38.7,4.8,41.22,6.52,37.327,6.232c-4.084-.036.428-.536-18.614.976C15.047,7.612,8.259,7.953.075,9.4Z" transform="translate(109.779 7.89) rotate(3)"/></g><g transform="matrix(0.998, -0.07, 0.07, 0.998, 3055.253, 3886.051)"><path class="c" d="M93.634,9.472S82.885,3.647,81.28,3.04C66.4-1.825,57-.662,50.092,5.182,45.157,8.916,37.315,26.59,36.454,39.247c-.143,6.788-5.044,14.306-10.143,21.4C15.314,76.023,9.7,117.894,9.7,117.894S.915,142.155,0,159.391c-.053,8.926,2.01,33.9,5.243,41.284A75.371,75.371,0,0,1,9.7,213.82s10.161,4.129,14.289,0c-.023-1.757,17.135,19.1,41.205-3.659,2.406-2.96,6.675,2.672,10.5,0,2.675-2.241,2.6,5.12,4.755-18.232-.269-12.509,3.266-53.906,0-66.585,1.006-7.15,6.749-40.283,3.769-53.964C82.095,62.294,75.6,59.813,74.9,37.587c-.816-6.483,23.308-19.231,28.551-18.517l-2.844-7.634Z" transform="translate(26.454 0)"/><path class="c" d="M50.414,0S36.236,19.588,21.505,33.947c-4.329,3.467-17.759,26-19.483,38.261C.06,79.1-.6,80.947.6,89.959c2.967,2.559,9.552-13.082,9.552-13.082S23.843,54.55,36.34,51.8C38.355,48.62,50.414,0,50.414,0Z" transform="translate(0 64.814)"/><path class="c" d="M6.247,0s9.416,20.147,19.724,29.454c7.115,7.589,20.108,26.395,19.246,40.9-.052,8.929-.653,10.5-1.845,20.7-2.436,4.874-7.24-7.864-10.818-14.932-5.113-14.546-17.73-25.614-21.2-26.89S1.445,44.26.152,36.881,6.247,0,6.247,0Z" transform="translate(103.455 83.132)"/><path class="d" d="M24.213,0s-1.006,11.9-2.441,13.6c-1.064,1.265-3.236.534-7.586.516-1.179,0-8,.835-8,.835S-.141,17.608,0,19.6s11.825-4.4,10.887.79c-.917,1.871.217,4.177,8.081,2.742,3.337.11,4.741-1.345,7.722,2.446,1.705,1.132,4.183-6.68,9.426-1.435,2.8.236.693-8.652-1.044-11.328S36.118,0,36.118,0Z" transform="translate(12.124 206.804)"/><path class="d" d="M10.584,1.754S9.85,15.431,14.7,16.993s12.344,5.082,15.245,5.548,2.725,5.382-8.336,2.332c-4.227.223-.211,5.7-8.77,2.406-4.4-1.487-8.057-9.183-7.8-2.406C4.355,29.167,1.155,26.093.3,23.817s.428-6.824.428-6.824S3.856,5.7.724,1.754,10.584,1.754,10.584,1.754Z" transform="translate(79.576 206.181)"/><path class="e" d="M75.9.034S57.073-1.643,40.452,18.6C30.1,25.2,31.375,22.1,19.052,35.978,17.016,39.317,3.967,67.035.065,116.036c-.191,26.145-.644,50.441,10.051,56.739s14.11,0,14.11,0,21.844,18.615,42.808-4.308c1.664-1.855,4.647,5.227,11.36,0C93.535,124.34,92.137,43.881,82.822,23.08,74.38,6.99,75.9.034,75.9.034Z" transform="translate(26.228 41.121)"/><path class="f" d="M35.983,5.491s-5.731-3.638-13.818,0C20.389,5.41,13.02-1.025,8.595.141,2.373,3.867,0,12.072,0,12.072s12.881-4.951,20.706-.744c1.826,2.118,1.079,2.7,4.966,5.447,1.553.927,8.391,4.1,13.769-3.365A7.565,7.565,0,0,0,35.983,5.491Z" transform="translate(69.637 3.483)"/><path class="g" d="M5.341,9.459c3.2-.306,6.015-2.664,6.28-5.267S9.5-.273,6.3.033.285,2.7.02,5.3,2.137,9.765,5.341,9.459Z" transform="translate(96.915 6.927) rotate(31)"/><path class="h" d="M2.915,5.163A3.71,3.71,0,0,0,6.343,2.288C6.488.867,5.187-.149,3.439.018A3.71,3.71,0,0,0,.011,2.893C-.134,4.313,1.167,5.33,2.915,5.163Z" transform="translate(97.953 10.091) rotate(31)"/><path class="d" d="M38.709,0S34.255,5.884,19.145,5.968C18.275,6.017,7.174,5.818,0,3.522.3,3.522,9.322.293,34.217,0,34.224.006,38.709,0,38.709,0Z" transform="translate(109.584 13.77) rotate(3)"/><path class="i" d="M.075,9.4C-.914,10.016,8,1.583,17.421.6c.892-.11,8.774-1.622,15.744.627a27.538,27.538,0,0,1,4.021,2.318C38.7,4.8,41.22,6.52,37.327,6.232c-4.084-.036.428-.536-18.614.976C15.047,7.612,8.259,7.953.075,9.4Z" transform="translate(109.779 7.89) rotate(3)"/></g><line class="b" transform="translate(2903.736 4229.993)"/><path class="b" d="M343,294.288" transform="translate(2884.827 3973.287)"/></g></svg>