<svg xmlns="http://www.w3.org/2000/svg" xmlns:xlink="http://www.w3.org/1999/xlink" viewBox="16035 114 231 129">
  <defs>
    <style>
      .cls-1 {
        clip-path: url(#clip-donation-penguin-2);
      }

      .cls-2 {
        fill: #191919;
      }

      .cls-3 {
        fill: #faf7f7;
      }

      .cls-4 {
        fill: #eac574;
      }

      .cls-5 {
        fill: #da7a36;
      }

      .cls-6 {
        fill: #915400;
      }

      .cls-7 {
        fill: #dd8781;
      }

      .cls-8 {
        fill: #b95630;
      }
    </style>
    <clipPath id="clip-donation-penguin-2">
      <rect x="16035" y="114" width="231" height="129"/>
    </clipPath>
  </defs>
  <g id="donation-penguin-2" class="cls-1">
    <g id="group-29" transform="translate(-37 -503)">
      <g id="group-28" transform="translate(16072.066 661.973)">
        <path id="path-151" class="cls-2" d="M65.788,7.536S57.235,2.9,55.958,2.42C44.12-1.452,36.642-.527,31.142,4.123c-3.927,2.971-10.167,17.034-10.851,27.1-.115,5.4-4.013,11.383-8.071,17.027C3.471,60.49,0,79.993,0,79.993s61.92,4.156,61.874,4.327c.8-5.688-1.21-16.639-3.582-27.525-1.686-7.229-6.85-9.2-7.407-26.887-.649-5.159,18.546-15.3,22.717-14.733L71.339,9.1Z" transform="matrix(0.998, -0.07, 0.07, 0.998, 9.896, 5.134)"/>
        <path id="path-152" class="cls-2" d="M23.876,0S11.729,16.662.008,28.081c-.375.3,12.982.989,12.894.9S23.876,0,23.876,0Z" transform="matrix(0.998, -0.07, 0.07, 0.998, 0, 57.523)"/>
        <path id="path-153" class="cls-2" d="M0,0S7.726,11.683,12.593,19.238c.014,0-7.963-.557-7.963-.557Z" transform="matrix(0.998, -0.07, 0.07, 0.998, 71.897, 67.107)"/>
        <path id="path-156" class="cls-3" d="M52.39.027S37.413-1.308,24.187,14.8c-8.239,5.255-7.222,2.789-17.027,13.828A48.108,48.108,0,0,0,0,47.842c.026-.054,63.308,4.055,63.185,4.418-.6-14.922-2.565-27.825-5.284-33.9C51.184,5.562,52.39.027,52.39.027Z" transform="matrix(0.998, -0.07, 0.07, 0.998, 11.29, 37.836)"/>
        <path id="path-157" class="cls-4" d="M28.631,4.369s-4.56-2.895-11,0C16.223,4.306,10.36-.816,6.839.112,1.888,3.077,0,9.606,0,9.606s10.25-3.94,16.476-.593c1.453,1.685.858,2.152,3.951,4.335,1.235.737,6.676,3.261,10.956-2.678A6.02,6.02,0,0,0,28.631,4.369Z" transform="matrix(0.998, -0.07, 0.07, 0.998, 35.671, 6.11)"/>
        <path id="ellipse-18" class="cls-5" d="M4.25,7.526c2.549-.243,4.786-2.12,5-4.191S7.562-.217,5.013.026s-4.786,2.12-5,4.191S1.7,7.769,4.25,7.526Z" transform="translate(57.515 7.329) rotate(27)"/>
        <path id="ellipse-18-2" data-name="ellipse-18" class="cls-6" d="M2.32,4.108A2.952,2.952,0,0,0,5.047,1.821C5.162.69,4.127-.119,2.736.014A2.952,2.952,0,0,0,.009,2.3C-.106,3.432.928,4.241,2.32,4.108Z" transform="translate(58.515 9.784) rotate(27)"/>
        <path id="path-98" class="cls-7" d="M30.8,0S27.256,4.682,15.233,4.748C14.541,4.788,5.708,4.629,0,2.8.239,2.8,7.417.233,27.226,0,27.231.005,30.8,0,30.8,0Z" transform="translate(67.951 12.058) rotate(-1)"/>
        <path id="path-97" class="cls-8" d="M.06,7.478c-.787.492,6.305-6.218,13.8-7,.71-.087,6.981-1.291,12.527.5a21.911,21.911,0,0,1,3.2,1.844c1.2,1,3.209,2.368.112,2.139-3.25-.029.34-.427-14.811.776C11.972,6.057,6.572,6.328.06,7.478Z" transform="translate(67.778 7.38) rotate(-1)"/>
      </g>
      <path id="path-151-2" data-name="path-151" class="cls-2" d="M8.776,8.463s9.6-5.2,11.038-5.746C33.108-1.631,41.506-.591,47.683,4.631,52.092,7.967,59.1,23.76,59.869,35.069,60,41.134,64.376,47.852,68.932,54.19c9.826,13.74,14.847,51.153,14.847,51.153s4.726-1.638,5.543,13.763c-.055.186-76.542,7.943-76.5,8.04,0-6.223,6.813-11.555,7.738-15.146-.9-6.389-6.03-36-3.367-48.22,1.893-8.117,7.692-10.334,8.318-30.193C26.241,27.793,4.685,16.4,0,17.041l2.542-6.821Z" transform="matrix(0.995, 0.105, -0.105, 0.995, 16203.226, 618.617)"/>
      <path id="path-152-2" data-name="path-152" class="cls-2" d="M0,0S12.669,17.5,25.831,30.333c3.868,3.1,14.467,18.673,16.007,29.63.039.066-11.384,1.2-11.384,1.2S23.742,48.743,12.575,46.286C10.774,43.444,0,0,0,0Z" transform="matrix(0.995, 0.105, -0.105, 0.995, 16267.818, 683.639)"/>
      <path id="path-153-2" data-name="path-153" class="cls-2" d="M34.111,0S25.7,18,16.487,26.318C10.129,33.1.261,47.623,0,57.254c-.086-.088,14.3-1.453,14.26-1.5,4.213-8.217,12.189-10.624,15.287-11.764S38.4,39.548,39.559,32.954,34.111,0,34.111,0Z" transform="matrix(0.995, 0.105, -0.105, 0.995, 16179.497, 690.814)"/>
      <path id="path-156-2" data-name="path-156" class="cls-3" d="M12.46.03s16.819-1.5,31.67,16.587c9.254,5.9,8.111,3.133,19.123,15.53,1.521,2.494,9.328,18.753,14.2,50.894-.33-.2-76.873,8.122-76.968,8.09-1.6-29.719.85-59.487,5.786-70.509C13.815,6.246,12.46.03,12.46.03Z" transform="matrix(0.995, 0.105, -0.105, 0.995, 16211.688, 656.452)"/>
      <path id="path-157-2" data-name="path-157" class="cls-4" d="M3.193,4.907s5.121-3.251,12.348,0C17.127,4.834,23.712-.916,27.666.126c5.559,3.329,7.679,10.661,7.679,10.661s-11.51-4.424-18.5-.664c-1.631,1.892-.964,2.415-4.437,4.866-1.388.829-7.5,3.664-12.3-3.007A6.76,6.76,0,0,1,3.193,4.907Z" transform="matrix(0.995, 0.105, -0.105, 0.995, 16221.312, 623.647)"/>
      <path id="ellipse-18-3" data-name="ellipse-18" class="cls-5" d="M4.772.029C7.635.3,10.147,2.41,10.384,4.736S8.492,8.725,5.629,8.452.255,6.071.018,3.746,1.91-.244,4.772.029Z" transform="translate(16235.486 635.541) rotate(155)"/>
      <path id="ellipse-18-4" data-name="ellipse-18" class="cls-6" d="M2.6.016A3.315,3.315,0,0,1,5.668,2.585c.129,1.269-1.033,2.178-2.6,2.028A3.315,3.315,0,0,1,.01,2.044C-.119.775,1.042-.133,2.6.016Z" transform="translate(16232.641 634.765) rotate(155)"/>
      <path id="path-98-2" data-name="path-98" class="cls-7" d="M34.588,5.338S30.609.08,17.107.006C16.33-.039,6.41.139,0,2.191c.268,0,8.33,2.885,30.575,3.147C30.581,5.332,34.588,5.338,34.588,5.338Z" transform="translate(16219.726 638.083) rotate(-177)"/>
      <path id="path-97-2" data-name="path-97" class="cls-8" d="M.067.029c-.884-.553,7.081,6.983,15.5,7.862.8.1,7.84,1.449,14.068-.56A24.607,24.607,0,0,0,33.228,5.26c1.349-1.125,3.6-2.659.126-2.4-3.649.033.382.479-16.633-.872C13.445,1.624,7.38,1.32.067.029Z" transform="translate(16219.941 635.923) rotate(-177)"/>
    </g>
  </g>
</svg>
