<svg xmlns="http://www.w3.org/2000/svg" xmlns:xlink="http://www.w3.org/1999/xlink" viewBox="15806 114 200 129">
  <defs>
    <style>
      .cls-1 {
        clip-path: url(#clip-donation-penguin-1);
      }

      .cls-2 {
        fill: #191919;
      }

      .cls-3 {
        fill: #faf7f7;
      }

      .cls-4 {
        fill: #eac574;
      }

      .cls-5 {
        fill: #da7a36;
      }

      .cls-6 {
        fill: #915400;
      }

      .cls-7 {
        fill: #dd8781;
      }

      .cls-8 {
        fill: #b95630;
      }
    </style>
    <clipPath id="clip-donation-penguin-1">
      <rect x="15806" y="114" width="200" height="129"/>
    </clipPath>
  </defs>
  <g id="donation-penguin-1" class="cls-1">
    <g id="group-28" transform="translate(-95.051 -508)">
      <path id="path-151" class="cls-2" d="M77.192,7.949s-9.021-4.888-10.367-5.4C54.339-1.532,46.452-.556,40.651,4.348,36.51,7.482,29.929,22.314,29.207,32.936c-.121,5.7-4.233,12.006-8.512,17.958C11.466,63.8,6.75,98.936,6.75,98.936S-.641,122.867.045,123.049c-.337-.471,72.606,4.858,72.274,5.054.593.354-5-18.264-6.195-22.914.844-6,5.664-33.806,3.162-45.287-1.778-7.625-7.225-9.707-7.812-28.358C60.789,26.1,81.034,15.405,85.434,16L83.048,9.6Z" transform="matrix(0.998, -0.07, 0.07, 0.998, 15955.373, 628.325)"/>
      <path id="path-152" class="cls-2" d="M40.891,0s-11.9,16.438-24.261,28.489C13,31.4,1.726,50.307.281,60.6A16.131,16.131,0,0,0,.3,66.671c-.089,0,5.917.414,5.917.414S18.593,45.779,29.08,43.471C30.77,40.8,40.891,0,40.891,0Z" transform="matrix(0.998, -0.07, 0.07, 0.998, 15937.051, 684.131)"/>
      <path id="path-153" class="cls-2" d="M5.243,0s7.9,16.907,16.552,24.718C27.766,31.086,38.742,48.3,38.018,60.47c.068.11-12.444-.891-12.445-.87a45.8,45.8,0,0,0-3.452-5.379c-4.161-5.934-10.577-12.163-12.59-12.9C6.62,40.247,1.213,37.142.127,30.951S5.243,0,5.243,0Z" transform="matrix(0.998, -0.07, 0.07, 0.998, 16023.32, 693.509)"/>
      <path id="path-156" class="cls-3" d="M62.319.028s-15.8-1.408-29.745,15.579c-8.69,5.543-7.617,2.941-17.959,14.585C13.1,32.675,4.371,54.817,0,88.5c-.057-.138,73.065,5.369,73.09,5.309,2.027-29.5-.065-63.515-4.959-74.442C61.046,5.866,62.319.028,62.319.028Z" transform="matrix(0.998, -0.07, 0.07, 0.998, 15957.58, 662.764)"/>
      <path id="path-157" class="cls-4" d="M30.2,4.608s-4.81-3.053-11.6,0C17.111,4.541,10.927-.86,7.213.119,1.992,3.245,0,10.131,0,10.131s10.81-4.156,17.377-.625c1.532,1.778.905,2.269,4.168,4.571,1.3.777,7.041,3.44,11.555-2.825A6.349,6.349,0,0,0,30.2,4.608Z" transform="matrix(0.998, -0.07, 0.07, 0.998, 15990.342, 628.81)"/>
      <path id="ellipse-18" class="cls-5" d="M4.482,7.938C7.171,7.681,9.53,5.7,9.752,3.518S7.975-.229,5.287.028.239,2.263.017,4.448,1.794,8.194,4.482,7.938Z" transform="translate(16013.382 630.096) rotate(27)"/>
      <path id="ellipse-18-2" data-name="ellipse-18" class="cls-6" d="M2.446,4.333A3.114,3.114,0,0,0,5.323,1.92C5.444.728,4.353-.125,2.886.015A3.114,3.114,0,0,0,.009,2.428C-.112,3.62.979,4.473,2.446,4.333Z" transform="translate(16014.435 632.684) rotate(27)"/>
      <path id="path-98" class="cls-7" d="M32.485,0S28.747,4.938,16.066,5.008C15.337,5.05,6.02,4.882,0,2.956.252,2.956,7.823.246,28.715,0,28.721.005,32.485,0,32.485,0Z" transform="translate(16024.39 635.083) rotate(-1)"/>
      <path id="path-97" class="cls-8" d="M.063,7.887C-.767,8.406,6.713,1.328,14.62.5c.748-.092,7.363-1.361,13.212.526a23.11,23.11,0,0,1,3.375,1.945c1.267,1.057,3.385,2.5.118,2.256-3.427-.031.359-.45-15.621.819C12.627,6.388,6.931,6.674.063,7.887Z" transform="translate(16024.206 630.149) rotate(-1)"/>
    </g>
  </g>
</svg>
