<svg xmlns="http://www.w3.org/2000/svg" xmlns:xlink="http://www.w3.org/1999/xlink" viewBox="16295 114 323 154">
  <defs>
    <style>
      .cls-1 {
        clip-path: url(#clip-donation-penguin-3);
      }

      .cls-2 {
        fill: #191919;
      }

      .cls-3 {
        fill: #faf7f7;
      }

      .cls-4 {
        fill: #eac574;
      }

      .cls-5 {
        fill: #da7a36;
      }

      .cls-6 {
        fill: #915400;
      }

      .cls-7 {
        fill: #dd8781;
      }

      .cls-8 {
        fill: #b95630;
      }
    </style>
    <clipPath id="clip-donation-penguin-3">
      <rect x="16295" y="114" width="323" height="154"/>
    </clipPath>
  </defs>
  <g id="donation-penguin-3" class="cls-1">
    <g id="group-30" transform="translate(87 -503.568)">
      <g id="group-28" transform="translate(16208.067 654.414)">
        <path id="path-151" class="cls-2" d="M81.964,8.967s-10.177-5.514-11.7-6.088C56.183-1.728,47.285-.627,40.741,4.906c-4.672,3.535-12.1,20.267-12.911,32.249-.137,6.426-4.775,13.544-9.6,20.259C7.817,71.972,2.5,111.61,2.5,111.61s-3.148,1.26-2.375,1.465c-.38-.531,77.72,5.188,77.344,5.408.669.4-7.559-.511-7.692-.538.953-6.768,6.092-37.419,3.27-50.37-2.006-8.6-8.15-10.95-8.813-31.991-.773-6.138,22.066-18.206,27.029-17.53l-2.692-7.228Z" transform="matrix(0.998, -0.07, 0.07, 0.998, 18.508, 6.366)"/>
        <path id="path-152" class="cls-2" d="M38.849,0S25.427,18.544,11.481,32.139C7.383,35.42.093,48.414,0,50.133c.212-.314,23.247,1.659,23.484,1.642C23.741,51.761,38.849,0,38.849,0Z" transform="matrix(0.998, -0.07, 0.07, 0.998, 0, 69.171)"/>
        <path id="path-153" class="cls-2" d="M5.915,0s8.914,19.073,18.672,27.884a81.831,81.831,0,0,1,9.9,13.887c.064-.08-22.876-1.617-23.065-1.613C8.14,38.95,1.369,41.9.144,34.916S5.915,0,5.915,0Z" transform="matrix(0.998, -0.07, 0.07, 0.998, 90.059, 80.257)"/>
        <path id="path-156" class="cls-3" d="M65.922.032S48.1-1.556,32.366,17.607c-9.8,6.253-8.593,3.318-20.26,16.453C10.818,36.175,5.155,50.025,0,74.462l78.941,5.52c.08-24.606-2.288-48.813-6.461-58.132C64.487,6.617,65.922.032,65.922.032Z" transform="matrix(0.998, -0.07, 0.07, 0.998, 20.269, 45.268)"/>
        <path id="path-157" class="cls-4" d="M34.066,5.2s-5.426-3.444-13.082,0C19.3,5.123,12.326-.971,8.137.134,2.247,3.661,0,11.43,0,11.43s12.2-4.688,19.6-.705c1.728,2.005,1.021,2.56,4.7,5.158,1.47.877,7.943,3.88,13.035-3.187A7.162,7.162,0,0,0,34.066,5.2Z" transform="matrix(0.998, -0.07, 0.07, 0.998, 52.856, 7.27)"/>
        <path id="ellipse-18" class="cls-5" d="M5.056,8.955C8.089,8.665,10.751,6.433,11,3.968S9-.258,5.964.031.27,2.553.019,5.017,2.024,9.244,5.056,8.955Z" transform="translate(78.847 8.721) rotate(27)"/>
        <path id="ellipse-18-2" data-name="ellipse-18" class="cls-6" d="M2.76,4.888A3.512,3.512,0,0,0,6.005,2.166C6.142.821,4.911-.141,3.256.017A3.512,3.512,0,0,0,.01,2.739C-.126,4.084,1.1,5.046,2.76,4.888Z" transform="translate(80.037 11.641) rotate(27)"/>
        <path id="path-98" class="cls-7" d="M36.646,0S32.43,5.57,18.125,5.65C17.3,5.7,6.791,5.508,0,3.334.284,3.334,8.825.278,32.394,0,32.4.006,36.646,0,36.646,0Z" transform="translate(91.265 14.347) rotate(-1)"/>
        <path id="path-97" class="cls-8" d="M.071,8.9c-.936.585,7.5-7.4,16.422-8.33.844-.1,8.306-1.536,14.9.594A26.071,26.071,0,0,1,35.2,3.355c1.43,1.192,3.818,2.817.133,2.545-3.867-.035.4-.507-17.622.924C14.245,7.207,7.819,7.529.071,8.9Z" transform="translate(91.06 8.78) rotate(-1)"/>
      </g>
      <path id="path-151-2" data-name="path-151" class="cls-2" d="M9.553,9.212S20.008,3.548,21.567,2.957C36.038-1.776,45.179-.644,51.9,5.041c4.8,3.631,12.428,20.822,13.265,33.132.14,6.6,4.906,13.914,9.865,20.813,10.7,14.955,16.162,55.68,16.162,55.68l8.775,31.4s-83.186,8.821-83.995,8.828c-.49-13.2,4.679-26.269,6.407-32.978-.977-6.954-6.564-39.18-3.665-52.487,2.06-8.835,8.372-11.249,9.054-32.865C28.563,30.253,5.1,17.854,0,18.549l2.767-7.425Z" transform="matrix(0.995, 0.105, -0.105, 0.995, 16423.162, 617.568)"/>
      <g id="group-82" transform="matrix(0.995, 0.105, -0.105, 0.995, 16339.567, 699.061)">
        <path id="path-151-3" data-name="path-151" class="cls-2" d="M6.768,6.526s7.407-4.013,8.511-4.431C25.53-1.258,32.006-.456,36.769,3.571c3.4,2.573,8.8,14.751,9.4,23.471.1,4.677,3.475,9.857,6.988,14.745C60.731,52.382,11.4,74.906,11.2,70.078a81.686,81.686,0,0,1,2.055-20.9c1.46-6.259,5.931-7.969,6.414-23.283C20.235,21.432,3.613,12.648,0,13.14L1.96,7.88Z" transform="translate(13.235 0)"/>
        <path id="path-152-2" data-name="path-152" class="cls-2" d="M0,0S.393,13.864,8.033,22.553c-.043-.089,11.036-.78,10.944-.79C18.98,21.667,0,0,0,0Z" transform="translate(68.011 44.659)"/>
        <path id="path-153-2" data-name="path-153" class="cls-2" d="M10.865,0S2.461,12.594,0,16.106c-.166.093,6.765-.755,6.913-.727s8.263-1,8.147-1.333S10.865,0,10.865,0Z" transform="translate(16.294 57.281)"/>
        <path id="path-156-2" data-name="path-156" class="cls-3" d="M9.314.023S22.284-1.132,33.736,12.814c7.136,4.552,6.255,2.416,14.746,11.975.7,1.144,3.009,3.74,6.047,13.928C54.515,38.592.068,44.03,0,44.448.53,32.2,2.161,21.22,4.542,15.9,10.359,4.816,9.314.023,9.314.023Z" transform="translate(23.067 28.333)"/>
        <path id="path-157-2" data-name="path-157" class="cls-4" d="M2.462,3.784s3.949-2.507,9.521,0c1.224-.056,6.3-4.49,9.35-3.687,4.287,2.567,5.922,8.221,5.922,8.221S18.38,4.907,12.989,7.806c-1.258,1.459-.743,1.862-3.422,3.753C8.5,12.2,3.786,14.384.08,9.24A5.212,5.212,0,0,1,2.462,3.784Z" transform="translate(27.509 2.4)"/>
        <path id="ellipse-18-3" data-name="ellipse-18" class="cls-5" d="M3.68.023C5.887.233,7.825,1.858,8.007,3.652S6.548,6.728,4.341,6.517.2,4.682.014,2.888,1.473-.188,3.68.023Z" transform="translate(39.338 10.379) rotate(149)"/>
        <path id="ellipse-18-4" data-name="ellipse-18" class="cls-6" d="M2.009.012A2.556,2.556,0,0,1,4.371,1.993c.1.979-.8,1.679-2,1.564A2.556,2.556,0,0,1,.008,1.576C-.092.6.8-.1,2.009.012Z" transform="translate(37.093 10.013) rotate(149)"/>
        <path id="path-98-2" data-name="path-98" class="cls-7" d="M26.671,4.116S23.6.062,13.191,0C12.592-.03,4.943.107,0,1.689c.207,0,6.423,2.225,23.577,2.427C23.581,4.112,26.671,4.116,26.671,4.116Z" transform="translate(27.456 13.598) rotate(177)"/>
        <path id="path-97-2" data-name="path-97" class="cls-8" d="M.052.022C-.63-.4,5.512,5.407,12,6.085c.614.076,6.046,1.118,10.848-.432a18.975,18.975,0,0,0,2.771-1.6c1.041-.868,2.779-2.05.1-1.852-2.814.025.295.369-12.826-.672C10.368,1.253,5.691,1.018.052.022Z" transform="translate(27.447 11.925) rotate(177)"/>
      </g>
      <path id="path-152-3" data-name="path-152" class="cls-2" d="M0,0S13.79,19.051,28.117,33.017C32.327,36.389,45.389,58.3,47.066,70.23c1.91,6.7,2.915,10.759-2.9,10.608-.944.272-5-6.067-5-6.067S25.843,53.056,13.688,50.382C11.728,47.288,0,0,0,0Z" transform="matrix(0.995, 0.105, -0.105, 0.995, 16493.471, 688.345)"/>
      <path id="path-153-3" data-name="path-153" class="cls-2" d="M37.943,0S28.786,19.594,18.759,28.647C11.839,36.028-.8,54.319.04,68.429a37.452,37.452,0,0,0,.935,8.9C.833,76.881,11.8,75.4,11.8,75.476c-.291-.156-.372.392.553-1.437C17.33,59.892,29.6,49.126,32.974,47.885s9.638-4.838,10.9-12.015S37.943,0,37.943,0Z" transform="matrix(0.995, 0.105, -0.105, 0.995, 16396.521, 696.07)"/>
      <path id="path-156-3" data-name="path-156" class="cls-3" d="M13.859.033S32.166-1.6,48.332,18.088c10.073,6.426,8.829,3.411,20.815,16.9,1.905,3.125,13.869,26.242,18.242,71.614.07.709-85.594,8.6-85.6,9-3.947-37.9-1-79.014,5.335-93.156C15.334,6.8,13.859.033,13.859.033Z" transform="matrix(0.995, 0.105, -0.105, 0.995, 16432.078, 658.72)"/>
      <path id="path-157-3" data-name="path-157" class="cls-4" d="M3.476,5.341s5.574-3.539,13.44,0c1.727-.079,8.895-6.338,13.2-5.2,6.051,3.624,8.359,11.6,8.359,11.6s-12.528-4.816-20.139-.723c-1.776,2.059-1.049,2.628-4.83,5.3-1.511.9-8.16,3.988-13.391-3.273A7.358,7.358,0,0,1,3.476,5.341Z" transform="matrix(0.995, 0.105, -0.105, 0.995, 16442.846, 623.043)"/>
      <path id="ellipse-18-5" data-name="ellipse-18" class="cls-5" d="M5.195.032c3.116.3,5.85,2.591,6.108,5.123S9.243,9.5,6.128,9.2.277,6.609.02,4.077,2.079-.266,5.195.032Z" transform="translate(16458.275 635.99) rotate(155)"/>
      <path id="ellipse-18-6" data-name="ellipse-18" class="cls-6" d="M2.835.017a3.609,3.609,0,0,1,3.334,2.8C6.31,4.2,5.045,5.184,3.345,5.021a3.609,3.609,0,0,1-3.334-2.8C-.13.844,1.135-.145,2.835.017Z" transform="translate(16455.178 635.145) rotate(155)"/>
      <path id="path-98-3" data-name="path-98" class="cls-7" d="M37.649,5.81S33.317.087,18.621.006C17.775-.042,6.977.152,0,2.385c.292,0,9.067,3.14,33.281,3.426C33.287,5.8,37.649,5.81,37.649,5.81Z" transform="translate(16441.117 638.756) rotate(-177)"/>
      <path id="path-97-3" data-name="path-97" class="cls-8" d="M.073.031c-.962-.6,7.707,7.6,16.871,8.558.867.107,8.534,1.578,15.312-.61a26.785,26.785,0,0,0,3.911-2.255c1.469-1.225,3.923-2.894.137-2.615-3.972.035.416.521-18.1-.949C14.635,1.768,8.033,1.436.073.031Z" transform="translate(16441.355 636.406) rotate(-177)"/>
    </g>
  </g>
</svg>
