<svg xmlns="http://www.w3.org/2000/svg" xmlns:xlink="http://www.w3.org/1999/xlink" viewBox="584 3518 1000 720"><defs><style>.a{clip-path:url(#b);}.b,.l,.n,.o,.p,.q,.y{fill:none;}.b,.l,.p,.q,.r{stroke:#05386b;}.b{stroke-width:4px;}.c{fill:#191919;}.d{fill:#585858;}.e{fill:#faf7f7;}.f{fill:#eac574;}.g{fill:#da7a36;}.h{fill:#915400;}.i{fill:#dd8781;}.j{fill:#b95630;}.k{fill:#7a95b0;}.l,.o{stroke-width:5px;}.m,.r{fill:#05386b;}.n{stroke:#ffc400;stroke-width:8px;}.o{stroke:#606060;}.p{stroke-width:6px;}.q{stroke-width:7px;}.r,.u,.v{stroke-width:1px;}.s{fill:#39a6e0;}.t{fill:#1773a3;}.u,.w{fill:#95989a;}.u,.v{stroke:#95989a;}.v{fill:#423e3e;}.x{stroke:none;}</style><clipPath id="b"><rect x="584" y="3518" width="1000" height="720"/></clipPath></defs><g id="a" class="a"><g transform="translate(584.018 3516.764)"><path class="b" d="M-2200.59,2104.128c-1.3-10.37-124.994-599.015,391.571-139.846" transform="translate(2433.19 -1696.995)"/><path class="b" d="M-2260.063,1906s22.766,54.351,78.5,25.834" transform="translate(2435.898 -1706.461)"/><path class="b" d="M-2290.747,1947.7s16.246,81.162,116.056,38.385" transform="translate(2436.751 -1707.62)"/><path class="b" d="M-2198.576,1859.6c-6.48,3.479-100.352,123.128-112.018,211.273" transform="translate(2437.302 -1705.17)"/><path class="b" d="M-2174.864,1823.24s-22.6,107.589,33.14,285.174" transform="translate(2433.654 -1704.159)"/><g transform="matrix(0.616, -0.788, 0.788, 0.616, 17.982, 471.728)"><path class="c" d="M153.359,15.05S135.751,5.795,133.126,4.831C108.758-2.9,93.364-1.053,82.042,8.234c-8.08,5.932-20.926,34.01-22.336,54.124C59.47,73.14,51.443,85.084,43.095,96.352c-18.013,24.432-27.216,90.955-27.216,90.955S1.5,225.855,0,253.24c-.087,14.182,3.291,53.862,8.586,65.591a117.257,117.257,0,0,1,7.292,20.884s16.642,6.561,23.4,0c-.037-2.789,28.065,30.345,67.488-5.81,3.94-4.7,10.933,4.244,17.2,0,4.382-3.562,4.262,8.133,7.789-28.967-.442-19.873,5.35-85.647,0-105.79,1.648-11.361,11.054-64,6.173-85.74-3.469-14.433-14.1-18.375-15.248-53.69-.924-7.126,17.712-19.02,32.854-25.608,3.259-1.421-11.42-3.12-11.547-8.4-.051-2.569,14.751-9.193,14.751-9.193Z" transform="translate(43.328 13.281)"/><path class="c" d="M82.567,0S59.347,31.119,35.222,53.934C28.131,59.442,6.133,95.241,3.313,114.72.1,125.666-.979,128.6.982,142.922c4.861,4.07,15.643-20.783,15.643-20.783S39.053,86.666,59.519,82.3C62.821,77.244,82.567,0,82.567,0Z" transform="translate(0 116.259)"/><path class="c" d="M10.234,0S25.654,32.01,42.54,46.8c11.65,12.057,32.933,41.937,31.52,64.985-.085,14.184-1.069,16.677-3.024,32.888-3.987,7.744-11.856-12.494-17.717-23.726C44.945,97.837,24.281,80.25,18.6,78.225S2.368,70.319.248,58.6,10.234,0,10.234,0Z" transform="translate(169.443 145.362)"/><path class="d" d="M39.66,0s-1.651,18.907-4,21.614c-1.741,2.011-5.3.852-12.422.82-1.934-.005-13.105,1.328-13.105,1.328S-.232,27.98,0,31.145,19.372,24.152,17.837,32.4c-1.505,2.974.352,6.641,13.232,4.358,5.464.177,7.768-2.135,12.65,3.889,2.789,1.8,6.85-10.618,15.436-2.283,4.591.375,1.135-13.748-1.709-18S59.155,0,59.155,0Z" transform="translate(19.851 341.851)"/><path class="d" d="M34.416,2.787s1.2,21.728-6.76,24.21S7.373,35.072,2.607,35.813s-4.479,8.551,13.7,3.7c6.94.357.344,9.06,14.407,3.826,7.231-2.363,13.238-14.59,12.825-3.826,1.116,6.826,6.371,1.942,7.784-1.674S50.619,27,50.619,27s-5.149-17.939,0-24.21S34.416,2.787,34.416,2.787Z" transform="translate(117.446 334.383)"/><path class="e" d="M124.3.054S93.478-2.611,66.254,29.547C49.292,40.041,51.387,35.117,31.2,57.16,27.868,62.467,6.5,106.505.108,184.355-.207,225.9-.948,264.5,16.57,274.505s23.112,0,23.112,0,35.775,29.573,70.111-6.845c2.728-2.947,7.612,8.3,18.608,0,24.8-70.113,22.508-197.943,7.25-230.993C121.823,11.1,124.3.054,124.3.054Z" transform="translate(42.964 78.615)"/><path class="f" d="M58.934,8.728s-9.385-5.784-22.63,0C33.391,8.6,21.321-1.628,14.076.224,3.887,6.146,0,19.182,0,19.182S21.1,11.316,33.912,18c2.99,3.366,1.77,4.3,8.134,8.655,2.543,1.474,13.743,6.514,22.554-5.347A11.937,11.937,0,0,0,58.934,8.728Z" transform="translate(114.057 18.816)"/><path class="g" d="M8.6,15.187c5.212-.559,9.831-4.4,10.318-8.572S15.572-.491,10.36.068.528,4.466.042,8.641,3.385,15.747,8.6,15.187Z" transform="translate(158.703 24.093) rotate(31)"/><path class="h" d="M4.693,8.29c2.845-.305,5.366-2.4,5.632-4.679S8.5-.268,5.655.037.288,2.438.023,4.716,1.848,8.6,4.693,8.29Z" transform="translate(160.417 29.209) rotate(31)"/><path class="i" d="M63.4,0S56.1,9.36,31.348,9.532C29.924,9.613,11.743,9.325,0,5.7.491,5.695,15.276.541,56.048.012,56.059.022,63.4,0,63.4,0Z" transform="translate(189.482 33.75) rotate(40)"/><path class="j" d="M.123,14.995C-1.5,15.98,13.121,2.557,28.554.97c1.461-.177,14.374-2.6,25.782.956A45.286,45.286,0,0,1,60.916,5.6c2.47,2,6.6,4.718.224,4.271-6.689-.048.7-.853-30.488,1.6C24.647,12.12,13.531,12.679.123,14.995Z" transform="translate(175.761 30.294) rotate(-28)"/></g><path class="b" d="M-2195.6,1842.658s-165.237,117.646-163.691,270.11c-.53,50.8,25.65,96.425,89.511,140.013" transform="translate(2440.294 -1704.699)"/><path class="b" d="M-2067.3,2178.4c9.439-10.763,11.429,1.081,10.5,4.176-11.68,38.97-44.507,135.063-123.935,169.26-3.87,1.667-14.464,1.514-18.713-4.858" transform="translate(2423.938 -1720.142)"/><path class="b" d="M-2109.421,2135.952s16.52-12.635,16.356,10.356c-5.455,30.845-30.994,132.7-131.889,154.053" transform="translate(2421.693 -1704.38)"/><path class="b" d="M-2075.266,2154.856s11.347-14.058,11.4,4.251c-4.891,30.32-28.034,110.2-136.524,165.326-3.155,1.6-23.6-2.808-11.327-18.719" transform="translate(2413.517 -1705.484)"/><path class="b" d="M132.437,9.087s14.354-17.544,14.472-3.878C141.4,34.565,116.7,117.338,10.128,179.886c-4.1,2.406-15.8-.611-6.819-14.645" transform="matrix(0.966, 0.259, -0.259, 0.966, 250.941, 432.237)"/><path class="b" d="M-2053.707,2166.724s6.084,2.5,3.122,6.948c-14.6,21.937-70.991,91.983-199.495,101.816" transform="translate(2421.254 -1706.575)"/><path class="b" d="M118.363,3.917s7.8-13.186,10.283,8.828C129.429,33.99,118.46,86.807,7.021,137.131c-3.289,1.485-12.207-1.454-2.909-11.628" transform="translate(146.155 428.502) rotate(-7)"/><path class="b" d="M138.752,2.773S149.1-4.9,146.94,5.277c-8.6,40.54-39.727,146.278-133.1,170.412-7.5.571-18.117-.227-12.03-12.067" transform="translate(159.403 462.939) rotate(-17)"/><path class="b" d="M-2266.09,2262.438s-2.779,10.687,4.395,9.321c28.075-5.344,101.931-30.531,119.247-147.491.547-3.7-6.653-15.564-13.732,0" transform="translate(2435.397 -1703.354)"/><path class="k" d="M-1394.08,3438.853c-14.595.16-74.25-10.6-167.988,5.146.327.073-13.613,1.639-23,2.266-58.1-6.4-42.914-8.353-102.925-2.728,0,0-164.016,38.968,0,71.562s448.51-34.166,448.51-34.166S-1266.562,3457.54-1394.08,3438.853Z" transform="translate(2221.738 -3093.643)"/><g transform="translate(462.225 14.236)"><path class="l" d="M-1593.854,1790.484l22.778,122.724" transform="translate(2021.633 -1673.425)"/><path class="m" d="M-2048.214,1859.6s65.277,56.49,101.682,156.917c-3.766-3.766,95.405,5.021,200.853-12.554-1.255-1.255,164.449-45.192,164.449-45.192l9.989-45.191h-65.326s-7.532,0-11.3,11.3c0-2.51-138.087-2.51-151.9-6.276-2.511,1.255-168.215-23.8-168.215-23.8v-20.085Z" transform="translate(2048.214 -1677.468)"/><path class="n" d="M-1576.261,1941.816l-182.023,10.818s-89.129,2.457-224.705-28.873" transform="translate(2044.398 -1681.221)"/><path class="o" d="M-1610.99,1917.2v26.362" transform="translate(2022.636 -1680.838)"/><path class="o" d="M-1667.047,1923.76v66.586" transform="translate(2025.915 -1681.221)"/><path class="o" d="M-1747.047,1923.76V1966.5" transform="translate(2030.596 -1681.221)"/><path class="l" d="M-1552.839,1911.09l-40.313-120.606h-30.128l-45.078,84.391" transform="translate(2025.993 -1673.425)"/><path class="p" d="M-1655.086,1877.03v-51.425l-199.587-48.4-56.1,123.252" transform="translate(2040.172 -1672.647)"/><path class="p" d="M-1852.273,1904.55l-.073-238.4" transform="translate(2036.755 -1666.151)"/><path class="q" d="M-1983.025,1865.1s3.139-107.959,20.713-145.619" transform="translate(2044.4 -1669.27)"/><path class="m" d="M-1699.031,1885.331V1924.4l36.451.167,25.995,1.01v-35.453l-26.041-4.8-36.4-.2" transform="translate(2027.787 -1678.961)"/><path class="r" d="M-1874.95,1803.983l-89.129-93.108s-13.108,14.709-15.933,81.555C-1980.012,1794.94-1874.95,1803.983-1874.95,1803.983Z" transform="translate(2044.224 -1668.767)"/><path class="s" d="M-2.041-6.009,23.7.162v7.06L-2.068,2.464Z" transform="translate(367.507 204.515)"/><rect class="t" width="36.718" height="8.473" transform="translate(328.785 198.514)"/><g transform="translate(397.705 261.787)"><g class="u" transform="translate(0 0)"><ellipse class="x" cx="13.931" cy="13.931" rx="13.931" ry="13.931"/><ellipse class="y" cx="13.931" cy="13.931" rx="13.431" ry="13.431"/></g><g class="v" transform="translate(0.774 0.774)"><ellipse class="x" cx="13.157" cy="13.157" rx="13.157" ry="13.157"/><ellipse class="y" cx="13.157" cy="13.157" rx="12.657" ry="12.657"/></g><ellipse class="w" cx="10.835" cy="10.835" rx="10.835" ry="10.835" transform="translate(3.096 3.096)"/><ellipse class="m" cx="8.514" cy="8.514" rx="8.514" ry="8.514" transform="translate(5.418 5.418)"/></g><g transform="translate(439.168 257.116)"><g class="u" transform="translate(0 0)"><ellipse class="x" cx="11.07" cy="11.07" rx="11.07" ry="11.07"/><ellipse class="y" cx="11.07" cy="11.07" rx="10.57" ry="10.57"/></g><g class="v" transform="translate(0.615 0.615)"><ellipse class="x" cx="10.455" cy="10.455" rx="10.455" ry="10.455"/><ellipse class="y" cx="10.455" cy="10.455" rx="9.955" ry="9.955"/></g><ellipse class="w" cx="8.61" cy="8.61" rx="8.61" ry="8.61" transform="translate(2.46 2.46)"/><ellipse class="m" cx="6.765" cy="6.765" rx="6.765" ry="6.765" transform="translate(4.305 4.305)"/></g><g transform="translate(266.646 283.25)"><g class="u" transform="translate(0 0)"><ellipse class="x" cx="16.947" cy="16.947" rx="16.947" ry="16.947"/><ellipse class="y" cx="16.947" cy="16.947" rx="16.447" ry="16.447"/></g><g class="v" transform="translate(0.941 0.941)"><ellipse class="x" cx="16.005" cy="16.005" rx="16.005" ry="16.005"/><ellipse class="y" cx="16.005" cy="16.005" rx="15.505" ry="15.505"/></g><ellipse class="w" cx="13.181" cy="13.181" rx="13.181" ry="13.181" transform="translate(3.766 3.766)"/><ellipse class="m" cx="10.356" cy="10.356" rx="10.356" ry="10.356" transform="translate(6.59 6.59)"/></g></g></g></g></svg>