<svg xmlns="http://www.w3.org/2000/svg" xmlns:xlink="http://www.w3.org/1999/xlink" viewBox="10007 1172 1000 969">
  <defs>
    <style>
      .cls-1 {
        clip-path: url(#clip-hides-map);
      }

      .cls-2 {
        fill: #145698;
        font-size: 30px;
        font-family: HelveticaNeue, Helvetica Neue;
      }

      .cls-3 {
        fill: #3b9fff;
      }
    </style>
    <clipPath id="clip-hides-map">
      <rect x="10007" y="1172" width="1000" height="969"/>
    </clipPath>
  </defs>
  <g id="hides-map" class="cls-1">
    <text id="Catlins" class="cls-2" transform="translate(10437.341 2033.14)"><tspan x="0" y="0">Catlins</tspan></text>
    <text id="Otago_Peninsula" data-name="Otago Peninsula" class="cls-2" transform="translate(10524.625 1930.51)"><tspan x="0" y="0">Otago Peninsula</tspan></text>
    <text id="Otago_Peninsula-2" data-name="Otago Peninsula" class="cls-2" transform="translate(10573.625 1799.51)"><tspan x="0" y="0">Oamaru</tspan></text>
    <path id="path-84" class="cls-3" d="M-834.226,910.107c10.113-10.266,58.92,0,58.92,0s16.438,24.057,16.438,40.2-16.438,24.363-16.438,24.363l-19.945,12.088s-39.775,7.987-53.034,0,0-48.992,0-48.992S-844.34,920.372-834.226,910.107Z" transform="translate(10997.671 1150.435)"/>
    <text id="Stewart_Is" data-name="Stewart Is" class="cls-2" transform="translate(10267.947 2128.52)"><tspan x="0" y="0">Stewart Isand</tspan></text>
    <path id="path-83" class="cls-3" d="M-53.876,858.538S9.28,843.877,14.137,872.6c12.285,47.7-1.045,55.657-17.324,111.057s-77.336,160.153-149.048,175.158c-5.516,2.5-11.151,50.019-11.151,50.019s19.424-.186,33.216,12.319c2.758-2.5,0,37.514,0,37.514s-2.963,17.506-66.4-22.509c-5.517,2.5-56.491,52.417-95.106,79.927-2.758,0-31.431,37.85-43.2,77.24a522.87,522.87,0,0,1-12.2,52.2c-9.455,32.135-19.4,48.876-27.839,59.184-.981,1.2-1.178,3.025,0,5.5,7.086,12.288,5.733,24.16-3.195,28.632-23.6,7.324-12.232,2.176-36.53,10.042-26.792,46.338-85.533,109.9-126.7,104.72-5.311-.175-104.927,4.827-113.084-12.679s-148.617-42.517-170.887-47.519c-6.661-1.7-66.4-32.512-33.3-85.031,7.314-12.915,135.181-193.73,204.19-225.084,10.6-6.352,74.367-47.127,74.367-47.127s58.943-30.669,134.573-87.185S-337.442,1122.1-307.1,966.356c2.6-15.9,16.3-70.844,42.771-93.752,11.7-14.4,31.7-31.978,31.7-31.978s40.79-48.7,69.246-52.52,33.216,52.52,33.216,52.52.475,25.65,15.2,31.978S-53.876,858.538-53.876,858.538Z" transform="translate(10873.805 386.238)"/>
  </g>
</svg>
