<svg xmlns="http://www.w3.org/2000/svg" xmlns:xlink="http://www.w3.org/1999/xlink" viewBox="314 34 200 118">
  <defs>
    <style>
      .cls-1 {
        clip-path: url(#clip-logo);
      }

      .cls-2 {
        fill: #e8d766;
      }

      .cls-3 {
        fill: #191919;
      }

      .cls-4 {
        fill: #faf7f7;
      }

      .cls-5 {
        fill: #eac574;
      }

      .cls-6 {
        fill: #da7a36;
      }

      .cls-7 {
        fill: #915400;
      }

      .cls-8 {
        fill: #dd8781;
      }

      .cls-9 {
        fill: #b95630;
      }
    </style>
    <clipPath id="clip-logo">
      <rect x="314" y="34" width="200" height="118"/>
    </clipPath>
  </defs>
  <g id="logo" class="cls-1">
    <g id="group-1" transform="translate(305 24)">
      <rect id="rectangle-40" class="cls-2" width="199.838" height="118.039" rx="3" transform="translate(9.162 9.637)"/>
      <path id="path-151" class="cls-3" d="M102.018,13.3S86.454,5.122,84.133,4.271C62.59-2.564,48.984-.931,38.974,7.279c-7.144,5.244-18.5,30.066-19.746,47.846-.208,9.532-7.3,20.089-14.685,30.052A55.729,55.729,0,0,0,0,92.677c47.942,3.278,31.689,1.946,87.131,4.566C84.064,84.484,75.915,84.009,74.9,52.793c-1.181-9.106,33.747-27.009,41.341-26.007L112.12,16.063Z" transform="translate(46.258 35.883) rotate(-3)"/>
      <path id="path-156" class="cls-4" d="M64.109.048S36.857-2.307,12.792,26.122C6.838,29.805,3.54,31.34.151,33.346c-3.989,2.354,72.2-2.8,70.1-7.362C61.4,3.191,64.109.048,64.109.048Z" transform="translate(61.169 92.936) rotate(-3)"/>
      <path id="path-157" class="cls-5" d="M52.1,7.714s-8.3-5.111-20,0C29.518,7.6,18.848-1.44,12.442.2,3.437,5.432,0,16.959,0,16.959S18.65,10,29.979,15.912c2.641,2.974,1.564,3.8,7.19,7.651,2.248,1.3,12.148,5.759,19.937-4.727A10.555,10.555,0,0,0,52.1,7.714Z" transform="translate(75.448 39.254) rotate(-3)"/>
      <path id="ellipse-18" class="cls-6" d="M7.6,13.426c4.607-.495,8.691-3.887,9.121-7.578S13.766-.434,9.158.061.467,3.948.037,7.639,2.993,13.921,7.6,13.426Z" transform="translate(115.106 41.846) rotate(28)"/>
      <path id="ellipse-18-2" data-name="ellipse-18" class="cls-7" d="M4.148,7.328c2.515-.27,4.744-2.122,4.979-4.136S7.514-.237,5,.033.255,2.155.02,4.169,1.633,7.6,4.148,7.328Z" transform="translate(116.855 46.284) rotate(28)"/>
      <path id="path-98" class="cls-8" d="M56.05,0S49.589,8.275,27.712,8.427C26.453,8.5,10.381,8.244,0,5.035.434,5.034,13.5.479,49.547.01,49.557.019,56.05,0,56.05,0Z" transform="translate(133.954 50.567)"/>
      <path id="path-97" class="cls-9" d="M.109,13.256c-1.433.871,11.49-11,25.133-12.4C26.534.7,37.949-1.441,48.034,1.7a40.034,40.034,0,0,1,5.817,3.247c2.183,1.765,5.833,4.171.2,3.776-5.913-.042.621-.754-26.952,1.412C21.788,10.714,11.961,11.208.109,13.256Z" transform="translate(133.788 42.336)"/>
    </g>
  </g>
</svg>
