<svg xmlns="http://www.w3.org/2000/svg" xmlns:xlink="http://www.w3.org/1999/xlink" viewBox="4947 873 1000 1316">
  <defs>
    <style>
      .cls-1 {
        clip-path: url(#clip-map);
      }

      .cls-2 {
        fill: #3b9fff;
      }

      .cls-3, .cls-4 {
        fill: #b9d4ff;
        font-family: HelveticaNeue, Helvetica Neue;
      }

      .cls-3 {
        font-size: 35px;
      }

      .cls-4 {
        font-size: 31px;
      }

      .cls-5 {
        fill: #191919;
      }

      .cls-6 {
        fill: #dd8781;
      }

      .cls-7 {
        fill: #faf7f7;
      }

      .cls-8 {
        fill: #eac574;
      }

      .cls-9 {
        fill: #da7a36;
      }

      .cls-10 {
        fill: #915400;
      }

      .cls-11 {
        fill: #b95630;
      }
    </style>
    <clipPath id="clip-map">
      <rect x="4947" y="873" width="1000" height="1316"/>
    </clipPath>
  </defs>
  <g id="map" class="cls-1">
    <g id="group-31" transform="translate(4944.343 884.239)">
      <g id="group-22" transform="translate(0 -11)">
        <g id="group-58" transform="translate(0)">
          <path id="path-82" class="cls-2" d="M-778.387,689.846c-12.318,7.274,0,21.169,0,21.169s18.788,13.579,25.051,25.5a23.539,23.539,0,0,1,0,22.184l67.814,89.4S-617.8,941.138-611.64,987.66c4.1.138-8.21,70.5-18.471,100.271-2.053,5.583-38.994,17.183-55.411,33.931-4.105,0-24.476,20.549,0,39.158,8.056,0,50.961,23.833,83.774,37.079,7.564,9.456,42.662,27.075,32.553,62.432-1.9,3.722,0,22.023,0,48.726s-14.655,38.553,0,45.4,45.8-2.125,57.964-22.515c3.952-9.145,75.87-107.852,75.87-107.852s41.046-57.687,18.471-53.966,8.738-47.283,52.4-48.462,47.084-43.556,53.219-62.611,17.189-66.328,11.033-71.591-26.68-14.566-26.68-14.566-26.591-5.583-73.794,44.661c-6.157,1.861-83.535-18.609-110.519-52.105,5.852-5.583-14.671-70.713-14.671-70.713l-28.732-57.688H-569s32.925,70.037,0,83.063c-.088,3.723-32.747-62.593-32.747-62.593l-28.363-50.084-67.938-83.681-55.287-34.107S-766.068,682.572-778.387,689.846Z" transform="translate(1301.088 -686.613)"/>
          <path id="path-83" class="cls-2" d="M-262.489,840.465s46.993-10.908,50.607,10.467c9.141,35.494-.778,41.413-12.891,82.635s-57.545,119.166-110.9,130.331c-4.1,1.861-8.3,37.218-8.3,37.218s14.453-.139,24.715,9.166c2.053-1.861,0,27.913,0,27.913s-2.2,13.027-49.407-16.748c-4.1,1.861-42.034,39-70.766,59.472-2.052,0-23.387,28.164-32.147,57.473-10.414,56.019,9.154,58.12.094,67.934-3.976,3.638-3.989,3.941-11.242,7.573-17.559,5.45-26.115,10.882-31.527,20.242-19.935,34.479-80.316,101.767-110.947,97.914-3.952-.131-78.074,3.592-84.143-9.434s-110.583-31.636-127.153-35.358c-2.2,1.861-49.408-24.191-24.78-63.27-4.1-3.721,102.679-154.453,151.933-167.479-2.053,0,55.334-35.067,55.334-35.067s43.859-22.819,100.133-64.873,80.392-20,102.967-135.885c-4.1-.508,11.236-54.2,31.825-69.758,0,2.074,23.586-23.794,23.586-23.794s30.35-36.236,51.524-39.079,24.715,39.079,24.715,39.079.354,19.086,11.309,23.794S-262.489,840.465-262.489,840.465Z" transform="translate(868.374 -224.816)"/>
          <path id="path-84" class="cls-2" d="M-839.071,909c7.658-7.773,44.614,0,44.614,0s12.447,18.216,12.447,30.437-12.447,18.448-12.447,18.448l-15.1,9.153s-30.117,6.047-40.157,0,0-37.1,0-37.1S-846.729,916.772-839.071,909Z" transform="translate(945.124 308.786)"/>
        </g>
        <text id="Stewart_Is" data-name="Stewart Is" class="cls-3" transform="translate(134.873 1304.994)"><tspan x="0" y="0">Stewart Isand</tspan></text>
        <text id="Catlins" class="cls-3" transform="translate(297.699 1216.257)"><tspan x="0" y="0">Catlins</tspan></text>
        <text id="Otago_Peninsula" data-name="Otago Peninsula" class="cls-4" transform="translate(405.637 1104.3)"><tspan x="0" y="0">Otago Peninsula</tspan></text>
        <text id="Banks_Peninsula" data-name="Banks Peninsula" class="cls-3" transform="translate(575.085 916.516)"><tspan x="0" y="0">Banks Peninsula</tspan></text>
      </g>
      <g id="group-82" transform="matrix(0.998, -0.07, 0.07, 0.998, 105.453, 1198.036)">
        <path id="path-151" class="cls-5" d="M22.917,2.318S20.286.893,19.893.744c-3.641-1.191-5.941-.906-7.633.524-1.208.914-3.127,5.24-3.338,8.338-.035,1.661-1.234,3.5-2.482,5.237C3.748,18.607,2.373,28.855,2.373,28.855S.224,34.792,0,39.011c-.013,2.185.492,8.3,1.283,10.1a18.458,18.458,0,0,1,1.089,3.217s2.487,1.011,3.5,0c-.006-.43,4.194,4.675,10.084-.9.589-.725,1.634.654,2.57,0,.654-.549.636,1.253,1.164-4.462-.066-3.061.8-13.193,0-16.3.246-1.75,1.652-9.859.922-13.208-.518-2.224-2.107-2.831-2.278-8.271-.2-1.586,5.705-4.707,6.988-4.532l-.7-1.869Z" transform="translate(6.475 0)"/>
        <path id="path-152" class="cls-5" d="M12.339,0A75.091,75.091,0,0,1,5.264,8.309C4.2,9.157.917,14.671.5,17.673a7.9,7.9,0,0,0-.348,4.345c.726.627,2.338-3.2,2.338-3.2s3.351-5.465,6.41-6.137C9.387,11.9,12.339,0,12.339,0Z" transform="translate(0 15.863)"/>
        <path id="path-153" class="cls-5" d="M1.529,0S3.834,4.931,6.357,7.209c1.741,1.857,4.921,6.46,4.71,10.011a34.356,34.356,0,0,1-.451,5.066c-.6,1.193-1.772-1.924-2.648-3.654-1.251-3.56-4.34-6.269-5.188-6.581A4.169,4.169,0,0,1,.037,9.027C-.279,7.221,1.529,0,1.529,0Z" transform="translate(25.32 20.347)"/>
        <path id="path-154" class="cls-6" d="M5.926,0a13.93,13.93,0,0,1-.6,3.33c-.26.309-.792.131-1.857.126-.289,0-1.958.2-1.958.2S-.035,4.309,0,4.8s2.894-1.077,2.664.193c-.224.458.053,1.022,1.978.671.817.027,1.16-.329,1.89.6.417.277,1.024-1.635,2.307-.351.686.058.17-2.118-.255-2.773S8.84,0,8.84,0Z" transform="translate(2.967 50.615)"/>
        <path id="path-155" class="cls-6" d="M2.59.429S2.411,3.777,3.6,4.159,6.619,5.4,7.329,5.517,8,6.834,5.289,6.087c-1.035.054-.052,1.4-2.147.589-1.077-.364-1.972-2.248-1.91-.589-.167,1.051-.95.3-1.16-.258a3.638,3.638,0,0,1,.1-1.67s.767-2.764,0-3.73S2.59.429,2.59.429Z" transform="translate(19.476 50.463)"/>
        <path id="path-156" class="cls-7" d="M18.576.008S13.969-.4,9.9,4.552C7.366,6.169,7.679,5.41,4.663,8.806c-.5.817-3.692,7.6-4.647,19.594-.047,6.4-.157,12.345,2.46,13.887s3.453,0,3.453,0a7.368,7.368,0,0,0,10.478-1.054c.407-.454,1.137,1.279,2.78,0,3.705-10.8,3.363-30.492,1.083-35.584C18.2,1.711,18.576.008,18.576.008Z" transform="translate(6.419 10.064)"/>
        <path id="path-157" class="cls-8" d="M8.807,1.344a3.7,3.7,0,0,0-3.382,0C4.99,1.324,3.187-.251,2.1.035A5.6,5.6,0,0,0,0,2.955s3.153-1.212,5.068-.182c.447.518.264.662,1.216,1.333a2.445,2.445,0,0,0,3.37-.824A1.852,1.852,0,0,0,8.807,1.344Z" transform="translate(17.044 0.853)"/>
        <path id="ellipse-18" class="cls-9" d="M1.307,2.315A1.664,1.664,0,0,0,2.844,1.026C2.909.389,2.326-.067,1.542.008A1.664,1.664,0,0,0,0,1.3C-.06,1.934.523,2.39,1.307,2.315Z" transform="translate(23.72 1.696) rotate(31)"/>
        <path id="ellipse-18-2" data-name="ellipse-18" class="cls-10" d="M.714,1.264a.908.908,0,0,0,.839-.7C1.588.212,1.27-.036.842,0A.908.908,0,0,0,0,.708C-.033,1.056.286,1.3.714,1.264Z" transform="translate(23.974 2.47) rotate(31)"/>
        <path id="path-98" class="cls-6" d="M9.474,0S8.384,1.44,4.686,1.461A18.682,18.682,0,0,1,0,.862C.073.862,2.282.072,8.375,0,8.376,0,9.474,0,9.474,0Z" transform="translate(26.82 3.37) rotate(3)"/>
        <path id="path-97" class="cls-11" d="M.018,2.3A8.208,8.208,0,0,1,4.264.147,8.866,8.866,0,0,1,8.117.3,6.74,6.74,0,0,1,9.1.867c.37.308.987.728.034.658-1-.009.1-.131-4.556.239C3.683,1.863,2.021,1.947.018,2.3Z" transform="translate(26.868 1.931) rotate(3)"/>
      </g>
      <g id="group-82-2" data-name="group-82" transform="matrix(0.998, -0.07, 0.07, 0.998, 252.511, 1120.304)">
        <path id="path-151-2" data-name="path-151" class="cls-5" d="M22.917,2.318S20.286.893,19.893.744c-3.641-1.191-5.941-.906-7.633.524-1.208.914-3.127,5.24-3.338,8.338-.035,1.661-1.234,3.5-2.482,5.237C3.748,18.607,2.373,28.855,2.373,28.855S.224,34.792,0,39.011c-.013,2.185.492,8.3,1.283,10.1a18.458,18.458,0,0,1,1.089,3.217s2.487,1.011,3.5,0c-.006-.43,4.194,4.675,10.084-.9.589-.725,1.634.654,2.57,0,.654-.549.636,1.253,1.164-4.462-.066-3.061.8-13.193,0-16.3.246-1.75,1.652-9.859.922-13.208-.518-2.224-2.107-2.831-2.278-8.271-.2-1.586,5.705-4.707,6.988-4.532l-.7-1.869Z" transform="translate(6.475 0)"/>
        <path id="path-152-2" data-name="path-152" class="cls-5" d="M12.339,0A75.091,75.091,0,0,1,5.264,8.309C4.2,9.157.917,14.671.5,17.673a7.9,7.9,0,0,0-.348,4.345c.726.627,2.338-3.2,2.338-3.2s3.351-5.465,6.41-6.137C9.387,11.9,12.339,0,12.339,0Z" transform="translate(0 15.863)"/>
        <path id="path-153-2" data-name="path-153" class="cls-5" d="M1.529,0S3.834,4.931,6.357,7.209c1.741,1.857,4.921,6.46,4.71,10.011a34.356,34.356,0,0,1-.451,5.066c-.6,1.193-1.772-1.924-2.648-3.654-1.251-3.56-4.34-6.269-5.188-6.581A4.169,4.169,0,0,1,.037,9.027C-.279,7.221,1.529,0,1.529,0Z" transform="translate(25.32 20.347)"/>
        <path id="path-154-2" data-name="path-154" class="cls-6" d="M5.926,0a13.93,13.93,0,0,1-.6,3.33c-.26.309-.792.131-1.857.126-.289,0-1.958.2-1.958.2S-.035,4.309,0,4.8s2.894-1.077,2.664.193c-.224.458.053,1.022,1.978.671.817.027,1.16-.329,1.89.6.417.277,1.024-1.635,2.307-.351.686.058.17-2.118-.255-2.773S8.84,0,8.84,0Z" transform="translate(2.967 50.615)"/>
        <path id="path-155-2" data-name="path-155" class="cls-6" d="M2.59.429S2.411,3.777,3.6,4.159,6.619,5.4,7.329,5.517,8,6.834,5.289,6.087c-1.035.054-.052,1.4-2.147.589-1.077-.364-1.972-2.248-1.91-.589-.167,1.051-.95.3-1.16-.258a3.638,3.638,0,0,1,.1-1.67s.767-2.764,0-3.73S2.59.429,2.59.429Z" transform="translate(19.476 50.463)"/>
        <path id="path-156-2" data-name="path-156" class="cls-7" d="M18.576.008S13.969-.4,9.9,4.552C7.366,6.169,7.679,5.41,4.663,8.806c-.5.817-3.692,7.6-4.647,19.594-.047,6.4-.157,12.345,2.46,13.887s3.453,0,3.453,0a7.368,7.368,0,0,0,10.478-1.054c.407-.454,1.137,1.279,2.78,0,3.705-10.8,3.363-30.492,1.083-35.584C18.2,1.711,18.576.008,18.576.008Z" transform="translate(6.419 10.064)"/>
        <path id="path-157-2" data-name="path-157" class="cls-8" d="M8.807,1.344a3.7,3.7,0,0,0-3.382,0C4.99,1.324,3.187-.251,2.1.035A5.6,5.6,0,0,0,0,2.955s3.153-1.212,5.068-.182c.447.518.264.662,1.216,1.333a2.445,2.445,0,0,0,3.37-.824A1.852,1.852,0,0,0,8.807,1.344Z" transform="translate(17.044 0.853)"/>
        <path id="ellipse-18-3" data-name="ellipse-18" class="cls-9" d="M1.307,2.315A1.664,1.664,0,0,0,2.844,1.026C2.909.389,2.326-.067,1.542.008A1.664,1.664,0,0,0,0,1.3C-.06,1.934.523,2.39,1.307,2.315Z" transform="translate(23.72 1.696) rotate(31)"/>
        <path id="ellipse-18-4" data-name="ellipse-18" class="cls-10" d="M.714,1.264a.908.908,0,0,0,.839-.7C1.588.212,1.27-.036.842,0A.908.908,0,0,0,0,.708C-.033,1.056.286,1.3.714,1.264Z" transform="translate(23.974 2.47) rotate(31)"/>
        <path id="path-98-2" data-name="path-98" class="cls-6" d="M9.474,0S8.384,1.44,4.686,1.461A18.682,18.682,0,0,1,0,.862C.073.862,2.282.072,8.375,0,8.376,0,9.474,0,9.474,0Z" transform="translate(26.82 3.37) rotate(3)"/>
        <path id="path-97-2" data-name="path-97" class="cls-11" d="M.018,2.3A8.208,8.208,0,0,1,4.264.147,8.866,8.866,0,0,1,8.117.3,6.74,6.74,0,0,1,9.1.867c.37.308.987.728.034.658-1-.009.1-.131-4.556.239C3.683,1.863,2.021,1.947.018,2.3Z" transform="translate(26.868 1.931) rotate(3)"/>
      </g>
      <g id="group-82-3" data-name="group-82" transform="matrix(0.998, -0.07, 0.07, 0.998, 353.351, 1023.667)">
        <path id="path-151-3" data-name="path-151" class="cls-5" d="M22.917,2.318S20.286.893,19.893.744c-3.641-1.191-5.941-.906-7.633.524-1.208.914-3.127,5.24-3.338,8.338-.035,1.661-1.234,3.5-2.482,5.237C3.748,18.607,2.373,28.855,2.373,28.855S.224,34.792,0,39.011c-.013,2.185.492,8.3,1.283,10.1a18.458,18.458,0,0,1,1.089,3.217s2.487,1.011,3.5,0c-.006-.43,4.194,4.675,10.084-.9.589-.725,1.634.654,2.57,0,.654-.549.636,1.253,1.164-4.462-.066-3.061.8-13.193,0-16.3.246-1.75,1.652-9.859.922-13.208-.518-2.224-2.107-2.831-2.278-8.271-.2-1.586,5.705-4.707,6.988-4.532l-.7-1.869Z" transform="translate(6.475 0)"/>
        <path id="path-152-3" data-name="path-152" class="cls-5" d="M12.339,0A75.091,75.091,0,0,1,5.264,8.309C4.2,9.157.917,14.671.5,17.673a7.9,7.9,0,0,0-.348,4.345c.726.627,2.338-3.2,2.338-3.2s3.351-5.465,6.41-6.137C9.387,11.9,12.339,0,12.339,0Z" transform="translate(0 15.863)"/>
        <path id="path-153-3" data-name="path-153" class="cls-5" d="M1.529,0S3.834,4.931,6.357,7.209c1.741,1.857,4.921,6.46,4.71,10.011a34.356,34.356,0,0,1-.451,5.066c-.6,1.193-1.772-1.924-2.648-3.654-1.251-3.56-4.34-6.269-5.188-6.581A4.169,4.169,0,0,1,.037,9.027C-.279,7.221,1.529,0,1.529,0Z" transform="translate(25.32 20.347)"/>
        <path id="path-154-3" data-name="path-154" class="cls-6" d="M5.926,0a13.93,13.93,0,0,1-.6,3.33c-.26.309-.792.131-1.857.126-.289,0-1.958.2-1.958.2S-.035,4.309,0,4.8s2.894-1.077,2.664.193c-.224.458.053,1.022,1.978.671.817.027,1.16-.329,1.89.6.417.277,1.024-1.635,2.307-.351.686.058.17-2.118-.255-2.773S8.84,0,8.84,0Z" transform="translate(2.967 50.615)"/>
        <path id="path-155-3" data-name="path-155" class="cls-6" d="M2.59.429S2.411,3.777,3.6,4.159,6.619,5.4,7.329,5.517,8,6.834,5.289,6.087c-1.035.054-.052,1.4-2.147.589-1.077-.364-1.972-2.248-1.91-.589-.167,1.051-.95.3-1.16-.258a3.638,3.638,0,0,1,.1-1.67s.767-2.764,0-3.73S2.59.429,2.59.429Z" transform="translate(19.476 50.463)"/>
        <path id="path-156-3" data-name="path-156" class="cls-7" d="M18.576.008S13.969-.4,9.9,4.552C7.366,6.169,7.679,5.41,4.663,8.806c-.5.817-3.692,7.6-4.647,19.594-.047,6.4-.157,12.345,2.46,13.887s3.453,0,3.453,0a7.368,7.368,0,0,0,10.478-1.054c.407-.454,1.137,1.279,2.78,0,3.705-10.8,3.363-30.492,1.083-35.584C18.2,1.711,18.576.008,18.576.008Z" transform="translate(6.419 10.064)"/>
        <path id="path-157-3" data-name="path-157" class="cls-8" d="M8.807,1.344a3.7,3.7,0,0,0-3.382,0C4.99,1.324,3.187-.251,2.1.035A5.6,5.6,0,0,0,0,2.955s3.153-1.212,5.068-.182c.447.518.264.662,1.216,1.333a2.445,2.445,0,0,0,3.37-.824A1.852,1.852,0,0,0,8.807,1.344Z" transform="translate(17.044 0.853)"/>
        <path id="ellipse-18-5" data-name="ellipse-18" class="cls-9" d="M1.307,2.315A1.664,1.664,0,0,0,2.844,1.026C2.909.389,2.326-.067,1.542.008A1.664,1.664,0,0,0,0,1.3C-.06,1.934.523,2.39,1.307,2.315Z" transform="translate(23.72 1.696) rotate(31)"/>
        <path id="ellipse-18-6" data-name="ellipse-18" class="cls-10" d="M.714,1.264a.908.908,0,0,0,.839-.7C1.588.212,1.27-.036.842,0A.908.908,0,0,0,0,.708C-.033,1.056.286,1.3.714,1.264Z" transform="translate(23.974 2.47) rotate(31)"/>
        <path id="path-98-3" data-name="path-98" class="cls-6" d="M9.474,0S8.384,1.44,4.686,1.461A18.682,18.682,0,0,1,0,.862C.073.862,2.282.072,8.375,0,8.376,0,9.474,0,9.474,0Z" transform="translate(26.82 3.37) rotate(3)"/>
        <path id="path-97-3" data-name="path-97" class="cls-11" d="M.018,2.3A8.208,8.208,0,0,1,4.264.147,8.866,8.866,0,0,1,8.117.3,6.74,6.74,0,0,1,9.1.867c.37.308.987.728.034.658-1-.009.1-.131-4.556.239C3.683,1.863,2.021,1.947.018,2.3Z" transform="translate(26.868 1.931) rotate(3)"/>
      </g>
      <g id="group-82-4" data-name="group-82" transform="matrix(0.998, -0.07, 0.07, 0.998, 500.41, 838.793)">
        <path id="path-151-4" data-name="path-151" class="cls-5" d="M22.917,2.318S20.286.893,19.893.744c-3.641-1.191-5.941-.906-7.633.524-1.208.914-3.127,5.24-3.338,8.338-.035,1.661-1.234,3.5-2.482,5.237C3.748,18.607,2.373,28.855,2.373,28.855S.224,34.792,0,39.011c-.013,2.185.492,8.3,1.283,10.1a18.458,18.458,0,0,1,1.089,3.217s2.487,1.011,3.5,0c-.006-.43,4.194,4.675,10.084-.9.589-.725,1.634.654,2.57,0,.654-.549.636,1.253,1.164-4.462-.066-3.061.8-13.193,0-16.3.246-1.75,1.652-9.859.922-13.208-.518-2.224-2.107-2.831-2.278-8.271-.2-1.586,5.705-4.707,6.988-4.532l-.7-1.869Z" transform="translate(6.475 0)"/>
        <path id="path-152-4" data-name="path-152" class="cls-5" d="M12.339,0A75.091,75.091,0,0,1,5.264,8.309C4.2,9.157.917,14.671.5,17.673a7.9,7.9,0,0,0-.348,4.345c.726.627,2.338-3.2,2.338-3.2s3.351-5.465,6.41-6.137C9.387,11.9,12.339,0,12.339,0Z" transform="translate(0 15.863)"/>
        <path id="path-153-4" data-name="path-153" class="cls-5" d="M1.529,0S3.834,4.931,6.357,7.209c1.741,1.857,4.921,6.46,4.71,10.011a34.356,34.356,0,0,1-.451,5.066c-.6,1.193-1.772-1.924-2.648-3.654-1.251-3.56-4.34-6.269-5.188-6.581A4.169,4.169,0,0,1,.037,9.027C-.279,7.221,1.529,0,1.529,0Z" transform="translate(25.32 20.347)"/>
        <path id="path-154-4" data-name="path-154" class="cls-6" d="M5.926,0a13.93,13.93,0,0,1-.6,3.33c-.26.309-.792.131-1.857.126-.289,0-1.958.2-1.958.2S-.035,4.309,0,4.8s2.894-1.077,2.664.193c-.224.458.053,1.022,1.978.671.817.027,1.16-.329,1.89.6.417.277,1.024-1.635,2.307-.351.686.058.17-2.118-.255-2.773S8.84,0,8.84,0Z" transform="translate(2.967 50.615)"/>
        <path id="path-155-4" data-name="path-155" class="cls-6" d="M2.59.429S2.411,3.777,3.6,4.159,6.619,5.4,7.329,5.517,8,6.834,5.289,6.087c-1.035.054-.052,1.4-2.147.589-1.077-.364-1.972-2.248-1.91-.589-.167,1.051-.95.3-1.16-.258a3.638,3.638,0,0,1,.1-1.67s.767-2.764,0-3.73S2.59.429,2.59.429Z" transform="translate(19.476 50.463)"/>
        <path id="path-156-4" data-name="path-156" class="cls-7" d="M18.576.008S13.969-.4,9.9,4.552C7.366,6.169,7.679,5.41,4.663,8.806c-.5.817-3.692,7.6-4.647,19.594-.047,6.4-.157,12.345,2.46,13.887s3.453,0,3.453,0a7.368,7.368,0,0,0,10.478-1.054c.407-.454,1.137,1.279,2.78,0,3.705-10.8,3.363-30.492,1.083-35.584C18.2,1.711,18.576.008,18.576.008Z" transform="translate(6.419 10.064)"/>
        <path id="path-157-4" data-name="path-157" class="cls-8" d="M8.807,1.344a3.7,3.7,0,0,0-3.382,0C4.99,1.324,3.187-.251,2.1.035A5.6,5.6,0,0,0,0,2.955s3.153-1.212,5.068-.182c.447.518.264.662,1.216,1.333a2.445,2.445,0,0,0,3.37-.824A1.852,1.852,0,0,0,8.807,1.344Z" transform="translate(17.044 0.853)"/>
        <path id="ellipse-18-7" data-name="ellipse-18" class="cls-9" d="M1.307,2.315A1.664,1.664,0,0,0,2.844,1.026C2.909.389,2.326-.067,1.542.008A1.664,1.664,0,0,0,0,1.3C-.06,1.934.523,2.39,1.307,2.315Z" transform="translate(23.72 1.696) rotate(31)"/>
        <path id="ellipse-18-8" data-name="ellipse-18" class="cls-10" d="M.714,1.264a.908.908,0,0,0,.839-.7C1.588.212,1.27-.036.842,0A.908.908,0,0,0,0,.708C-.033,1.056.286,1.3.714,1.264Z" transform="translate(23.974 2.47) rotate(31)"/>
        <path id="path-98-4" data-name="path-98" class="cls-6" d="M9.474,0S8.384,1.44,4.686,1.461A18.682,18.682,0,0,1,0,.862C.073.862,2.282.072,8.375,0,8.376,0,9.474,0,9.474,0Z" transform="translate(26.82 3.37) rotate(3)"/>
        <path id="path-97-4" data-name="path-97" class="cls-11" d="M.018,2.3A8.208,8.208,0,0,1,4.264.147,8.866,8.866,0,0,1,8.117.3,6.74,6.74,0,0,1,9.1.867c.37.308.987.728.034.658-1-.009.1-.131-4.556.239C3.683,1.863,2.021,1.947.018,2.3Z" transform="translate(26.868 1.931) rotate(3)"/>
      </g>
    </g>
  </g>
</svg>
