<svg xmlns="http://www.w3.org/2000/svg" xmlns:xlink="http://www.w3.org/1999/xlink" viewBox="13276 4696 1500 1228">
  <defs>
    <style>
      .cls-1 {
        clip-path: url(#clip-marine-penguin-2);
      }

      .cls-2 {
        opacity: 0.558;
      }

      .cls-3 {
        fill: #faf7f7;
      }

      .cls-4 {
        fill: #191919;
      }

      .cls-5 {
        fill: none;
      }

      .cls-6 {
        fill: #dd8781;
      }

      .cls-7 {
        fill: #b95630;
      }

      .cls-8 {
        fill: #eac574;
      }

      .cls-9 {
        fill: #da7a36;
      }

      .cls-10 {
        fill: #915400;
      }
    </style>
    <clipPath id="clip-marine-penguin-2">
      <rect x="13276" y="4696" width="1500" height="1228"/>
    </clipPath>
  </defs>
  <g id="marine-penguin-2" class="cls-1">
    <g id="group-77" class="cls-2" transform="translate(14227.175 5156.813) rotate(-49)">
      <path id="path-141" class="cls-3" d="M8.956,6.43C8.2,5.674.686-6.324.182,4.5-1.328,4.494,6.7,26.817,18.537,58.8c.5,2.518,16.64,25.435,34.52,26.442,1.007.755,10.577,1.007,19.894-3.274-.252.5,6.8-2.025,12.34,0S60.107,64.6,60.107,64.6L17.044,19.776Z" transform="translate(15.329 19.998)"/>
      <path id="path-137" class="cls-4" d="M71.919,73.493s4.563-16.067-37.566-44.084c-.263.252-5.953-4.733-17.872-14.641-1.62-.737-25.411-33.7-12.819,1.308.5.5-6.044,18.887,10.577,52.381.755.5,3.777,13.6,23.42,24.176,3.983.975,5.37.749,8.81.512,3.553.078,8.652-1.3,13.437,10.786,8.051-.447,5.67.285,21.449,3.654,1.236-.013-.537-4.892,1.4-4.889,2.77,1.511,1.511-10.062,1.511-10.062s-2.8-13.58-12.348-17.117C72.441,75.757,71.919,73.493,71.919,73.493Z" transform="translate(21.665 0)"/>
      <path id="path-138" class="cls-4" d="M37.959,3.913c-4.939,8.459-4,8.8-12.508,15.121-9.686,3.57-13.234,1.613-20.7,1.249-1.621.044-8.242-.785-2.367,4.784,1.116.561,14.269,9.807,26.608,8.3,4.658-1.006,7.453-2.647,12.71-8.614a44.247,44.247,0,0,0,4.28-7.09c1.526-3.193.767-5.753,8.825-2.479-.5-.755-6.781-11.836-6.781-11.836S42.9-4.546,37.959,3.913Z" transform="translate(0 67.627)"/>
      <path id="path-139" class="cls-4" d="M0,12.068,2.985,9.559S4.037,7.427,14.092,6.652a31.975,31.975,0,0,0,5.729-.609s4.922-.492,4.634-3.942c-.079.049,1.893-5.181,6.236.683a9.957,9.957,0,0,1,1.622,7.256c-.974,2.4-2.3,4.837-7.859,7.675-8.948,2.331-11.057-.529-15.6,2.266-4.346,3.034-4.525,5.289-4.525,5.289Z" transform="translate(89.012 48.484)"/>
      <path id="path-140" class="cls-5" d="M8.056,1.568S-.255.561,5.033,10.886c-.252-.755,3.526,3.022,6.3,5.036l2.781,5.551s-.777,4.029-6.055,1.259C8.066,21.725,3.292,18.2,3.292,18.2A11.662,11.662,0,0,0,1.53,10.886c.233.263,1.493-3.033-1.53-7.818A4.728,4.728,0,0,1,5.033.046C5.27.046,8.056,1.568,8.056,1.568Z" transform="translate(84.539 72.184)"/>
      <path id="path-142" class="cls-6" d="M9.217,16.5S5.188,11.211.906,5.671C.4,6.174-2.871-4.4,7.2,2.145c.828,1.017,1.5.5,3.515,6.548.252.5,4.029,3.274,5.54,5.289S9.217,16.5,9.217,16.5Z" transform="translate(5.78 8.92)"/>
      <path id="path-98" class="cls-6" d="M27.826,0S16.027,5.843,8.771,6.168C8.144,6.2,2.924,7.033,0,3.679.217,3.679,6.6.212,24.582,0,24.587,0,27.826,0,27.826,0Z" transform="matrix(0.602, 0.799, -0.799, 0.602, 100.755, 97.504)"/>
      <path id="path-97" class="cls-7" d="M.256,6.382C-.155,6.639-.462,3.41,2.6,1.421,4.534.16,8.871-.053,13.713.223a30.968,30.968,0,0,1,11.8.857,4.5,4.5,0,0,1,1.194.825,4.984,4.984,0,0,1,.966,1.015c.924.866-2.887,1.887-16.64,2.978C4.564,6.435,6.5,7.255.256,6.382Z" transform="matrix(0.602, 0.799, -0.799, 0.602, 102.804, 95.889)"/>
      <path id="path-136" class="cls-8" d="M11.148,10.179c.77.516-2.605,3.941-3.475,3.975C-2.616,8.888.421,5.292.41,3.429.763,2.642,6.554.048,10.474.01,10.475-.252,4.6,4.817,11.148,10.179Z" transform="matrix(0.454, 0.891, -0.891, 0.454, 97.404, 73.72)"/>
      <ellipse id="ellipse-21" class="cls-8" cx="5.315" cy="4.6" rx="5.315" ry="4.6" transform="matrix(-0.574, -0.819, 0.819, -0.574, 89.916, 97.718)"/>
      <path id="ellipse-18" class="cls-9" d="M3.115,0A3.085,3.085,0,0,1,6.344,2.692,2.8,2.8,0,0,1,3.229,5.269,3.085,3.085,0,0,1,0,2.577,2.8,2.8,0,0,1,3.115,0Z" transform="translate(90.61 87.113) rotate(49)"/>
      <path id="ellipse-18-2" data-name="ellipse-18" class="cls-10" d="M1.7,0A1.684,1.684,0,0,1,3.463,1.469a1.531,1.531,0,0,1-1.7,1.407A1.684,1.684,0,0,1,0,1.407,1.531,1.531,0,0,1,1.7,0Z" transform="translate(90.613 88.93) rotate(49)"/>
      <path id="path-141-2" data-name="path-141" class="cls-3" d="M8.956,6.43C8.2,5.674.686-6.324.182,4.5-1.328,4.494,6.7,26.817,18.537,58.8c.5,2.518,16.64,25.435,34.52,26.442,1.007.755,10.577,1.007,19.894-3.274-.252.5,6.8-2.025,12.34,0S60.107,64.6,60.107,64.6L17.044,19.776Z" transform="translate(15.329 19.998)"/>
      <path id="path-137-2" data-name="path-137" class="cls-4" d="M71.919,73.493s4.563-16.067-37.566-44.084c-.263.252-5.953-4.733-17.872-14.641-1.62-.737-25.411-33.7-12.819,1.308.5.5-6.044,18.887,10.577,52.381.755.5,3.777,13.6,23.42,24.176,3.983.975,5.37.749,8.81.512,3.553.078,8.652-1.3,13.437,10.786,8.051-.447,5.67.285,21.449,3.654,1.236-.013-.537-4.892,1.4-4.889,2.77,1.511,1.511-10.062,1.511-10.062s-2.8-13.58-12.348-17.117C72.441,75.757,71.919,73.493,71.919,73.493Z" transform="translate(21.665 0)"/>
      <path id="path-138-2" data-name="path-138" class="cls-4" d="M37.959,3.913c-4.939,8.459-4,8.8-12.508,15.121-9.686,3.57-13.234,1.613-20.7,1.249-1.621.044-8.242-.785-2.367,4.784,1.116.561,14.269,9.807,26.608,8.3,4.658-1.006,7.453-2.647,12.71-8.614a44.247,44.247,0,0,0,4.28-7.09c1.526-3.193.767-5.753,8.825-2.479-.5-.755-6.781-11.836-6.781-11.836S42.9-4.546,37.959,3.913Z" transform="translate(0 67.627)"/>
      <path id="path-139-2" data-name="path-139" class="cls-4" d="M0,12.068,2.985,9.559S4.037,7.427,14.092,6.652a31.975,31.975,0,0,0,5.729-.609s4.922-.492,4.634-3.942c-.079.049,1.893-5.181,6.236.683a9.957,9.957,0,0,1,1.622,7.256c-.974,2.4-2.3,4.837-7.859,7.675-8.948,2.331-11.057-.529-15.6,2.266-4.346,3.034-4.525,5.289-4.525,5.289Z" transform="translate(89.012 48.484)"/>
      <path id="path-140-2" data-name="path-140" class="cls-5" d="M8.056,1.568S-.255.561,5.033,10.886c-.252-.755,3.526,3.022,6.3,5.036l2.781,5.551s-.777,4.029-6.055,1.259C8.066,21.725,3.292,18.2,3.292,18.2A11.662,11.662,0,0,0,1.53,10.886c.233.263,1.493-3.033-1.53-7.818A4.728,4.728,0,0,1,5.033.046C5.27.046,8.056,1.568,8.056,1.568Z" transform="translate(84.539 72.184)"/>
      <path id="path-98-2" data-name="path-98" class="cls-6" d="M27.826,0S16.027,5.843,8.771,6.168C8.144,6.2,2.924,7.033,0,3.679.217,3.679,6.6.212,24.582,0,24.587,0,27.826,0,27.826,0Z" transform="matrix(0.602, 0.799, -0.799, 0.602, 100.755, 97.504)"/>
      <path id="path-97-2" data-name="path-97" class="cls-7" d="M.256,6.382C-.155,6.639-.462,3.41,2.6,1.421,4.534.16,8.871-.053,13.713.223a30.968,30.968,0,0,1,11.8.857,4.5,4.5,0,0,1,1.194.825,4.984,4.984,0,0,1,.966,1.015c.924.866-2.887,1.887-16.64,2.978C4.564,6.435,6.5,7.255.256,6.382Z" transform="matrix(0.602, 0.799, -0.799, 0.602, 102.804, 95.889)"/>
      <path id="path-136-2" data-name="path-136" class="cls-8" d="M11.148,10.179c.77.516-2.605,3.941-3.475,3.975C-2.616,8.888.421,5.292.41,3.429.763,2.642,6.554.048,10.474.01,10.475-.252,4.6,4.817,11.148,10.179Z" transform="matrix(0.454, 0.891, -0.891, 0.454, 97.404, 73.72)"/>
      <ellipse id="ellipse-21-2" data-name="ellipse-21" class="cls-8" cx="5.315" cy="4.6" rx="5.315" ry="4.6" transform="matrix(-0.574, -0.819, 0.819, -0.574, 89.916, 97.718)"/>
      <path id="ellipse-18-3" data-name="ellipse-18" class="cls-9" d="M3.115,0A3.085,3.085,0,0,1,6.344,2.692,2.8,2.8,0,0,1,3.229,5.269,3.085,3.085,0,0,1,0,2.577,2.8,2.8,0,0,1,3.115,0Z" transform="translate(90.61 87.113) rotate(49)"/>
      <path id="ellipse-18-4" data-name="ellipse-18" class="cls-10" d="M1.7,0A1.684,1.684,0,0,1,3.463,1.469a1.531,1.531,0,0,1-1.7,1.407A1.684,1.684,0,0,1,0,1.407,1.531,1.531,0,0,1,1.7,0Z" transform="translate(90.613 88.93) rotate(49)"/>
    </g>
  </g>
</svg>
