<svg xmlns="http://www.w3.org/2000/svg" xmlns:xlink="http://www.w3.org/1999/xlink" viewBox="8139 4696 1500 1228">
  <defs>
    <style>
      .cls-1 {
        clip-path: url(#clip-marine-wave);
      }

      .cls-2 {
        fill: #adadad;
      }

      .cls-3 {
        fill: #818181;
      }

      .cls-4 {
        fill: #f4b424;
      }

      .cls-5, .cls-9 {
        fill: none;
      }

      .cls-5 {
        stroke: #d6920f;
        stroke-width: 16px;
      }

      .cls-6, .cls-8 {
        fill: #fff;
      }

      .cls-6 {
        font-size: 23px;
        font-family: HelveticaNeue-Bold, Helvetica Neue;
        font-weight: 700;
        letter-spacing: -0.03em;
      }

      .cls-7 {
        opacity: 0.432;
      }

      .cls-8, .cls-9 {
        stroke: #95989a;
        stroke-width: 1px;
      }

      .cls-10 {
        opacity: 0.917;
      }

      .cls-11 {
        fill: #1b76d1;
      }

      .cls-12 {
        fill: #0e63b9;
      }

      .cls-13 {
        fill: #3b9fff;
      }
    </style>
    <clipPath id="clip-marine-wave">
      <rect x="8139" y="4696" width="1500" height="1228"/>
    </clipPath>
  </defs>
  <g id="marine-wave" class="cls-1">
    <rect id="rectangle-13" class="cls-2" width="32.273" height="133.931" transform="translate(8572.622 4947.968)"/>
    <ellipse id="ellipse-10" class="cls-3" cx="83.866" cy="83.866" rx="83.866" ry="83.866" transform="translate(8504.086 4816.5)"/>
    <ellipse id="ellipse-10-2" data-name="ellipse-10" class="cls-4" cx="68.579" cy="68.579" rx="68.579" ry="68.579" transform="translate(8519.372 4830.173)"/>
    <path id="line-14" class="cls-5" d="M0,0,117.795,62.932" transform="translate(8530.794 4862.637) rotate(8)"/>
    <text id="No_Fishing" data-name="No Fishing" class="cls-6" transform="translate(8531.546 4906.301)"><tspan x="0" y="0">No Fishing</tspan></text>
    <g id="group-20" class="cls-7" transform="translate(8625.74 5151.792) rotate(9)">
      <path id="path-34" class="cls-8" d="M.179,31.772S58.123-14.86,97.557,19.931C96.752,20.607,25.932,43.9.179,0-.224-.321.179,31.772.179,31.772Z" transform="translate(0 0)"/>
      <path id="path-35" class="cls-9" d="M4.113,0s-9.255,7.769,0,13.173" transform="translate(76.963 10.492)"/>
    </g>
    <g id="group-20-2" data-name="group-20" class="cls-10" transform="translate(8383.23 5150.181) rotate(-34)">
      <path id="path-34-2" data-name="path-34" class="cls-8" d="M.179,31.772S58.123-14.86,97.557,19.931C96.752,20.607,25.932,43.9.179,0-.224-.321.179,31.772.179,31.772Z" transform="translate(0 0)"/>
      <path id="path-35-2" data-name="path-35" class="cls-9" d="M4.113,0s-9.255,7.769,0,13.173" transform="translate(76.963 10.492)"/>
    </g>
    <path id="path-33" class="cls-11" d="M720.066,2059.341c76.477-31.093,114.445-42.784,129.112-47.121,51.2-15.144,183.542-44.9,319.443.588,174.009,58.246,285.32,98.569,450.059,0,73.094-39.331,284.432-129.114,498.148,12.019,0,.284,76.516,56,103.172,85.769.474,0,.474,807.783,0,807.783-.947,0-1497.6-17.813-1499.934-14.933C719.161,2910.167,720.918,2059.286,720.066,2059.341Z" transform="translate(7418.733 3009.989)"/>
    <path id="path-33-2" data-name="path-33" class="cls-12" d="M827.352,2021.065c12.449-3.887,25.48-7.3,31.091-8.845,54.871-15.144,196.685-44.9,342.318.588,186.47,58.246,305.751,98.569,482.287,0,78.328-39.331,304.8-129.114,533.82,12.019,0,.284,82,56,110.561,85.769.508,0,.508,663.783,0,663.783-.855,0-1498.967-2.641-1500.077,0C829.881,2775.129,828.575,2023.144,827.352,2021.065Z" transform="translate(7311.432 3153.989)"/>
    <path id="path-33-3" data-name="path-33" class="cls-13" d="M720.066,2058.488c76.638-31.093,114.685-41.931,129.383-46.268,51.312-15.144,183.927-44.9,320.113.588,174.374,58.246,285.918,98.569,451,0,73.247-39.331,285.029-129.114,499.193,12.019,0,.284,76.677,56,103.389,85.769v537.77s-1500.739-2.881-1503.08,0C719.16,2655.086,720.92,2058.433,720.066,2058.488Z" transform="translate(7415.733 3282.989)"/>
  </g>
</svg>
