<svg xmlns="http://www.w3.org/2000/svg" xmlns:xlink="http://www.w3.org/1999/xlink" viewBox="6510 4696 1500 760">
  <defs>
    <style>
      .cls-1 {
        clip-path: url(#clip-marine);
      }

      .cls-2 {
        fill: #adadad;
      }

      .cls-3 {
        fill: #818181;
      }

      .cls-4 {
        fill: #f4b424;
      }

      .cls-18, .cls-26, .cls-5 {
        fill: none;
      }

      .cls-5 {
        stroke: #d6920f;
        stroke-width: 16px;
      }

      .cls-17, .cls-22, .cls-6 {
        fill: #fff;
      }

      .cls-6 {
        font-size: 23px;
        font-family: HelveticaNeue-Bold, Helvetica Neue;
        font-weight: 700;
        letter-spacing: -0.03em;
      }

      .cls-7 {
        fill: #1b76d1;
      }

      .cls-8 {
        fill: #0e63b9;
      }

      .cls-9 {
        fill: #faf7f7;
      }

      .cls-10 {
        fill: #191919;
      }

      .cls-11 {
        fill: #eac574;
      }

      .cls-12 {
        fill: #dd8781;
      }

      .cls-13 {
        fill: #b95630;
      }

      .cls-14 {
        fill: #da7a36;
      }

      .cls-15 {
        fill: #915400;
      }

      .cls-16 {
        opacity: 0.432;
      }

      .cls-17, .cls-18 {
        stroke: #95989a;
        stroke-width: 1px;
      }

      .cls-19 {
        opacity: 0.917;
      }

      .cls-20 {
        fill: #3b9fff;
      }

      .cls-21 {
        opacity: 0.771;
      }

      .cls-23 {
        opacity: 0.857;
      }

      .cls-24 {
        fill: #efefef;
      }

      .cls-25 {
        opacity: 0.558;
      }
    </style>
    <clipPath id="clip-marine">
      <rect x="6510" y="4696" width="1500" height="760"/>
    </clipPath>
  </defs>
  <g id="marine" class="cls-1">
    <rect id="rectangle-13" class="cls-2" width="32.273" height="133.931" transform="translate(6943.622 4947.968)"/>
    <ellipse id="ellipse-10" class="cls-3" cx="83.866" cy="83.866" rx="83.866" ry="83.866" transform="translate(6875.086 4816.5)"/>
    <ellipse id="ellipse-10-2" data-name="ellipse-10" class="cls-4" cx="68.579" cy="68.579" rx="68.579" ry="68.579" transform="translate(6890.373 4830.173)"/>
    <path id="line-14" class="cls-5" d="M0,0,117.795,62.932" transform="translate(6901.793 4862.637) rotate(8)"/>
    <text id="No_Fishing" data-name="No Fishing" class="cls-6" transform="translate(6902.546 4906.301)"><tspan x="0" y="0">No Fishing</tspan></text>
    <path id="path-33" class="cls-7" d="M720.066,2059.341c76.477-31.093,114.445-42.784,129.112-47.121,51.2-15.144,183.542-44.9,319.443.588,174.009,58.246,285.32,98.569,450.059,0,73.094-39.331,284.432-129.114,498.148,12.019,0,.284,76.516,56,103.172,85.769.474,0,.474,378.454,0,378.454-.947,0-1497.6-4.436-1499.934-1.555C719.161,2494.216,720.918,2059.286,720.066,2059.341Z" transform="translate(5789.733 3009.989)"/>
    <path id="path-33-2" data-name="path-33" class="cls-8" d="M827.352,2021.065c12.449-3.887,25.48-7.3,31.091-8.845,54.871-15.144,196.685-44.9,342.318.588,186.47,58.246,305.751,98.569,482.287,0,78.328-39.331,304.8-129.114,533.82,12.019,0,.284,82,56,110.561,85.769.508,0,.508,229.158,0,229.158-.855,0-1498.967-.7-1500.077,1.937C829.881,2342.441,828.575,2023.144,827.352,2021.065Z" transform="translate(5682.432 3153.989)"/>
    <g id="group-71" transform="matrix(-0.996, -0.087, 0.087, -0.996, 7235.137, 5105.114)">
      <path id="path-132" class="cls-9" d="M0,53.808S18.386,30.655,25.011,25.273c.414.207,6-11.377,32.086-19.657,0,.429,26.94-9.714,63.153-3.711-.221-.207,7.216,1.418,8.06,2.039.016.414-102.04,45.749-102.04,45.749L17.576,56.11Z" transform="translate(28.37 13.158)"/>
      <path id="path-131" class="cls-10" d="M1.5,69.533S16.2,80.5,35.448,66.014a15.946,15.946,0,0,0,1.876-1.7c1.071-1.727,3.575-5.447,12.615-8.241-.828-.207,7.259-1.512,15.939-3.12-.621.207,21.529-6.21,34.57-16.147,0-.207,39.332-28.567,44.3-31.258a67.027,67.027,0,0,1,7.167-3.857c.065-.028.243-.1.42-.175,1.97-.805-3.372-1.2-5.586-1.478-10.119-.223-25.884.3-34.625,5.51-.207-.414-19.873,12.166-33.249,13.387,0-1.139-21.327,7.545-33.525,13.663-3.206,1.608-6.635,6.186-8.026,7.044C29.2,48.34,26.572,48.911,23.26,50.291c-2.622.546-8.268-.463-11.028-1.153C8.92,51.993,4.916,56.29.06,61.145-.354,61.145,1.5,69.533,1.5,69.533Z" transform="translate(17.296 16.089)"/>
      <path id="path-136" class="cls-11" d="M12.792,6.689c.842.584-1.718,5.776-2.667,5.81C-1.128,6.53.047,6.627.026,4.532.407,3.649,6.313.483,10.051.044,10.051-.25,5.238.8,12.792,6.689Z" transform="translate(44.913 90.816) rotate(-172)"/>
      <path id="path-98" class="cls-12" d="M26.3,0S15.146,5.526,8.289,5.833C7.7,5.867,2.763,6.652,0,3.48.2,3.48,6.238.2,23.231,0,23.236,0,26.3,0,26.3,0Z" transform="translate(26.297 82.575) rotate(180)"/>
      <path id="path-97" class="cls-13" d="M.149,6.993C-.526,7.415.731-.58,11.5.034a56.717,56.717,0,0,1,12.52,1.945,4.252,4.252,0,0,1,1.129.78,4.713,4.713,0,0,1,.912.96c.873.819-.683-.413-13.681.618A53.856,53.856,0,0,0,.149,6.993Z" transform="translate(26.258 85.999) rotate(180)"/>
      <path id="path-133" class="cls-10" d="M16.138,41.425A22.789,22.789,0,0,1,0,41.425s9.486-15.11,14.955-21.454C18.18,15.827,28.567,8.3,40.16,2.093c-.828-.207,15.318-6.21,6.21,3.105A100.965,100.965,0,0,0,30.7,22.849c-3.044,5.23-3.787,4.086-5.236,10.089C24.634,32.317,22.556,37.285,16.138,41.425Z" transform="translate(65.611 9.419)"/>
      <ellipse id="ellipse-21" class="cls-11" cx="5.796" cy="5.175" rx="5.796" ry="5.175" transform="translate(26.885 72.562)"/>
      <path id="ellipse-18" class="cls-14" d="M3.407,0A3.372,3.372,0,0,1,6.92,3.015,3.114,3.114,0,0,1,3.513,5.924,3.372,3.372,0,0,1,0,2.91,3.114,3.114,0,0,1,3.407,0Z" transform="translate(35.935 80.054) rotate(174)"/>
      <path id="ellipse-18-2" data-name="ellipse-18" class="cls-15" d="M1.86,0A1.841,1.841,0,0,1,3.777,1.646a1.7,1.7,0,0,1-1.86,1.588A1.841,1.841,0,0,1,0,1.588,1.7,1.7,0,0,1,1.86,0Z" transform="translate(34.305 78.88) rotate(174)"/>
      <path id="path-135" class="cls-12" d="M0,13.158,12.627,3.6S21.969-2.189,29.421.916C29.836.5,27.922,2.6,25.7,5.056A15.653,15.653,0,0,1,18.933,9.2c-2.278.029-5.684,1.04-9.2,5.18C9.315,14.583,0,13.158,0,13.158Z" transform="translate(132.444 0)"/>
      <path id="path-132-2" data-name="path-132" class="cls-9" d="M0,53.808S18.386,30.655,25.011,25.273c.414.207,6-11.377,32.086-19.657,0,.429,26.94-9.714,63.153-3.711-.221-.207,7.216,1.418,8.06,2.039.016.414-102.04,45.749-102.04,45.749L17.576,56.11Z" transform="translate(28.37 13.158)"/>
      <path id="path-131-2" data-name="path-131" class="cls-10" d="M1.5,69.533S16.2,80.5,35.448,66.014a15.946,15.946,0,0,0,1.876-1.7c1.071-1.727,3.575-5.447,12.615-8.241-.828-.207,7.259-1.512,15.939-3.12-.621.207,21.529-6.21,34.57-16.147,0-.207,39.332-28.567,44.3-31.258a67.027,67.027,0,0,1,7.167-3.857c.065-.028.243-.1.42-.175,1.97-.805-3.372-1.2-5.586-1.478-10.119-.223-25.884.3-34.625,5.51-.207-.414-19.873,12.166-33.249,13.387,0-1.139-21.327,7.545-33.525,13.663-3.206,1.608-6.635,6.186-8.026,7.044C29.2,48.34,26.572,48.911,23.26,50.291c-2.622.546-8.268-.463-11.028-1.153C8.92,51.993,4.916,56.29.06,61.145-.354,61.145,1.5,69.533,1.5,69.533Z" transform="translate(17.296 16.089)"/>
      <path id="path-136-2" data-name="path-136" class="cls-11" d="M12.792,6.689c.842.584-1.718,5.776-2.667,5.81C-1.128,6.53.047,6.627.026,4.532.407,3.649,6.313.483,10.051.044,10.051-.25,5.238.8,12.792,6.689Z" transform="translate(44.913 90.816) rotate(-172)"/>
      <path id="path-98-2" data-name="path-98" class="cls-12" d="M26.3,0S15.146,5.526,8.289,5.833C7.7,5.867,2.763,6.652,0,3.48.2,3.48,6.238.2,23.231,0,23.236,0,26.3,0,26.3,0Z" transform="translate(26.297 82.575) rotate(180)"/>
      <path id="path-97-2" data-name="path-97" class="cls-13" d="M.149,6.993C-.526,7.415.731-.58,11.5.034a56.717,56.717,0,0,1,12.52,1.945,4.252,4.252,0,0,1,1.129.78,4.713,4.713,0,0,1,.912.96c.873.819-.683-.413-13.681.618A53.856,53.856,0,0,0,.149,6.993Z" transform="translate(26.258 85.999) rotate(180)"/>
      <path id="path-133-2" data-name="path-133" class="cls-10" d="M16.138,41.425A22.789,22.789,0,0,1,0,41.425s9.486-15.11,14.955-21.454C18.18,15.827,28.567,8.3,40.16,2.093c-.828-.207,15.318-6.21,6.21,3.105A100.965,100.965,0,0,0,30.7,22.849c-3.044,5.23-3.787,4.086-5.236,10.089C24.634,32.317,22.556,37.285,16.138,41.425Z" transform="translate(65.611 9.419)"/>
      <ellipse id="ellipse-21-2" data-name="ellipse-21" class="cls-11" cx="5.796" cy="5.175" rx="5.796" ry="5.175" transform="translate(26.885 72.562)"/>
      <path id="ellipse-18-3" data-name="ellipse-18" class="cls-14" d="M3.407,0A3.372,3.372,0,0,1,6.92,3.015,3.114,3.114,0,0,1,3.513,5.924,3.372,3.372,0,0,1,0,2.91,3.114,3.114,0,0,1,3.407,0Z" transform="translate(35.935 80.054) rotate(174)"/>
      <path id="ellipse-18-4" data-name="ellipse-18" class="cls-15" d="M1.86,0A1.841,1.841,0,0,1,3.777,1.646a1.7,1.7,0,0,1-1.86,1.588A1.841,1.841,0,0,1,0,1.588,1.7,1.7,0,0,1,1.86,0Z" transform="translate(34.305 78.88) rotate(174)"/>
      <path id="path-135-2" data-name="path-135" class="cls-12" d="M0,13.158,12.627,3.6S21.969-2.189,29.421.916C29.836.5,27.922,2.6,25.7,5.056A15.653,15.653,0,0,1,18.933,9.2c-2.278.029-5.684,1.04-9.2,5.18C9.315,14.583,0,13.158,0,13.158Z" transform="translate(132.444 0)"/>
    </g>
    <g id="group-20" class="cls-16" transform="translate(6996.74 5151.792) rotate(9)">
      <path id="path-34" class="cls-17" d="M.179,31.772S58.123-14.86,97.557,19.931C96.752,20.607,25.932,43.9.179,0-.224-.321.179,31.772.179,31.772Z" transform="translate(0 0)"/>
      <path id="path-35" class="cls-18" d="M4.113,0s-9.255,7.769,0,13.173" transform="translate(76.963 10.492)"/>
    </g>
    <g id="group-20-2" data-name="group-20" class="cls-19" transform="translate(6754.23 5150.181) rotate(-34)">
      <path id="path-34-2" data-name="path-34" class="cls-17" d="M.179,31.772S58.123-14.86,97.557,19.931C96.752,20.607,25.932,43.9.179,0-.224-.321.179,31.772.179,31.772Z" transform="translate(0 0)"/>
      <path id="path-35-2" data-name="path-35" class="cls-18" d="M4.113,0s-9.255,7.769,0,13.173" transform="translate(76.963 10.492)"/>
    </g>
    <path id="path-33-3" data-name="path-33" class="cls-20" d="M720.066,2058.488c76.638-31.093,114.685-41.931,129.383-46.268,51.312-15.144,183.927-44.9,320.113.588,174.374,58.246,285.918,98.569,451,0,73.247-39.331,285.029-129.114,499.193,12.019,0,.284,76.677,56,103.389,85.769v104.566s-1500.739-3.5-1503.08-.616C719.16,2221.266,720.92,2058.433,720.066,2058.488Z" transform="translate(5786.733 3282.989)"/>
    <g id="group-20-3" data-name="group-20" class="cls-21" transform="translate(7461.227 5024.903) rotate(-29)">
      <path id="path-34-3" data-name="path-34" class="cls-22" d="M.179,31.772S58.123-14.86,97.556,19.931C96.752,20.607,25.932,43.9.179,0-.224-.321.179,31.772.179,31.772Z" transform="translate(0 0)"/>
      <path id="path-35-3" data-name="path-35" class="cls-18" d="M4.113,0s-9.255,7.769,0,13.173" transform="translate(76.963 10.492)"/>
    </g>
    <g id="group-20-4" data-name="group-20" class="cls-23" transform="translate(7710.996 5052.563) rotate(14)">
      <path id="path-34-4" data-name="path-34" class="cls-24" d="M.179,31.772S58.123-14.86,97.556,19.931C96.752,20.607,25.932,43.9.179,0-.224-.321.179,31.772.179,31.772Z" transform="translate(0 0)"/>
      <path id="path-35-4" data-name="path-35" class="cls-18" d="M4.113,0s-9.255,7.769,0,13.173" transform="translate(76.963 10.492)"/>
    </g>
    <g id="group-77" class="cls-25" transform="translate(7461.175 5156.813) rotate(-49)">
      <path id="path-141" class="cls-9" d="M8.956,6.43C8.2,5.674.686-6.324.182,4.5-1.328,4.494,6.7,26.817,18.537,58.8c.5,2.518,16.64,25.435,34.52,26.442,1.007.755,10.577,1.007,19.894-3.274-.252.5,6.8-2.025,12.34,0S60.107,64.6,60.107,64.6L17.044,19.776Z" transform="translate(15.329 19.998)"/>
      <path id="path-137" class="cls-10" d="M71.919,73.493s4.563-16.067-37.566-44.084c-.263.252-5.953-4.733-17.872-14.641-1.62-.737-25.411-33.7-12.819,1.308.5.5-6.044,18.887,10.577,52.381.755.5,3.777,13.6,23.42,24.176,3.983.975,5.37.749,8.81.512,3.553.078,8.652-1.3,13.437,10.786,8.051-.447,5.67.285,21.449,3.654,1.236-.013-.537-4.892,1.4-4.889,2.77,1.511,1.511-10.062,1.511-10.062s-2.8-13.58-12.348-17.117C72.441,75.757,71.919,73.493,71.919,73.493Z" transform="translate(21.665 0)"/>
      <path id="path-138" class="cls-10" d="M37.959,3.913c-4.939,8.459-4,8.8-12.508,15.121-9.686,3.57-13.234,1.613-20.7,1.249-1.621.044-8.242-.785-2.367,4.784,1.116.561,14.269,9.807,26.608,8.3,4.658-1.006,7.453-2.647,12.71-8.614a44.247,44.247,0,0,0,4.28-7.09c1.526-3.193.767-5.753,8.825-2.479-.5-.755-6.781-11.836-6.781-11.836S42.9-4.546,37.959,3.913Z" transform="translate(0 67.627)"/>
      <path id="path-139" class="cls-10" d="M0,12.068,2.985,9.559S4.037,7.427,14.092,6.652a31.975,31.975,0,0,0,5.729-.609s4.922-.492,4.634-3.942c-.079.049,1.893-5.181,6.236.683a9.957,9.957,0,0,1,1.622,7.256c-.974,2.4-2.3,4.837-7.859,7.675-8.948,2.331-11.057-.529-15.6,2.266-4.346,3.034-4.525,5.289-4.525,5.289Z" transform="translate(89.012 48.484)"/>
      <path id="path-140" class="cls-26" d="M8.056,1.568S-.255.561,5.033,10.886c-.252-.755,3.526,3.022,6.3,5.036l2.781,5.551s-.777,4.029-6.055,1.259C8.066,21.725,3.292,18.2,3.292,18.2A11.662,11.662,0,0,0,1.53,10.886c.233.263,1.493-3.033-1.53-7.818A4.728,4.728,0,0,1,5.033.046C5.27.046,8.056,1.568,8.056,1.568Z" transform="translate(84.539 72.184)"/>
      <path id="path-142" class="cls-12" d="M9.217,16.5S5.188,11.211.906,5.671C.4,6.174-2.871-4.4,7.2,2.145c.828,1.017,1.5.5,3.515,6.548.252.5,4.029,3.274,5.54,5.289S9.217,16.5,9.217,16.5Z" transform="translate(5.78 8.92)"/>
      <path id="path-98-3" data-name="path-98" class="cls-12" d="M27.826,0S16.027,5.843,8.771,6.168C8.144,6.2,2.924,7.033,0,3.679.217,3.679,6.6.212,24.582,0,24.587,0,27.826,0,27.826,0Z" transform="matrix(0.602, 0.799, -0.799, 0.602, 100.755, 97.504)"/>
      <path id="path-97-3" data-name="path-97" class="cls-13" d="M.256,6.382C-.155,6.639-.462,3.41,2.6,1.421,4.534.16,8.871-.053,13.713.223a30.968,30.968,0,0,1,11.8.857,4.5,4.5,0,0,1,1.194.825,4.984,4.984,0,0,1,.966,1.015c.924.866-2.887,1.887-16.64,2.978C4.564,6.435,6.5,7.255.256,6.382Z" transform="matrix(0.602, 0.799, -0.799, 0.602, 102.804, 95.889)"/>
      <path id="path-136-3" data-name="path-136" class="cls-11" d="M11.148,10.179c.77.516-2.605,3.941-3.475,3.975C-2.616,8.888.421,5.292.41,3.429.763,2.642,6.554.048,10.474.01,10.475-.252,4.6,4.817,11.148,10.179Z" transform="matrix(0.454, 0.891, -0.891, 0.454, 97.404, 73.72)"/>
      <ellipse id="ellipse-21-3" data-name="ellipse-21" class="cls-11" cx="5.315" cy="4.6" rx="5.315" ry="4.6" transform="matrix(-0.574, -0.819, 0.819, -0.574, 89.916, 97.718)"/>
      <path id="ellipse-18-5" data-name="ellipse-18" class="cls-14" d="M3.115,0A3.085,3.085,0,0,1,6.344,2.692,2.8,2.8,0,0,1,3.229,5.269,3.085,3.085,0,0,1,0,2.577,2.8,2.8,0,0,1,3.115,0Z" transform="translate(90.61 87.113) rotate(49)"/>
      <path id="ellipse-18-6" data-name="ellipse-18" class="cls-15" d="M1.7,0A1.684,1.684,0,0,1,3.463,1.469a1.531,1.531,0,0,1-1.7,1.407A1.684,1.684,0,0,1,0,1.407,1.531,1.531,0,0,1,1.7,0Z" transform="translate(90.613 88.93) rotate(49)"/>
      <path id="path-141-2" data-name="path-141" class="cls-9" d="M8.956,6.43C8.2,5.674.686-6.324.182,4.5-1.328,4.494,6.7,26.817,18.537,58.8c.5,2.518,16.64,25.435,34.52,26.442,1.007.755,10.577,1.007,19.894-3.274-.252.5,6.8-2.025,12.34,0S60.107,64.6,60.107,64.6L17.044,19.776Z" transform="translate(15.329 19.998)"/>
      <path id="path-137-2" data-name="path-137" class="cls-10" d="M71.919,73.493s4.563-16.067-37.566-44.084c-.263.252-5.953-4.733-17.872-14.641-1.62-.737-25.411-33.7-12.819,1.308.5.5-6.044,18.887,10.577,52.381.755.5,3.777,13.6,23.42,24.176,3.983.975,5.37.749,8.81.512,3.553.078,8.652-1.3,13.437,10.786,8.051-.447,5.67.285,21.449,3.654,1.236-.013-.537-4.892,1.4-4.889,2.77,1.511,1.511-10.062,1.511-10.062s-2.8-13.58-12.348-17.117C72.441,75.757,71.919,73.493,71.919,73.493Z" transform="translate(21.665 0)"/>
      <path id="path-138-2" data-name="path-138" class="cls-10" d="M37.959,3.913c-4.939,8.459-4,8.8-12.508,15.121-9.686,3.57-13.234,1.613-20.7,1.249-1.621.044-8.242-.785-2.367,4.784,1.116.561,14.269,9.807,26.608,8.3,4.658-1.006,7.453-2.647,12.71-8.614a44.247,44.247,0,0,0,4.28-7.09c1.526-3.193.767-5.753,8.825-2.479-.5-.755-6.781-11.836-6.781-11.836S42.9-4.546,37.959,3.913Z" transform="translate(0 67.627)"/>
      <path id="path-139-2" data-name="path-139" class="cls-10" d="M0,12.068,2.985,9.559S4.037,7.427,14.092,6.652a31.975,31.975,0,0,0,5.729-.609s4.922-.492,4.634-3.942c-.079.049,1.893-5.181,6.236.683a9.957,9.957,0,0,1,1.622,7.256c-.974,2.4-2.3,4.837-7.859,7.675-8.948,2.331-11.057-.529-15.6,2.266-4.346,3.034-4.525,5.289-4.525,5.289Z" transform="translate(89.012 48.484)"/>
      <path id="path-140-2" data-name="path-140" class="cls-26" d="M8.056,1.568S-.255.561,5.033,10.886c-.252-.755,3.526,3.022,6.3,5.036l2.781,5.551s-.777,4.029-6.055,1.259C8.066,21.725,3.292,18.2,3.292,18.2A11.662,11.662,0,0,0,1.53,10.886c.233.263,1.493-3.033-1.53-7.818A4.728,4.728,0,0,1,5.033.046C5.27.046,8.056,1.568,8.056,1.568Z" transform="translate(84.539 72.184)"/>
      <path id="path-98-4" data-name="path-98" class="cls-12" d="M27.826,0S16.027,5.843,8.771,6.168C8.144,6.2,2.924,7.033,0,3.679.217,3.679,6.6.212,24.582,0,24.587,0,27.826,0,27.826,0Z" transform="matrix(0.602, 0.799, -0.799, 0.602, 100.755, 97.504)"/>
      <path id="path-97-4" data-name="path-97" class="cls-13" d="M.256,6.382C-.155,6.639-.462,3.41,2.6,1.421,4.534.16,8.871-.053,13.713.223a30.968,30.968,0,0,1,11.8.857,4.5,4.5,0,0,1,1.194.825,4.984,4.984,0,0,1,.966,1.015c.924.866-2.887,1.887-16.64,2.978C4.564,6.435,6.5,7.255.256,6.382Z" transform="matrix(0.602, 0.799, -0.799, 0.602, 102.804, 95.889)"/>
      <path id="path-136-4" data-name="path-136" class="cls-11" d="M11.148,10.179c.77.516-2.605,3.941-3.475,3.975C-2.616,8.888.421,5.292.41,3.429.763,2.642,6.554.048,10.474.01,10.475-.252,4.6,4.817,11.148,10.179Z" transform="matrix(0.454, 0.891, -0.891, 0.454, 97.404, 73.72)"/>
      <ellipse id="ellipse-21-4" data-name="ellipse-21" class="cls-11" cx="5.315" cy="4.6" rx="5.315" ry="4.6" transform="matrix(-0.574, -0.819, 0.819, -0.574, 89.916, 97.718)"/>
      <path id="ellipse-18-7" data-name="ellipse-18" class="cls-14" d="M3.115,0A3.085,3.085,0,0,1,6.344,2.692,2.8,2.8,0,0,1,3.229,5.269,3.085,3.085,0,0,1,0,2.577,2.8,2.8,0,0,1,3.115,0Z" transform="translate(90.61 87.113) rotate(49)"/>
      <path id="ellipse-18-8" data-name="ellipse-18" class="cls-15" d="M1.7,0A1.684,1.684,0,0,1,3.463,1.469a1.531,1.531,0,0,1-1.7,1.407A1.684,1.684,0,0,1,0,1.407,1.531,1.531,0,0,1,1.7,0Z" transform="translate(90.613 88.93) rotate(49)"/>
    </g>
  </g>
</svg>
