<svg xmlns="http://www.w3.org/2000/svg" xmlns:xlink="http://www.w3.org/1999/xlink" viewBox="11574 4696 1500 1228">
  <defs>
    <style>
      .cls-1 {
        clip-path: url(#clip-marine-penguin-1);
      }

      .cls-2 {
        fill: #faf7f7;
      }

      .cls-3 {
        fill: #191919;
      }

      .cls-4 {
        fill: #eac574;
      }

      .cls-5 {
        fill: #dd8781;
      }

      .cls-6 {
        fill: #b95630;
      }

      .cls-7 {
        fill: #da7a36;
      }

      .cls-8 {
        fill: #915400;
      }
    </style>
    <clipPath id="clip-marine-penguin-1">
      <rect x="11574" y="4696" width="1500" height="1228"/>
    </clipPath>
  </defs>
  <g id="marine-penguin-1" class="cls-1">
    <g id="group-71" transform="matrix(-0.996, -0.087, 0.087, -0.996, 12299.137, 5105.114)">
      <path id="path-132" class="cls-2" d="M0,53.808S18.386,30.655,25.011,25.273c.414.207,6-11.377,32.086-19.657,0,.429,26.94-9.714,63.153-3.711-.221-.207,7.216,1.418,8.06,2.039.016.414-102.04,45.749-102.04,45.749L17.576,56.11Z" transform="translate(28.37 13.158)"/>
      <path id="path-131" class="cls-3" d="M1.5,69.533S16.2,80.5,35.448,66.014a15.946,15.946,0,0,0,1.876-1.7c1.071-1.727,3.575-5.447,12.615-8.241-.828-.207,7.259-1.512,15.939-3.12-.621.207,21.529-6.21,34.57-16.147,0-.207,39.332-28.567,44.3-31.258a67.027,67.027,0,0,1,7.167-3.857c.065-.028.243-.1.42-.175,1.97-.805-3.372-1.2-5.586-1.478-10.119-.223-25.884.3-34.625,5.51-.207-.414-19.873,12.166-33.249,13.387,0-1.139-21.327,7.545-33.525,13.663-3.206,1.608-6.635,6.186-8.026,7.044C29.2,48.34,26.572,48.911,23.26,50.291c-2.622.546-8.268-.463-11.028-1.153C8.92,51.993,4.916,56.29.06,61.145-.354,61.145,1.5,69.533,1.5,69.533Z" transform="translate(17.296 16.089)"/>
      <path id="path-136" class="cls-4" d="M12.792,6.689c.842.584-1.718,5.776-2.667,5.81C-1.128,6.53.047,6.627.026,4.532.407,3.649,6.313.483,10.051.044,10.051-.25,5.238.8,12.792,6.689Z" transform="translate(44.913 90.816) rotate(-172)"/>
      <path id="path-98" class="cls-5" d="M26.3,0S15.146,5.526,8.289,5.833C7.7,5.867,2.763,6.652,0,3.48.2,3.48,6.238.2,23.231,0,23.236,0,26.3,0,26.3,0Z" transform="translate(26.297 82.575) rotate(180)"/>
      <path id="path-97" class="cls-6" d="M.149,6.993C-.526,7.415.731-.58,11.5.034a56.717,56.717,0,0,1,12.52,1.945,4.252,4.252,0,0,1,1.129.78,4.713,4.713,0,0,1,.912.96c.873.819-.683-.413-13.681.618A53.856,53.856,0,0,0,.149,6.993Z" transform="translate(26.258 85.999) rotate(180)"/>
      <path id="path-133" class="cls-3" d="M16.138,41.425A22.789,22.789,0,0,1,0,41.425s9.486-15.11,14.955-21.454C18.18,15.827,28.567,8.3,40.16,2.093c-.828-.207,15.318-6.21,6.21,3.105A100.965,100.965,0,0,0,30.7,22.849c-3.044,5.23-3.787,4.086-5.236,10.089C24.634,32.317,22.556,37.285,16.138,41.425Z" transform="translate(65.611 9.419)"/>
      <ellipse id="ellipse-21" class="cls-4" cx="5.796" cy="5.175" rx="5.796" ry="5.175" transform="translate(26.885 72.562)"/>
      <path id="ellipse-18" class="cls-7" d="M3.407,0A3.372,3.372,0,0,1,6.92,3.015,3.114,3.114,0,0,1,3.513,5.924,3.372,3.372,0,0,1,0,2.91,3.114,3.114,0,0,1,3.407,0Z" transform="translate(35.935 80.054) rotate(174)"/>
      <path id="ellipse-18-2" data-name="ellipse-18" class="cls-8" d="M1.86,0A1.841,1.841,0,0,1,3.777,1.646a1.7,1.7,0,0,1-1.86,1.588A1.841,1.841,0,0,1,0,1.588,1.7,1.7,0,0,1,1.86,0Z" transform="translate(34.305 78.88) rotate(174)"/>
      <path id="path-135" class="cls-5" d="M0,13.158,12.627,3.6S21.969-2.189,29.421.916C29.836.5,27.922,2.6,25.7,5.056A15.653,15.653,0,0,1,18.933,9.2c-2.278.029-5.684,1.04-9.2,5.18C9.315,14.583,0,13.158,0,13.158Z" transform="translate(132.444 0)"/>
      <path id="path-132-2" data-name="path-132" class="cls-2" d="M0,53.808S18.386,30.655,25.011,25.273c.414.207,6-11.377,32.086-19.657,0,.429,26.94-9.714,63.153-3.711-.221-.207,7.216,1.418,8.06,2.039.016.414-102.04,45.749-102.04,45.749L17.576,56.11Z" transform="translate(28.37 13.158)"/>
      <path id="path-131-2" data-name="path-131" class="cls-3" d="M1.5,69.533S16.2,80.5,35.448,66.014a15.946,15.946,0,0,0,1.876-1.7c1.071-1.727,3.575-5.447,12.615-8.241-.828-.207,7.259-1.512,15.939-3.12-.621.207,21.529-6.21,34.57-16.147,0-.207,39.332-28.567,44.3-31.258a67.027,67.027,0,0,1,7.167-3.857c.065-.028.243-.1.42-.175,1.97-.805-3.372-1.2-5.586-1.478-10.119-.223-25.884.3-34.625,5.51-.207-.414-19.873,12.166-33.249,13.387,0-1.139-21.327,7.545-33.525,13.663-3.206,1.608-6.635,6.186-8.026,7.044C29.2,48.34,26.572,48.911,23.26,50.291c-2.622.546-8.268-.463-11.028-1.153C8.92,51.993,4.916,56.29.06,61.145-.354,61.145,1.5,69.533,1.5,69.533Z" transform="translate(17.296 16.089)"/>
      <path id="path-136-2" data-name="path-136" class="cls-4" d="M12.792,6.689c.842.584-1.718,5.776-2.667,5.81C-1.128,6.53.047,6.627.026,4.532.407,3.649,6.313.483,10.051.044,10.051-.25,5.238.8,12.792,6.689Z" transform="translate(44.913 90.816) rotate(-172)"/>
      <path id="path-98-2" data-name="path-98" class="cls-5" d="M26.3,0S15.146,5.526,8.289,5.833C7.7,5.867,2.763,6.652,0,3.48.2,3.48,6.238.2,23.231,0,23.236,0,26.3,0,26.3,0Z" transform="translate(26.297 82.575) rotate(180)"/>
      <path id="path-97-2" data-name="path-97" class="cls-6" d="M.149,6.993C-.526,7.415.731-.58,11.5.034a56.717,56.717,0,0,1,12.52,1.945,4.252,4.252,0,0,1,1.129.78,4.713,4.713,0,0,1,.912.96c.873.819-.683-.413-13.681.618A53.856,53.856,0,0,0,.149,6.993Z" transform="translate(26.258 85.999) rotate(180)"/>
      <path id="path-133-2" data-name="path-133" class="cls-3" d="M16.138,41.425A22.789,22.789,0,0,1,0,41.425s9.486-15.11,14.955-21.454C18.18,15.827,28.567,8.3,40.16,2.093c-.828-.207,15.318-6.21,6.21,3.105A100.965,100.965,0,0,0,30.7,22.849c-3.044,5.23-3.787,4.086-5.236,10.089C24.634,32.317,22.556,37.285,16.138,41.425Z" transform="translate(65.611 9.419)"/>
      <ellipse id="ellipse-21-2" data-name="ellipse-21" class="cls-4" cx="5.796" cy="5.175" rx="5.796" ry="5.175" transform="translate(26.885 72.562)"/>
      <path id="ellipse-18-3" data-name="ellipse-18" class="cls-7" d="M3.407,0A3.372,3.372,0,0,1,6.92,3.015,3.114,3.114,0,0,1,3.513,5.924,3.372,3.372,0,0,1,0,2.91,3.114,3.114,0,0,1,3.407,0Z" transform="translate(35.935 80.054) rotate(174)"/>
      <path id="ellipse-18-4" data-name="ellipse-18" class="cls-8" d="M1.86,0A1.841,1.841,0,0,1,3.777,1.646a1.7,1.7,0,0,1-1.86,1.588A1.841,1.841,0,0,1,0,1.588,1.7,1.7,0,0,1,1.86,0Z" transform="translate(34.305 78.88) rotate(174)"/>
      <path id="path-135-2" data-name="path-135" class="cls-5" d="M0,13.158,12.627,3.6S21.969-2.189,29.421.916C29.836.5,27.922,2.6,25.7,5.056A15.653,15.653,0,0,1,18.933,9.2c-2.278.029-5.684,1.04-9.2,5.18C9.315,14.583,0,13.158,0,13.158Z" transform="translate(132.444 0)"/>
    </g>
  </g>
</svg>
