<svg xmlns="http://www.w3.org/2000/svg" xmlns:xlink="http://www.w3.org/1999/xlink" viewBox="230 861 300 84">
  <defs>
    <style>
      .cls-1 {
        clip-path: url(#clip-name-bg);
      }

      .cls-2 {
        fill: #56a3f4;
        opacity: 0.539;
      }
    </style>
    <clipPath id="clip-name-bg">
      <rect x="230" y="861" width="300" height="84"/>
    </clipPath>
  </defs>
  <g id="name-bg" class="cls-1">
    <path id="path-31" class="cls-2" d="M-5772.695,1462.175c-.27,19.188,3.292,40.408,88.939,48.935,25.973,3.152,73.271-15.292,93.255,19.37,2.032,3.618,37.893,41.49,89.2,28.218,4.463-2.189,17.317-8.547,18.126-30.415a29.723,29.723,0,0,0-8.626-23.221c-8.9-8.007-13.969-13.346-50.723-20.724s-75.995-2.7-96.678-7.884c-56.051-14.043-49.718-16.935-74.944-23.631C-5760.166,1442.187-5771.543,1448.885-5772.695,1462.175Z" transform="translate(5744.327 -1371.597) rotate(-8)"/>
  </g>
</svg>
