<svg xmlns="http://www.w3.org/2000/svg" xmlns:xlink="http://www.w3.org/1999/xlink" viewBox="8278 1239 1279 667"><defs><style>.a{clip-path:url(#c);}.b{opacity:0.316;fill:url(#a);}.c{fill:#185798;opacity:0.215;}</style><linearGradient id="a" x1="0.018" y1="0.211" x2="0.958" y2="0.66" gradientUnits="objectBoundingBox"><stop offset="0" stop-color="#918318"/><stop offset="1" stop-color="#183ebc"/></linearGradient><clipPath id="c"><rect x="8278" y="1239" width="1279" height="667"/></clipPath></defs><g id="b" class="a"><path class="b" d="M.5.5h1280v677H.5Z" transform="translate(8276.5 1238.5)"/><path class="c" d="M-5770.484,1523.643s-48,244.448,212.573,289.706c-5.318,9.052,175.488-90.517,223.349,114.655,2.66,21.121,60.045,187.859,240.852,175.79-2.659-3.017,0-302.958,0-302.958s-37.913-102.285-125.938-145.953-182.01-15.995-231.547-46.668c-134.245-83.125-121.044-116.392-179.494-139.879C-5788.66,1404.859-5770.484,1523.643-5770.484,1523.643Z" transform="translate(13905.004 415.82) rotate(3)"/></g></svg>