<svg xmlns="http://www.w3.org/2000/svg" xmlns:xlink="http://www.w3.org/1999/xlink" viewBox="3169 2512 400 557">
  <defs>
    <style>
      .cls-1 {
        clip-path: url(#clip-penguin-12);
      }

      .cls-2 {
        fill: #191919;
      }

      .cls-3 {
        fill: #dd8781;
      }

      .cls-4 {
        fill: #faf7f7;
      }

      .cls-5 {
        fill: #eac574;
      }

      .cls-6 {
        fill: #da7a36;
      }

      .cls-7 {
        fill: #915400;
      }

      .cls-8 {
        fill: #b95630;
      }
    </style>
    <clipPath id="clip-penguin-12">
      <rect x="3169" y="2512" width="400" height="557"/>
    </clipPath>
  </defs>
  <g id="penguin-12" class="cls-1">
    <g id="group-82" transform="translate(3219.547 2497.797) rotate(8)">
      <path id="path-151" class="cls-2" d="M221.388,22.395S195.971,8.623,192.176,7.189C157-4.316,134.778-1.566,118.435,12.251c-11.667,8.83-30.208,50.617-32.243,80.544-.34,16.049-11.926,33.824-23.982,50.594-26,36.358-39.287,135.356-39.287,135.356S2.163,336.108,0,376.861c-.126,21.1,4.753,80.154,12.4,97.612a178.15,178.15,0,0,1,10.525,31.079s24.024,9.761,33.786,0c-.054-4.154,40.512,45.154,97.425-8.65,5.688-7,15.782,6.318,24.826,0,6.326-5.3,6.15,12.106,11.243-43.108-.637-29.575,7.723-127.454,0-157.433,2.378-16.9,15.958-95.245,8.91-127.591-5.009-21.482-20.354-27.348-22.011-79.9-1.929-15.328,55.11-45.468,67.506-43.781l-6.725-18.05Z" transform="translate(62.548 0)"/>
      <path id="path-152" class="cls-2" d="M119.2,0S85.676,46.313,50.847,80.264c-10.235,8.2-41.991,61.472-46.064,90.463-4.641,16.287-6.2,20.662-3.366,41.972C8.434,218.748,24,181.766,24,181.766s32.373-52.789,61.921-59.291C90.686,114.955,119.2,0,119.2,0Z" transform="translate(0 153.246)"/>
      <path id="path-153" class="cls-2" d="M14.771,0S37.034,47.634,61.406,69.64c16.822,17.944,47.543,62.407,45.5,96.708-.123,21.111-1.544,24.817-4.363,48.944-5.761,11.524-17.118-18.594-25.578-35.3C64.881,145.6,35.05,119.426,26.85,116.409S3.417,104.647.359,87.2,14.771,0,14.771,0Z" transform="translate(244.607 196.556)"/>
      <path id="path-154" class="cls-3" d="M57.249,0S54.87,28.131,51.476,32.167c-2.515,2.99-7.651,1.262-17.935,1.221-2.787-.011-18.917,1.974-18.917,1.974S-.334,41.633.006,46.344s27.957-10.409,25.74,1.868c-2.168,4.424.514,9.877,19.105,6.483,7.891.259,11.211-3.181,18.259,5.783C67.141,63.154,73,44.685,85.4,57.084c6.623.557,1.639-20.458-2.469-26.783S85.4,0,85.4,0Z" transform="translate(28.666 488.964)"/>
      <path id="path-155" class="cls-3" d="M49.684,4.147s1.741,32.339-9.762,36.03S10.643,52.194,3.762,53.294-2.7,66.018,23.534,58.807c10.026.527.5,13.482,20.8,5.688,10.441-3.516,19.111-21.713,18.508-5.688,1.615,10.155,9.205,2.887,11.244-2.5S73.07,40.177,73.07,40.177s-7.429-26.7,0-36.03S49.684,4.147,49.684,4.147Z" transform="translate(169.548 477.85)"/>
      <path id="path-156" class="cls-4" d="M179.447.08s-44.506-3.965-83.8,43.893c-24.486,15.617-21.462,8.288-50.6,41.092C40.231,92.96,9.379,158.5.154,274.352-.3,336.171-1.369,393.615,23.919,408.506s33.361,0,33.361,0,51.649,44.013,101.216-10.186c3.935-4.386,10.987,12.357,26.86,0,35.8-104.335,32.491-294.57,10.467-343.751C175.862,16.527,179.447.08,179.447.08Z" transform="translate(62.015 97.225)"/>
      <path id="path-157" class="cls-5" d="M85.079,12.983s-13.55-8.6-32.672,0C48.206,12.792,30.784-2.424,20.322.334,5.612,9.143,0,28.544,0,28.544s30.456-11.708,48.958-1.759c4.318,5.007,2.552,6.392,11.741,12.878,3.673,2.191,19.839,9.694,32.556-7.957C95.319,18.477,85.079,12.983,85.079,12.983Z" transform="translate(164.649 8.236)"/>
      <path id="ellipse-18" class="cls-6" d="M12.628,22.364c7.574-.723,14.222-6.3,14.848-12.453S22.47-.646,14.9.078.674,6.376.048,12.53,5.054,23.087,12.628,22.364Z" transform="translate(229.145 16.378) rotate(31)"/>
      <path id="ellipse-18-2" data-name="ellipse-18" class="cls-7" d="M6.893,12.207c4.134-.395,7.763-3.438,8.1-6.8S12.265-.352,8.131.042.368,3.48.026,6.839,2.758,12.6,6.893,12.207Z" transform="translate(231.599 23.86) rotate(31)"/>
      <path id="path-98" class="cls-3" d="M91.523,0S80.993,13.912,45.266,14.11c-2.056.117-28.3-.354-45.266-5.782C.709,8.327,22.041.694,80.9,0,80.919.015,91.523,0,91.523,0Z" transform="translate(259.099 32.557) rotate(3)"/>
      <path id="path-97" class="cls-8" d="M.178,22.22c-2.339,1.462,18.736-18.477,41.013-20.8C43.3,1.157,61.936-2.419,78.414,2.9a65.112,65.112,0,0,1,9.508,5.481c3.571,2.977,9.536,7.036.333,6.356-9.657-.086,1.011-1.267-44.011,2.307C35.576,18,19.528,18.8.178,22.22Z" transform="translate(259.559 18.654) rotate(3)"/>
    </g>
  </g>
</svg>
