<svg xmlns="http://www.w3.org/2000/svg" xmlns:xlink="http://www.w3.org/1999/xlink" viewBox="584 826 624 667">
  <defs>
    <style>
      .cls-1 {
        clip-path: url(#clip-penguin-4);
      }

      .cls-2 {
        fill: #faf7f7;
      }

      .cls-3 {
        fill: #191919;
      }

      .cls-4 {
        fill: #eac574;
      }

      .cls-5 {
        fill: #dd8781;
      }

      .cls-6 {
        fill: #b95630;
      }

      .cls-7 {
        fill: #da7a36;
      }

      .cls-8 {
        fill: #915400;
      }
    </style>
    <clipPath id="clip-penguin-4">
      <rect x="584" y="826" width="624" height="667"/>
    </clipPath>
  </defs>
  <g id="penguin-4" class="cls-1">
    <g id="group-71" transform="translate(312.286 800.757) rotate(-20)">
      <path id="path-132" class="cls-2" d="M-1710.654,1369.054s-83.807,121.669-114,149.95c-1.886-1.087-27.363,59.783-146.252,103.295,0-2.257-122.8,51.045-287.856,19.5,1.006,1.088-32.891-7.453-36.736-10.717-.07-2.175,465.107-240.4,465.107-240.4l39.629-33.722Z" transform="translate(2403.67 -951.556)"/>
      <path id="path-131" class="cls-3" d="M-1638.34,1328.757s-66.992-57.653-154.743,18.493c.194.224-6.887,5.835-8.551,8.909-4.883,9.072-16.3,28.621-57.5,43.305,3.774,1.088-33.09,7.946-72.654,16.4,2.831-1.088-98.131,32.634-157.575,84.848,0,1.087-179.277,150.115-201.922,164.257-10.561,7.714-11.635,7.928-32.668,20.269-.3.15-1.108.541-1.913.921-8.979,4.232,15.37,6.319,25.461,7.769,46.124,1.169,117.982-1.587,157.823-28.959.944,2.176,90.582-63.929,151.552-70.348,0,5.984,97.208-39.647,152.81-71.795,14.617-8.451,30.243-32.509,36.585-37.016,37.04-45.688,49-48.687,64.1-55.94,11.952-2.869,37.685,2.433,50.266,6.059,15.1-15,33.351-37.579,55.481-63.092C-1629.9,1372.835-1638.34,1328.757-1638.34,1328.757Z" transform="translate(2375 -1009.292)"/>
      <path id="path-136" class="cls-4" d="M58.6,35.333c3.906,3.14-7.3,30.109-11.636,30.2C-5.046,33.165.335,33.785.036,22.8,1.694,18.213,28.389,2.187,45.435.244,45.407-1.3,23.5,3.766,58.6,35.333Z" transform="translate(617.988 293.186) rotate(8)"/>
      <path id="path-98" class="cls-5" d="M119.863,0S69.037,29.04,37.783,30.653c-2.7.178-25.19,4.3-37.783-12.368C.933,18.285,28.434,1.052,105.889,0,105.91.023,119.863,0,119.863,0Z" transform="translate(702.462 335.472)"/>
      <path id="path-97" class="cls-6" d="M.68,36.746C-2.4,38.964,3.333-3.05,52.408.177,51.555-.36,87.79,2.328,109.474,10.395a19.424,19.424,0,0,1,5.145,4.1,23.656,23.656,0,0,1,4.159,5.044c3.979,4.3-3.115-2.172-62.36,3.25C48.225,24.084,24.966,26.461.68,36.746Z" transform="translate(702.64 317.482)"/>
      <path id="path-133" class="cls-3" d="M-2043.752,1405.637c39.628-17.4,73.561,0,73.561,0s-43.239,79.4-68.169,112.737c-14.7,21.779-62.043,61.311-114.881,93.945,3.773,1.088-69.824,32.634-28.307-16.317.944,0,38.139-38.413,71.431-92.749,13.875-27.481,17.263-21.47,23.868-53.015C-2082.475,1453.5-2073,1427.392-2043.752,1405.637Z" transform="translate(2493.459 -903.422)"/>
      <ellipse id="ellipse-21" class="cls-4" cx="26.42" cy="27.195" rx="26.42" ry="27.195" transform="translate(646.944 333.7)"/>
      <path id="ellipse-18" class="cls-7" d="M15.766,0A15.733,15.733,0,0,1,31.587,15.565,15.6,15.6,0,0,1,15.821,31.076,15.733,15.733,0,0,1,0,15.511,15.6,15.6,0,0,1,15.766,0Z" transform="translate(658.297 348.5) rotate(-6)"/>
      <path id="ellipse-18-2" data-name="ellipse-18" class="cls-8" d="M8.606,0a8.588,8.588,0,0,1,8.635,8.5,8.516,8.516,0,0,1-8.606,8.466A8.588,8.588,0,0,1,0,8.466,8.516,8.516,0,0,1,8.606,0Z" transform="translate(665.831 354.768) rotate(-6)"/>
      <path id="path-135" class="cls-5" d="M-2173.8,1496l-57.558,50.244s-42.58,30.4-76.549,14.085c-1.886,2.175,6.834-8.853,16.984-21.756,8.371-10.121,20.8-18.842,30.823-21.756,10.385-.151,25.911-5.463,41.952-27.219C-2216.261,1488.511-2173.8,1496-2173.8,1496Z" transform="translate(2392.434 -795.75)"/>
      <path id="path-132-2" data-name="path-132" class="cls-2" d="M-1710.654,1369.054s-83.807,121.669-114,149.95c-1.886-1.087-27.363,59.783-146.252,103.295,0-2.257-122.8,51.045-287.856,19.5,1.006,1.088-32.891-7.453-36.736-10.717-.07-2.175,465.107-240.4,465.107-240.4l39.629-33.722Z" transform="translate(2403.67 -951.556)"/>
      <path id="path-131-2" data-name="path-131" class="cls-3" d="M-1638.34,1328.757s-66.992-57.653-154.743,18.493c.194.224-6.887,5.835-8.551,8.909-4.883,9.072-16.3,28.621-57.5,43.305,3.774,1.088-33.09,7.946-72.654,16.4,2.831-1.088-98.131,32.634-157.575,84.848,0,1.087-179.277,150.115-201.922,164.257-10.561,7.714-11.635,7.928-32.668,20.269-.3.15-1.108.541-1.913.921-8.979,4.232,15.37,6.319,25.461,7.769,46.124,1.169,117.982-1.587,157.823-28.959.944,2.176,90.582-63.929,151.552-70.348,0,5.984,97.208-39.647,152.81-71.795,14.617-8.451,30.243-32.509,36.585-37.016,37.04-45.688,49-48.687,64.1-55.94,11.952-2.869,37.685,2.433,50.266,6.059,15.1-15,33.351-37.579,55.481-63.092C-1629.9,1372.835-1638.34,1328.757-1638.34,1328.757Z" transform="translate(2375 -1009.292)"/>
      <path id="path-136-2" data-name="path-136" class="cls-4" d="M58.6,35.333c3.906,3.14-7.3,30.109-11.636,30.2C-5.046,33.165.335,33.785.036,22.8,1.694,18.213,28.389,2.187,45.435.244,45.407-1.3,23.5,3.766,58.6,35.333Z" transform="translate(617.988 293.186) rotate(8)"/>
      <path id="path-98-2" data-name="path-98" class="cls-5" d="M119.863,0S69.037,29.04,37.783,30.653c-2.7.178-25.19,4.3-37.783-12.368C.933,18.285,28.434,1.052,105.889,0,105.91.023,119.863,0,119.863,0Z" transform="translate(702.462 335.472)"/>
      <path id="path-97-2" data-name="path-97" class="cls-6" d="M.68,36.746C-2.4,38.964,3.333-3.05,52.408.177,51.555-.36,87.79,2.328,109.474,10.395a19.424,19.424,0,0,1,5.145,4.1,23.656,23.656,0,0,1,4.159,5.044c3.979,4.3-3.115-2.172-62.36,3.25C48.225,24.084,24.966,26.461.68,36.746Z" transform="translate(702.64 317.482)"/>
      <path id="path-133-2" data-name="path-133" class="cls-3" d="M-2043.752,1405.637c39.628-17.4,73.561,0,73.561,0s-43.239,79.4-68.169,112.737c-14.7,21.779-62.043,61.311-114.881,93.945,3.773,1.088-69.824,32.634-28.307-16.317.944,0,38.139-38.413,71.431-92.749,13.875-27.481,17.263-21.47,23.868-53.015C-2082.475,1453.5-2073,1427.392-2043.752,1405.637Z" transform="translate(2493.459 -903.422)"/>
      <ellipse id="ellipse-21-2" data-name="ellipse-21" class="cls-4" cx="26.42" cy="27.195" rx="26.42" ry="27.195" transform="translate(646.944 333.7)"/>
      <path id="ellipse-18-3" data-name="ellipse-18" class="cls-7" d="M15.766,0A15.733,15.733,0,0,1,31.587,15.565,15.6,15.6,0,0,1,15.821,31.076,15.733,15.733,0,0,1,0,15.511,15.6,15.6,0,0,1,15.766,0Z" transform="translate(658.297 348.5) rotate(-6)"/>
      <path id="ellipse-18-4" data-name="ellipse-18" class="cls-8" d="M8.606,0a8.588,8.588,0,0,1,8.635,8.5,8.516,8.516,0,0,1-8.606,8.466A8.588,8.588,0,0,1,0,8.466,8.516,8.516,0,0,1,8.606,0Z" transform="translate(665.831 354.768) rotate(-6)"/>
      <path id="path-135-2" data-name="path-135" class="cls-5" d="M-2173.8,1496l-57.558,50.244s-42.58,30.4-76.549,14.085c-1.886,2.175,6.834-8.853,16.984-21.756,8.371-10.121,20.8-18.842,30.823-21.756,10.385-.151,25.911-5.463,41.952-27.219C-2216.261,1488.511-2173.8,1496-2173.8,1496Z" transform="translate(2392.434 -795.75)"/>
    </g>
  </g>
</svg>
