<svg xmlns="http://www.w3.org/2000/svg" xmlns:xlink="http://www.w3.org/1999/xlink" viewBox="1418 34 593 667">
  <defs>
    <style>
      .cls-1 {
        clip-path: url(#clip-penguin-2);
      }

      .cls-2, .cls-5 {
        fill: #dd8781;
      }

      .cls-2 {
        stroke: #dd8781;
        stroke-width: 1px;
      }

      .cls-3 {
        fill: #faf7f7;
      }

      .cls-4 {
        fill: #191919;
      }

      .cls-6 {
        fill: #b95630;
      }

      .cls-7 {
        fill: #eac574;
      }

      .cls-8 {
        fill: #da7a36;
      }

      .cls-9 {
        fill: #915400;
      }
    </style>
    <clipPath id="clip-penguin-2">
      <rect x="1418" y="34" width="593" height="667"/>
    </clipPath>
  </defs>
  <g id="penguin-2" class="cls-1">
    <g id="group-80" transform="translate(1405.839 -633.518)">
      <path id="path-149" class="cls-2" d="M-1486.3,1563.818s-2.109-26.6-25.083-75.606c-2.785-12.976,15.572-67.213,42-9.1-.131,15.037,5.706,40.412,5.706,40.412s6.938,24.04,15.107,39.816C-1465.225,1589.118-1486.3,1563.818-1486.3,1563.818Z" transform="translate(1654.097 -761.086)"/>
      <path id="path-148" class="cls-3" d="M-1311.583,1899.355s-96.515,7.539-181.255-222.28c-9.252-33.906-20.9-123.24-14.646-199.794,2.532-24.757,57.728-12.976,57.728-12.976l118.293,340.824Z" transform="translate(1675.044 -674.319)"/>
      <path id="path-146" class="cls-4" d="M-1441.723,1707.211s-4.784-4.584,73.166-71.482c33.946-25.714,47.609-96.718,58.131-129.552.665-.336,9.548-58.92-39.461,1.94-.209-1.917-31.565,46.516-31.565,46.516s-3.42,5.514-39.226,38.819c-6.2,4.92-37.432,29.023-43.564,42.276C-1462.451,1626.805-1441.723,1707.211-1441.723,1707.211Z" transform="translate(1910.305 -620.421)"/>
      <path id="path-145" class="cls-4" d="M-1194.5,1975.131c-6.521-32.163-9.215-10.785-11.005-49-3.869-42.372-10.449-98.129-25.439-156.463,3.79,1.808-70.89-149.373-127.809-224.459-17.031-18.254-17.966-16.944-35.254-35.018-15.7-21.848-31.052-55.648-52.057-58.974-.533-.335-30.831,14.059-18.148,69.559-5.4,27.454-1.867,14.578-20.787,76.2-16.261,30.552-19.817,42.756-22.03,63.328-1.533,2.467,8.8,101.96,42.817,163.325.152-.243,24.224,92.94,78.96,127.388,25.716,21.87,25.941,17.275,66.633,48.608l20.406,26.5,25.459,21.039,48.607,32.385s13.312,37.493,18.643-45.055C-1193.713,2015.547-1192.658,1983.035-1194.5,1975.131Z" transform="translate(1680.616 -783.696)"/>
      <path id="path-147" class="cls-4" d="M-1296.291,1517.8s-14.932-7.752-77.351,0c-2.066.066-77.641,5.015-119.1,29.762s-62.841,36.553-6.987,39.486c24.089-1.988,147.982-10.035,147.982-10.035s75.982.562,100.414,24.4C-1251.861,1602.413-1296.291,1517.8-1296.291,1517.8Z" transform="translate(1546.05 -434.069)"/>
      <g id="group-75" transform="translate(429.279 1241.824) rotate(11)">
        <path id="path-98" class="cls-5" d="M83.935,14.345S58.63,6.209,36.109,5.2C34.159,5.091,9.075-5.944,0,4.468c.393,0,4.886,12.866,23.052,16.3,10.674,2.022,22.817-2.24,45.981-1.967C69.047,18.782,83.935,14.345,83.935,14.345Z" transform="matrix(0.643, 0.766, -0.766, 0.643, 16.324, 2.178)"/>
        <path id="path-97" class="cls-6" d="M0,7.011C.984,9.418-1.184,8.7,8.319,14.874c6,3.915,9.9,4.668,24.932,3.811-.614.335,9.18-1.475,25.631-2.345.34-.176,24.014,3.747,25.6,1.781,2.867-2.687-10.7-13.653-53.4-17.039C11.012-.585,10.285-1.414,0,7.011Z" transform="matrix(0.643, 0.766, -0.766, 0.643, 18.8, 0)"/>
      </g>
      <ellipse id="ellipse-21" class="cls-7" cx="14.053" cy="17.883" rx="14.053" ry="17.883" transform="matrix(0.788, -0.616, 0.616, 0.788, 393.584, 1224.576)"/>
      <path id="path-136" class="cls-7" d="M100.566,86.828c10.608-14.52,42.154-13.8,38.379-50.387-14.12-26.611-36.812,2.885-33.338,21.94C73.259,104.3,50.07,101.3,34.576,94.573c-10.1-6.925-21.022-20.525-20.349-30.966,2.542-25.311,9.752-30.579,19.65-41.664C46.372,9.621,53.97-1.731,53.958.22,44.386,8.887,12,23.548,0,61.918c.156,6.446,17.344,78.06,82.9,42.125C89.814,99.692,89.429,101.409,100.566,86.828Z" transform="matrix(-0.454, 0.891, -0.891, -0.454, 510.571, 1141.205)"/>
      <path id="ellipse-18" class="cls-8" d="M11.123,19.7C17.794,19.06,23.649,14.15,24.2,8.729S19.791-.569,13.12.069.594,5.616.042,11.037,4.451,20.335,11.123,19.7Z" transform="matrix(0.326, 0.946, -0.946, 0.326, 419.49, 1215.623)"/>
      <path id="ellipse-18-2" data-name="ellipse-18" class="cls-9" d="M6.071,10.751c3.641-.348,6.837-3.028,7.138-5.987S10.8-.31,7.161.037.324,3.065.023,6.024,2.43,11.1,6.071,10.751Z" transform="matrix(0.326, 0.946, -0.946, 0.326, 416.91, 1222.06)"/>
    </g>
  </g>
</svg>
