<svg xmlns="http://www.w3.org/2000/svg" xmlns:xlink="http://www.w3.org/1999/xlink" viewBox="2293 2512 200 305">
  <defs>
    <style>
      .cls-1 {
        clip-path: url(#clip-penguin-10);
      }

      .cls-2 {
        fill: #191919;
      }

      .cls-3 {
        fill: #dd8781;
      }

      .cls-4 {
        fill: #faf7f7;
      }

      .cls-5 {
        fill: #eac574;
      }

      .cls-6 {
        fill: #da7a36;
      }

      .cls-7 {
        fill: #915400;
      }

      .cls-8 {
        fill: #b95630;
      }
    </style>
    <clipPath id="clip-penguin-10">
      <rect x="2293" y="2512" width="200" height="305"/>
    </clipPath>
  </defs>
  <g id="penguin-10" class="cls-1">
    <g id="group-82" transform="translate(4336.229 1034.303) rotate(-2)">
      <path id="path-151" class="cls-2" d="M-1895.771,1397.777s13.944-7.554,16.025-8.341c19.3-6.312,31.49-4.8,40.457,2.778,6.4,4.844,16.574,27.77,17.69,44.187.186,8.8,6.542,18.557,13.157,27.758,14.264,19.946,21.553,74.259,21.553,74.259s11.39,31.471,12.576,53.828c.067,11.577-2.608,43.973-6.8,53.551a97.773,97.773,0,0,0-5.774,17.052s-13.18,5.355-18.536,0c.029-2.28-22.226,24.773-53.449-4.746-3.12-3.839-8.658,3.467-13.621,0-3.47-2.907-3.373,6.642-6.167-23.649.351-16.226-4.237-69.925,0-86.372-1.3-9.275-8.755-52.254-4.887-70,2.747-11.784,11.166-15,12.075-43.832,1.057-8.411-30.236-24.946-37.037-24.021l3.69-9.9Z" transform="translate(-160.083 23)"/>
      <path id="path-152" class="cls-2" d="M-1940.512,1463.894s18.391,25.408,37.5,44.035c5.615,4.5,23.037,33.724,25.272,49.63,2.548,8.935,3.4,11.334,1.847,23.026-3.849,3.319-12.39-16.97-12.39-16.97s-17.761-28.962-33.972-32.528C-1924.871,1526.961-1940.512,1463.894-1940.512,1463.894Z" transform="translate(-24.963 28.672)"/>
      <path id="path-153" class="cls-2" d="M-1764.764,1486.053s-12.213,26.133-25.584,38.206c-9.229,9.844-26.084,34.238-24.966,53.056.067,11.582.847,13.615,2.394,26.852,3.16,6.322,9.392-10.2,14.033-19.369,6.632-18.868,23-33.226,27.5-34.881s12.855-6.452,14.535-16.024S-1764.764,1486.053-1764.764,1486.053Z" transform="translate(-277.617 30.274)"/>
      <path id="path-154" class="cls-3" d="M-1908.635,1641.652s1.3,15.434,3.166,17.648c1.38,1.641,4.2.693,9.84.67,1.528-.005,10.377,1.085,10.377,1.085s8.208,3.439,8.021,6.024-15.339-5.71-14.123,1.024c1.191,2.427-.281,5.419-10.48,3.557-4.33.142-6.151-1.746-10.017,3.172-2.213,1.468-5.427-8.665-12.227-1.862-3.634.306-.9-11.223,1.355-14.693s-1.355-16.625-1.355-16.625Z" transform="translate(-38.579 35.097)"/>
      <path id="path-155" class="cls-3" d="M-1826.6,1638.242s.953,17.742-5.339,19.766-16.011,6.593-19.774,7.2-3.534,6.981,10.813,3.025c5.482.289.274,7.4,11.376,3.121,5.709-1.929,10.452-11.912,10.121-3.121.883,5.572,5.034,1.584,6.149-1.368s-.556-8.853-.556-8.853-4.062-14.648,0-19.766S-1826.6,1638.242-1826.6,1638.242Z" transform="translate(-190.434 39.975)"/>
      <path id="path-156" class="cls-4" d="M-1890.73,1435.278s24.417-2.175,45.977,24.08c13.433,8.569,11.775,4.548,27.759,22.544,2.642,4.332,19.567,40.286,24.628,103.848.248,33.915.836,65.43-13.038,73.6s-18.3,0-18.3,0-28.336,24.146-55.529-5.588c-2.159-2.406-6.029,6.779-14.737,0-19.638-57.241-17.825-161.608-5.742-188.59C-1888.762,1444.3-1890.73,1435.278-1890.73,1435.278Z" transform="translate(-141.822 26.598)"/>
      <path id="path-157" class="cls-5" d="M-1851.639,1396.828s7.434-4.719,17.925,0c2.3-.1,11.863-8.452,17.6-6.94,8.07,4.833,11.149,15.477,11.149,15.477s-16.709-6.423-26.859-.965c-2.368,2.746-1.4,3.506-6.442,7.065-2.016,1.2-10.883,5.319-17.86-4.365A9.814,9.814,0,0,1-1851.639,1396.828Z" transform="translate(-185.447 23.305)"/>
      <path id="ellipse-18" class="cls-6" d="M6.928.043c4.155.4,7.8,3.456,8.146,6.832s-2.747,5.792-6.9,5.395S.37,8.814.026,5.437,2.773-.354,6.928.043Z" transform="translate(-2019.454 1428.031) rotate(149)"/>
      <path id="ellipse-18-2" data-name="ellipse-18" class="cls-7" d="M3.782.023C6.05.24,8.04,1.909,8.228,3.752S6.729,6.914,4.461,6.7.2,4.811.014,2.968,1.513-.193,3.782.023Z" transform="translate(-2023.68 1427.342) rotate(149)"/>
      <path id="path-98" class="cls-3" d="M50.212,7.749S44.435.117,24.834.008C23.706-.056,9.305.2,0,3.18c.389,0,12.092,4.188,44.385,4.569C44.394,7.741,50.212,7.749,50.212,7.749Z" transform="translate(-2041.822 1434.092) rotate(177)"/>
      <path id="path-97" class="cls-8" d="M.1.042c-1.283-.8,10.279,10.137,22.5,11.413,1.157.142,11.381,2.1,20.422-.813a35.722,35.722,0,0,0,5.216-3.007C50.2,6,53.468,3.775,48.419,4.148c-5.3.047.555.7-24.146-1.265C19.518,2.358,10.714,1.916.1.042Z" transform="translate(-2041.841 1430.941) rotate(177)"/>
    </g>
  </g>
</svg>
