<svg xmlns="http://www.w3.org/2000/svg" xmlns:xlink="http://www.w3.org/1999/xlink" viewBox="1357 2512 800 211">
  <defs>
    <style>
      .cls-1 {
        clip-path: url(#clip-penguin-8);
      }

      .cls-2 {
        fill: #faf7f7;
      }

      .cls-3 {
        fill: #191919;
      }

      .cls-4 {
        fill: #eac574;
      }

      .cls-5 {
        fill: #dd8781;
      }

      .cls-6 {
        fill: #b95630;
      }

      .cls-7 {
        fill: #da7a36;
      }

      .cls-8 {
        fill: #915400;
      }
    </style>
    <clipPath id="clip-penguin-8">
      <rect x="1357" y="2512" width="800" height="211"/>
    </clipPath>
  </defs>
  <g id="penguin-8" class="cls-1">
    <g id="group-71" transform="translate(2347.398 2887.836) rotate(156)">
      <path id="path-132" class="cls-2" d="M-1733.528,1592.628s-80.528-101.409-109.542-124.982c-1.815.906-26.294-49.827-140.532-86.094,0,1.881-117.992-42.546-276.6-16.252.967-.906-31.6,6.212-35.3,8.932-.068,1.813,446.914,200.372,446.914,200.372l38.08,28.106Z" transform="translate(2401.283 -1006.418)"/>
      <path id="path-131" class="cls-3" d="M-1665.307,1612.385s-64.372,48.053-148.692-15.413c.189-.185-6.617-4.864-8.216-7.424-4.693-7.563-15.657-23.856-55.249-36.095,3.627-.906-31.8-6.623-69.813-13.667,2.719.906-94.293-27.2-151.412-70.719,0-.907-172.265-125.118-194.026-136.906-10.146-6.428-11.179-6.607-31.39-16.893-.285-.124-1.066-.452-1.837-.767-8.628-3.527,14.769-5.267,24.466-6.476,44.318-.975,113.368,1.323,151.649,24.135.906-1.813,87.039,53.284,145.625,58.634,0-4.988,93.407,33.045,146.835,59.84,14.044,7.045,29.059,27.095,35.153,30.853,35.593,38.079,47.089,40.579,61.595,46.624,11.486,2.392,36.21-2.028,48.3-5.05,14.506,12.5,32.046,31.321,53.311,52.586C-1657.2,1575.648-1665.307,1612.385-1665.307,1612.385Z" transform="translate(2375 -944.467)"/>
      <path id="path-136" class="cls-4" d="M56.027,25.447C59.716,22.891,48.5.149,44.344,0-4.939,26.141.207,25.718.114,34.894c1.669,3.864,27.535,17.73,43.907,19.654C44.021,55.835,22.941,51.219,56.027,25.447Z" transform="translate(587.679 636.459) rotate(-8)"/>
      <path id="path-98" class="cls-5" d="M113.356,25.6S66.337,1.826,36.306.482C33.707.333,12.1-3.1,0,10.79c.9,0,27.322,14.363,101.747,15.24C101.767,26.011,113.356,25.6,113.356,25.6Z" transform="translate(676.833 628.546)"/>
      <path id="path-97" class="cls-6" d="M.654.071C-2.3-1.778,3.2,33.24,50.358,30.551c-.819.448,34-1.793,54.834-8.517a18.623,18.623,0,0,0,4.944-3.416,20.641,20.641,0,0,0,4-4.2c3.823-3.586-2.993,1.81-59.921-2.709C46.339,10.624,23.99,8.643.654.071Z" transform="translate(677.004 638.873)"/>
      <path id="path-133" class="cls-3" d="M-2049.641,1579.335c38.079,14.506,70.683,0,70.683,0s-41.547-66.179-65.5-93.964c-14.126-18.152-59.617-51.1-110.391-78.3,3.627-.907-67.092-27.2-27.2,13.6.9,0,36.646,32.016,68.637,77.3,13.331,22.9,16.587,17.894,22.934,44.187C-2086.85,1539.443-2077.748,1561.2-2049.641,1579.335Z" transform="translate(2483.604 -1063.736)"/>
      <ellipse id="ellipse-21" class="cls-4" cx="25.386" cy="22.666" rx="25.386" ry="22.666" transform="translate(623.486 610.721)"/>
      <path id="ellipse-18" class="cls-7" d="M14.924,25.948c8.369-.128,15.258-6.04,15.386-13.2S23.757-.126,15.388,0,.13,6.042,0,13.207,6.555,26.076,14.924,25.948Z" transform="translate(637.331 617.726) rotate(6)"/>
      <path id="ellipse-18-2" data-name="ellipse-18" class="cls-8" d="M8.146,14.163c4.568-.07,8.328-3.3,8.4-7.207S12.967-.069,8.4,0,.071,3.3,0,7.209,3.578,14.233,8.146,14.163Z" transform="translate(643.238 624.306) rotate(6)"/>
      <path id="path-135" class="cls-5" d="M-2179.056,1547.12l-55.3-41.877s-40.916-25.341-73.555-11.74c-1.815-1.813,6.566,7.379,16.319,18.133,8.044,8.435,19.986,15.7,29.617,18.132,9.979.127,24.9,4.554,40.311,22.687C-2219.855,1553.362-2179.056,1547.12-2179.056,1547.12Z" transform="translate(2390.983 -1196.58)"/>
      <path id="path-132-2" data-name="path-132" class="cls-2" d="M-1733.528,1592.628s-80.528-101.409-109.542-124.982c-1.815.906-26.294-49.827-140.532-86.094,0,1.881-117.992-42.546-276.6-16.252.967-.906-31.6,6.212-35.3,8.932-.068,1.813,446.914,200.372,446.914,200.372l38.08,28.106Z" transform="translate(2401.283 -1006.418)"/>
      <path id="path-131-2" data-name="path-131" class="cls-3" d="M-1665.307,1612.385s-64.372,48.053-148.692-15.413c.189-.185-6.617-4.864-8.216-7.424-4.693-7.563-15.657-23.856-55.249-36.095,3.627-.906-31.8-6.623-69.813-13.667,2.719.906-94.293-27.2-151.412-70.719,0-.907-172.265-125.118-194.026-136.906-10.146-6.428-11.179-6.607-31.39-16.893-.285-.124-1.066-.452-1.837-.767-8.628-3.527,14.769-5.267,24.466-6.476,44.318-.975,113.368,1.323,151.649,24.135.906-1.813,87.039,53.284,145.625,58.634,0-4.988,93.407,33.045,146.835,59.84,14.044,7.045,29.059,27.095,35.153,30.853,35.593,38.079,47.089,40.579,61.595,46.624,11.486,2.392,36.21-2.028,48.3-5.05,14.506,12.5,32.046,31.321,53.311,52.586C-1657.2,1575.648-1665.307,1612.385-1665.307,1612.385Z" transform="translate(2375 -944.467)"/>
      <path id="path-136-2" data-name="path-136" class="cls-4" d="M56.027,25.447C59.716,22.891,48.5.149,44.344,0-4.939,26.141.207,25.718.114,34.894c1.669,3.864,27.535,17.73,43.907,19.654C44.021,55.835,22.941,51.219,56.027,25.447Z" transform="translate(587.679 636.459) rotate(-8)"/>
      <path id="path-98-2" data-name="path-98" class="cls-5" d="M111.33,24.19C99.753,18.747,61.442,1.607,36.306.482,33.707.333,12.1-3.1,0,10.79c.9,0,27.322,14.363,101.747,15.24.01-.01,3.353-.187,6.425-.559C110.443,25.2,112.54,24.758,111.33,24.19Z" transform="translate(676.833 628.546)"/>
      <path id="path-97-2" data-name="path-97" class="cls-6" d="M.654.071C-2.3-1.778,3.2,33.24,50.358,30.551c-.819.448,34-1.793,54.834-8.517a18.623,18.623,0,0,0,4.944-3.416,20.641,20.641,0,0,0,4-4.2c3.823-3.586-2.993,1.81-59.921-2.709C46.339,10.624,23.99,8.643.654.071Z" transform="translate(677.004 638.873)"/>
      <path id="path-133-2" data-name="path-133" class="cls-3" d="M-2049.641,1579.335c38.079,14.506,70.683,0,70.683,0s-41.547-66.179-65.5-93.964c-14.126-18.152-59.617-51.1-110.391-78.3,3.627-.907-67.092-27.2-27.2,13.6.9,0,36.646,32.016,68.637,77.3,13.331,22.9,16.587,17.894,22.934,44.187C-2086.85,1539.443-2077.748,1561.2-2049.641,1579.335Z" transform="translate(2483.604 -1063.736)"/>
      <ellipse id="ellipse-21-2" data-name="ellipse-21" class="cls-4" cx="25.386" cy="22.666" rx="25.386" ry="22.666" transform="translate(623.486 610.721)"/>
      <path id="ellipse-18-3" data-name="ellipse-18" class="cls-7" d="M14.924,25.948c8.369-.128,15.258-6.04,15.386-13.2S23.757-.126,15.388,0,.13,6.042,0,13.207,6.555,26.076,14.924,25.948Z" transform="translate(637.331 617.726) rotate(6)"/>
      <path id="ellipse-18-4" data-name="ellipse-18" class="cls-8" d="M8.146,14.163c4.568-.07,8.328-3.3,8.4-7.207S12.967-.069,8.4,0,.071,3.3,0,7.209,3.578,14.233,8.146,14.163Z" transform="translate(643.238 624.306) rotate(6)"/>
      <path id="path-135-2" data-name="path-135" class="cls-5" d="M-2179.056,1547.12l-55.3-41.877s-40.916-25.341-73.555-11.74c-1.815-1.813,6.566,7.379,16.319,18.133,8.044,8.435,19.986,15.7,29.617,18.132,9.979.127,24.9,4.554,40.311,22.687C-2219.855,1553.362-2179.056,1547.12-2179.056,1547.12Z" transform="translate(2390.983 -1196.58)"/>
    </g>
  </g>
</svg>
