<svg xmlns="http://www.w3.org/2000/svg" xmlns:xlink="http://www.w3.org/1999/xlink" viewBox="2305 1598 624 667">
  <defs>
    <style>
      .cls-1 {
        clip-path: url(#clip-penguin-6);
      }

      .cls-2 {
        fill: #faf7f7;
      }

      .cls-3 {
        fill: #191919;
      }

      .cls-4 {
        fill: #eac574;
      }

      .cls-5 {
        fill: #dd8781;
      }

      .cls-6 {
        fill: #b95630;
      }

      .cls-7 {
        fill: #da7a36;
      }

      .cls-8 {
        fill: #915400;
      }
    </style>
    <clipPath id="clip-penguin-6">
      <rect x="2305" y="1598" width="624" height="667"/>
    </clipPath>
  </defs>
  <g id="penguin-6" class="cls-1">
    <g id="group-71" transform="translate(3014.197 1377.023) rotate(74)">
      <path id="path-132" class="cls-2" d="M-1719.865,1368.863s-82.487,119.752-112.206,147.589c-1.857-1.07-26.932,58.841-143.949,101.668,0-2.221-120.862,50.241-283.323,19.192.99,1.07-32.373-7.336-36.158-10.548-.069-2.141,457.782-236.616,457.782-236.616l39-33.191Z" transform="translate(2402.709 -953.323)"/>
      <path id="path-131" class="cls-3" d="M-1649.2,1328.428s-65.937-56.745-152.306,18.2c.191.22-6.779,5.743-8.416,8.769-4.806,8.929-16.038,28.171-56.594,42.623,3.714,1.07-32.569,7.821-71.51,16.139,2.786-1.071-96.585,32.12-155.093,83.512,0,1.07-176.454,147.751-198.742,161.67-10.4,7.593-11.452,7.8-32.154,19.95-.292.147-1.091.533-1.883.906-8.837,4.165,15.128,6.219,25.06,7.647,45.4,1.15,116.124-1.562,155.338-28.5.929,2.142,89.155-62.922,149.165-69.24,0,5.89,95.677-39.022,150.4-70.664,14.386-8.318,29.767-32,36.009-36.433,36.457-44.968,48.233-47.921,63.092-55.059,11.763-2.824,37.091,2.394,49.474,5.963,14.859-14.765,32.825-36.987,54.607-62.1C-1640.891,1371.811-1649.2,1328.428-1649.2,1328.428Z" transform="translate(2375 -1009.377)"/>
      <path id="path-136" class="cls-4" d="M57.682,34.777c3.845,3.09-7.186,29.634-11.453,29.72C-4.967,32.643.329,33.253.036,22.442,1.668,17.927,27.941,2.153,44.72.24,44.692-1.275,23.135,3.706,57.682,34.777Z" transform="translate(608.998 293.186) rotate(8)"/>
      <path id="path-98" class="cls-5" d="M117.975,0S67.95,28.583,37.188,30.17C34.526,30.345,12.4,34.4,0,18,.918,18,27.986,1.036,104.221,0,104.241.023,117.975,0,117.975,0Z" transform="translate(692.142 334.806)"/>
      <path id="path-97" class="cls-6" d="M.67,36.167C-2.36,38.35,3.28-3,51.583.174c-.839-.529,34.825,2.117,56.167,10.057a19.118,19.118,0,0,1,5.064,4.034,23.283,23.283,0,0,1,4.094,4.964c3.916,4.235-3.066-2.138-61.377,3.2C47.466,23.705,24.573,26.045.67,36.167Z" transform="translate(692.317 317.099)"/>
      <path id="path-133" class="cls-3" d="M-2046.123,1405.515c39-17.13,72.4,0,72.4,0s-42.558,78.151-67.1,110.961c-14.468,21.436-61.065,60.345-113.072,92.465,3.714,1.071-68.725,32.12-27.862-16.06.929,0,37.539-37.808,70.306-91.288,13.656-27.048,16.991-21.132,23.492-52.18C-2084.236,1452.624-2074.913,1426.928-2046.123,1405.515Z" transform="translate(2489.49 -906.593)"/>
      <ellipse id="ellipse-21" class="cls-4" cx="26.004" cy="26.767" rx="26.004" ry="26.767" transform="translate(637.498 333.062)"/>
      <path id="ellipse-18" class="cls-7" d="M15.518,0A15.485,15.485,0,0,1,31.089,15.32,15.356,15.356,0,0,1,15.571,30.587,15.485,15.485,0,0,1,0,15.267,15.356,15.356,0,0,1,15.518,0Z" transform="translate(648.672 347.629) rotate(-6)"/>
      <path id="ellipse-18-2" data-name="ellipse-18" class="cls-8" d="M8.47,0a8.452,8.452,0,0,1,8.5,8.362A8.382,8.382,0,0,1,8.5,16.7,8.452,8.452,0,0,1,0,8.333,8.382,8.382,0,0,1,8.47,0Z" transform="translate(656.088 353.798) rotate(-6)"/>
      <path id="path-135" class="cls-5" d="M-2175.916,1495.9l-56.651,49.453s-41.909,29.923-75.343,13.863c-1.857,2.141,6.727-8.714,16.717-21.413,8.24-9.961,20.472-18.545,30.338-21.413,10.222-.148,25.5-5.377,41.291-26.79C-2217.708,1488.527-2175.916,1495.9-2175.916,1495.9Z" transform="translate(2391.85 -802.059)"/>
      <path id="path-132-2" data-name="path-132" class="cls-2" d="M-1719.865,1368.863s-82.487,119.752-112.206,147.589c-1.857-1.07-26.932,58.841-143.949,101.668,0-2.221-120.862,50.241-283.323,19.192.99,1.07-32.373-7.336-36.158-10.548-.069-2.141,457.782-236.616,457.782-236.616l39-33.191Z" transform="translate(2402.709 -953.323)"/>
      <path id="path-131-2" data-name="path-131" class="cls-3" d="M-1649.2,1328.428s-65.937-56.745-152.306,18.2c.191.22-6.779,5.743-8.416,8.769-4.806,8.929-16.038,28.171-56.594,42.623,3.714,1.07-32.569,7.821-71.51,16.139,2.786-1.071-96.585,32.12-155.093,83.512,0,1.07-176.454,147.751-198.742,161.67-10.4,7.593-11.452,7.8-32.154,19.95-.292.147-1.091.533-1.883.906-8.837,4.165,15.128,6.219,25.06,7.647,45.4,1.15,116.124-1.562,155.338-28.5.929,2.142,89.155-62.922,149.165-69.24,0,5.89,95.677-39.022,150.4-70.664,14.386-8.318,29.767-32,36.009-36.433,36.457-44.968,48.233-47.921,63.092-55.059,11.763-2.824,37.091,2.394,49.474,5.963,14.859-14.765,32.825-36.987,54.607-62.1C-1640.891,1371.811-1649.2,1328.428-1649.2,1328.428Z" transform="translate(2375 -1009.377)"/>
      <path id="path-136-2" data-name="path-136" class="cls-4" d="M57.682,34.777c3.845,3.09-7.186,29.634-11.453,29.72C-4.967,32.643.329,33.253.036,22.442,1.668,17.927,27.941,2.153,44.72.24,44.692-1.275,23.135,3.706,57.682,34.777Z" transform="translate(608.998 293.186) rotate(8)"/>
      <path id="path-98-2" data-name="path-98" class="cls-5" d="M117.975,0S67.95,28.583,37.188,30.17C34.526,30.345,12.4,34.4,0,18,.918,18,27.986,1.036,104.221,0,104.241.023,117.975,0,117.975,0Z" transform="translate(692.142 334.806)"/>
      <path id="path-97-2" data-name="path-97" class="cls-6" d="M.67,36.167C-2.36,38.35,3.28-3,51.583.174c-.839-.529,34.825,2.117,56.167,10.057a19.118,19.118,0,0,1,5.064,4.034,23.283,23.283,0,0,1,4.094,4.964c3.916,4.235-3.066-2.138-61.377,3.2C47.466,23.705,24.573,26.045.67,36.167Z" transform="translate(692.317 317.099)"/>
      <path id="path-133-2" data-name="path-133" class="cls-3" d="M-2046.123,1405.515c39-17.13,72.4,0,72.4,0s-42.558,78.151-67.1,110.961c-14.468,21.436-61.065,60.345-113.072,92.465,3.714,1.071-68.725,32.12-27.862-16.06.929,0,37.539-37.808,70.306-91.288,13.656-27.048,16.991-21.132,23.492-52.18C-2084.236,1452.624-2074.913,1426.928-2046.123,1405.515Z" transform="translate(2489.49 -906.593)"/>
      <ellipse id="ellipse-21-2" data-name="ellipse-21" class="cls-4" cx="26.004" cy="26.767" rx="26.004" ry="26.767" transform="translate(637.498 333.062)"/>
      <path id="ellipse-18-3" data-name="ellipse-18" class="cls-7" d="M15.518,0A15.485,15.485,0,0,1,31.089,15.32,15.356,15.356,0,0,1,15.571,30.587,15.485,15.485,0,0,1,0,15.267,15.356,15.356,0,0,1,15.518,0Z" transform="translate(648.672 347.629) rotate(-6)"/>
      <path id="ellipse-18-4" data-name="ellipse-18" class="cls-8" d="M8.47,0a8.452,8.452,0,0,1,8.5,8.362A8.382,8.382,0,0,1,8.5,16.7,8.452,8.452,0,0,1,0,8.333,8.382,8.382,0,0,1,8.47,0Z" transform="translate(656.088 353.798) rotate(-6)"/>
      <path id="path-135-2" data-name="path-135" class="cls-5" d="M-2175.916,1495.9l-56.651,49.453s-41.909,29.923-75.343,13.863c-1.857,2.141,6.727-8.714,16.717-21.413,8.24-9.961,20.472-18.545,30.338-21.413,10.222-.148,25.5-5.377,41.291-26.79C-2217.708,1488.527-2175.916,1495.9-2175.916,1495.9Z" transform="translate(2391.85 -802.059)"/>
    </g>
  </g>
</svg>
