<svg xmlns="http://www.w3.org/2000/svg" xmlns:xlink="http://www.w3.org/1999/xlink" viewBox="1384 826 800 1237">
  <defs>
    <style>
      .cls-1 {
        clip-path: url(#clip-penguin-5);
      }

      .cls-2 {
        fill: #191919;
      }

      .cls-3 {
        fill: #dd8781;
      }

      .cls-4 {
        fill: #faf7f7;
      }

      .cls-5 {
        fill: #eac574;
      }

      .cls-6 {
        fill: #da7a36;
      }

      .cls-7 {
        fill: #915400;
      }

      .cls-8 {
        fill: #b95630;
      }
    </style>
    <clipPath id="clip-penguin-5">
      <rect x="1384" y="826" width="800" height="1237"/>
    </clipPath>
  </defs>
  <g id="penguin-5" class="cls-1">
    <g id="group-82" transform="matrix(0.998, -0.07, 0.07, 0.998, 3333.667, -684.443)">
      <path id="path-151" class="cls-2" d="M-1420.317,1434.876s-56.047-30.369-64.415-33.53c-77.568-25.37-126.572-19.306-162.611,11.163-25.726,19.471-66.615,111.619-71.1,177.611-.749,35.391-26.3,74.587-52.885,111.568-57.339,80.176-86.633,298.482-86.633,298.482s-45.779,126.494-50.544,216.36c-.277,46.537,10.48,176.752,27.334,215.25s23.209,68.533,23.209,68.533,52.977,21.526,74.5,0c-.118-9.159,89.336,99.573,214.836-19.076,12.543-15.43,34.8,13.933,54.745,0,13.949-11.684,13.562,26.7,24.792-95.06-1.406-65.217,17.031-281.055,0-347.165,5.245-37.276,35.189-210.029,19.648-281.358-11.045-47.371-44.884-60.307-48.537-176.186-4.254-33.8,121.528-100.265,148.862-96.544l-14.831-39.8Z" transform="translate(-47.072 23)"/>
      <path id="path-152" class="cls-2" d="M-1677.664,1463.895s-73.918,102.127-150.722,176.994c-22.569,18.074-92.6,135.555-101.578,199.484-10.234,35.915-13.663,45.563-7.422,92.554,15.473,13.341,49.8-68.208,49.8-68.208s71.388-116.409,136.546-130.745C-1740.535,1717.389-1677.664,1463.895-1677.664,1463.895Z" transform="translate(-153 282.528)"/>
      <path id="path-153" class="cls-2" d="M-1782.8,1486.053s49.093,105.041,102.839,153.568c37.094,39.569,104.839,137.618,100.344,213.257-.272,46.553-3.4,54.724-9.62,107.928-12.7,25.413-37.747-41-56.4-77.852-26.659-75.839-92.442-133.549-110.525-140.2s-51.672-25.937-58.415-64.409S-1782.8,1486.053-1782.8,1486.053Z" transform="translate(261.252 355.876)"/>
      <path id="path-154" class="cls-3" d="M-1799.6,1641.653s-5.245,62.034-12.729,70.933c-5.546,6.593-16.872,2.783-39.549,2.692-6.146-.023-41.716,4.354-41.716,4.354s-32.985,13.829-32.236,24.217,61.651-22.953,56.761,4.119c-4.781,9.755,1.133,21.78,42.13,14.3,17.4.573,24.723-7.014,40.263,12.752,8.89,5.9,21.81-34.827,49.144-7.484,14.606,1.229,3.614-45.112-5.445-59.061s5.445-66.819,5.445-66.819Z" transform="translate(-104.453 845.081)"/>
      <path id="path-155" class="cls-3" d="M-1789.979,1646.5s-4.423,82.173,24.8,91.553,74.4,30.534,91.882,33.331,16.423,32.331-50.239,14.008c-25.477,1.338-1.27,34.257-52.858,14.453-26.53-8.934-48.56-55.171-47.027-14.453-4.1,25.8-23.39,7.336-28.57-6.342s2.583-41,2.583-41,18.877-67.845,0-91.553S-1789.979,1646.5-1789.979,1646.5Z" transform="translate(162.664 830.081)"/>
      <path id="path-156" class="cls-4" d="M-1513.076,1435.41s-98.141-8.742-184.8,96.791c-53.995,34.439-47.328,18.276-111.577,90.615-10.616,17.409-78.65,161.924-98.991,417.408-1,136.318-3.359,262.992,52.4,295.829s73.568,0,73.568,0,113.892,97.055,223.2-22.46c8.678-9.671,24.228,27.249,59.231,0,78.937-230.074,71.647-649.572,23.081-758.025C-1520.981,1471.677-1513.076,1435.41-1513.076,1435.41Z" transform="translate(-47.976 187.654)"/>
      <path id="path-157" class="cls-5" d="M-1668.662,1418.335s-29.88-18.969-72.046,0c-9.265-.421-47.683-33.975-70.753-27.893-32.44,19.424-44.814,62.206-44.814,62.206s67.16-25.817,107.96-3.878c9.521,11.042,5.626,14.1,25.892,28.4,8.1,4.832,43.747,21.376,71.79-17.547C-1646.083,1430.449-1668.662,1418.335-1668.662,1418.335Z" transform="translate(125.84 36.948)"/>
      <path id="ellipse-18" class="cls-6" d="M27.847,49.315c16.7-1.6,31.362-13.889,32.743-27.46S49.55-1.424,32.848.172,1.486,14.061.1,27.632,11.144,50.911,27.847,49.315Z" transform="translate(-1588.211 1444.608) rotate(31)"/>
      <path id="ellipse-18-2" data-name="ellipse-18" class="cls-7" d="M15.2,26.918c9.117-.871,17.118-7.581,17.872-14.989S27.046-.777,17.929.094.811,7.675.057,15.082,6.083,27.788,15.2,26.918Z" transform="translate(-1582.801 1461.107) rotate(31)"/>
      <path id="path-98" class="cls-3" d="M201.822,0s-23.22,30.677-102,31.114C95.284,31.373,37.4,30.334,0,18.363,1.563,18.363,48.6,1.53,178.4,0,178.438.033,201.822,0,201.822,0Z" transform="translate(-1522.158 1480.285) rotate(3)"/>
      <path id="path-97" class="cls-8" d="M.393,49C-4.765,52.222,41.709,8.253,90.832,3.122c4.65-.572,45.746-8.457,82.084,3.269a143.579,143.579,0,0,1,20.966,12.086c7.874,6.565,21.029,15.516.735,14.017-21.294-.19,2.23-2.795-97.052,5.086C78.451,39.689,43.063,41.467.393,49Z" transform="translate(-1521.144 1449.627) rotate(3)"/>
    </g>
  </g>
</svg>
