<svg xmlns="http://www.w3.org/2000/svg" xmlns:xlink="http://www.w3.org/1999/xlink" viewBox="2239 34 680 667">
  <defs>
    <style>
      .cls-1 {
        clip-path: url(#clip-penguin-3);
      }

      .cls-2 {
        fill: #faf7f7;
      }

      .cls-3 {
        fill: #191919;
      }

      .cls-4 {
        fill: none;
      }

      .cls-5 {
        fill: #dd8781;
      }

      .cls-6 {
        fill: #b95630;
      }

      .cls-7 {
        fill: #eac574;
      }

      .cls-8 {
        fill: #da7a36;
      }

      .cls-9 {
        fill: #915400;
      }
    </style>
    <clipPath id="clip-penguin-3">
      <rect x="2239" y="34" width="680" height="667"/>
    </clipPath>
  </defs>
  <g id="penguin-3" class="cls-1">
    <g id="group-77" transform="translate(1763.092 -230.041)">
      <path id="path-141" class="cls-2" d="M-1193,1254.115c4.184-4.184,45.8-70.623,48.585-10.658,8.367-.06-36.094,123.555-101.637,300.66-2.789,13.945-92.142,140.847-191.154,146.425-5.577,4.184-58.569,5.578-110.166-18.129,1.394,2.789-37.652-11.216-68.332,0s139.452-96.162,139.452-96.162l238.464-248.226Z" transform="translate(2209.901 -843.732)"/>
      <path id="path-137" class="cls-3" d="M-1555.976,1599.012s-25.271-88.971,208.024-244.118c1.455,1.395,32.965-26.209,98.965-81.078,8.971-4.08,140.713-186.595,70.987,7.244-2.788,2.79,33.469,104.589-58.57,290.062-4.184,2.789-20.918,75.3-129.691,133.875-22.056,5.4-29.737,4.148-48.785,2.835-19.678.432-47.91-7.209-74.406,59.728-44.58-2.477-31.4,1.58-118.774,20.231-6.845-.073,2.972-27.088-7.758-27.073-15.34,8.367-8.367-55.721-8.367-55.721s15.487-75.2,68.376-94.784C-1558.869,1611.546-1555.976,1599.012-1555.976,1599.012Z" transform="translate(2189.13 -928)"/>
      <path id="path-138" class="cls-3" d="M-1464.577,1303.222c27.353,46.843,22.174,48.753,69.264,83.734,53.636,19.77,73.286,8.934,114.614,6.918,8.978.243,45.644-4.345,13.108,26.493-6.183,3.1-79.015,54.309-147.347,45.942-25.8-5.57-41.269-14.659-70.379-47.7a244.982,244.982,0,0,1-23.7-39.264c-8.452-17.682-4.246-31.857-48.871-13.729,2.789-4.183,37.549-65.542,37.549-65.542S-1491.93,1256.379-1464.577,1303.222Z" transform="translate(2405.754 -643.026)"/>
      <path id="path-139" class="cls-3" d="M-1466.534,1323.041l-16.53-13.895s-5.828-11.807-61.5-16.094c-12.685.412-31.726-3.375-31.726-3.375s-27.253-2.724-25.659-21.83c.437.272-10.48-28.687-34.533,3.781-4.379,8.074-11.749,17.749-8.985,40.179,5.4,13.3,12.725,26.787,43.519,42.5,49.552,12.91,61.23-2.931,86.4,12.55,24.066,16.8,25.057,29.285,25.057,29.285Z" transform="translate(2125 -723.694)"/>
      <path id="path-140" class="cls-4" d="M-1582.388,1296.271s46.02-5.577,16.734,51.6c1.4-4.183-19.523,16.733-34.863,27.891l-15.4,30.739s4.3,22.313,33.529,6.973c-.06-5.578,26.376-25.1,26.376-25.1s-2.789-22.53,9.761-40.5c-1.29,1.455-8.264-16.794,8.471-43.291,0,1.4-5.649-19.523-27.875-16.734C-1566.961,1287.843-1582.388,1296.271-1582.388,1296.271Z" transform="translate(2221.016 -623.821)"/>
      <path id="path-142" class="cls-5" d="M-1474.768,1294.215s22.313-29.286,46.02-59.964c2.789,2.789,20.918-55.781-34.863-19.523-4.586,5.632-8.308,2.789-19.464,36.257-1.395,2.79-22.312,18.128-30.68,29.286S-1474.768,1294.215-1474.768,1294.215Z" transform="translate(2543.1 -889.411)"/>
      <path id="path-98" class="cls-5" d="M154.089,34.8S88.75,2.441,48.572.644C45.1.445,16.19-4.15,0,14.424c1.2,0,36.553,19.2,136.125,20.373C136.151,34.771,154.089,34.8,154.089,34.8Z" transform="matrix(-0.602, 0.799, -0.799, -0.602, 621.231, 824.918)"/>
      <path id="path-97" class="cls-6" d="M1.415,2.118C-.86.7-2.559,18.576,14.394,29.593c10.711,6.984,34.728,8.162,61.54,6.634-1.1.6,37.464,4.24,65.34-4.748a24.917,24.917,0,0,0,6.614-4.567,27.6,27.6,0,0,0,5.347-5.62C158.35,16.5,137.25,10.842,61.088,4.8,25.275,1.826,35.989-2.713,1.415,2.118Z" transform="matrix(-0.602, 0.799, -0.799, -0.602, 612.01, 817.578)"/>
      <path id="path-136" class="cls-7" d="M61.732,22.011C65.994,19.155,47.306.188,42.489,0-14.486,29.157,2.334,49.07,2.271,59.389,4.224,63.743,36.293,78.113,58,78.322,58,79.77,25.475,51.7,61.732,22.011Z" transform="matrix(-0.454, 0.891, -0.891, -0.454, 681.832, 707.853)"/>
      <ellipse id="ellipse-21" class="cls-7" cx="29.432" cy="25.475" rx="29.432" ry="25.475" transform="matrix(0.574, -0.819, 0.819, 0.574, 611.724, 775.939)"/>
      <path id="ellipse-18" class="cls-8" d="M17.25,29.175c9.7-.175,17.706-6.847,17.881-14.9S27.584-.171,17.883,0,.178,6.85,0,14.906,7.55,29.35,17.25,29.175Z" transform="translate(671.642 765.577) rotate(131)"/>
      <path id="ellipse-18-2" data-name="ellipse-18" class="cls-9" d="M9.416,15.925c5.295-.1,9.664-3.737,9.76-8.134S15.056-.094,9.761,0,.1,3.739,0,8.136,4.121,16.02,9.416,15.925Z" transform="translate(661.623 766.944) rotate(131)"/>
      <path id="path-141-2" data-name="path-141" class="cls-2" d="M-1193,1254.115c4.184-4.184,45.8-70.623,48.585-10.658,8.367-.06-36.094,123.555-101.637,300.66-2.789,13.945-92.142,140.847-191.154,146.425-5.577,4.184-58.569,5.578-110.166-18.129,1.394,2.789-37.652-11.216-68.332,0s139.452-96.162,139.452-96.162l238.464-248.226Z" transform="translate(2209.901 -843.732)"/>
      <path id="path-137-2" data-name="path-137" class="cls-3" d="M-1555.976,1599.012s-25.271-88.971,208.024-244.118c1.455,1.395,32.965-26.209,98.965-81.078,8.971-4.08,140.713-186.595,70.987,7.244-2.788,2.79,33.469,104.589-58.57,290.062-4.184,2.789-20.918,75.3-129.691,133.875-22.056,5.4-29.737,4.148-48.785,2.835-19.678.432-47.91-7.209-74.406,59.728-44.58-2.477-31.4,1.58-118.774,20.231-6.845-.073,2.972-27.088-7.758-27.073-15.34,8.367-8.367-55.721-8.367-55.721s15.487-75.2,68.376-94.784C-1558.869,1611.546-1555.976,1599.012-1555.976,1599.012Z" transform="translate(2189.13 -928)"/>
      <path id="path-138-2" data-name="path-138" class="cls-3" d="M-1464.577,1303.222c27.353,46.843,22.174,48.753,69.264,83.734,53.636,19.77,73.286,8.934,114.614,6.918,8.978.243,45.644-4.345,13.108,26.493-6.183,3.1-79.015,54.309-147.347,45.942-25.8-5.57-41.269-14.659-70.379-47.7a244.982,244.982,0,0,1-23.7-39.264c-8.452-17.682-4.246-31.857-48.871-13.729,2.789-4.183,37.549-65.542,37.549-65.542S-1491.93,1256.379-1464.577,1303.222Z" transform="translate(2405.754 -643.026)"/>
      <path id="path-139-2" data-name="path-139" class="cls-3" d="M-1466.534,1323.041l-16.53-13.895s-5.828-11.807-61.5-16.094c-12.685.412-31.726-3.375-31.726-3.375s-27.253-2.724-25.659-21.83c.437.272-10.48-28.687-34.533,3.781-4.379,8.074-11.749,17.749-8.985,40.179,5.4,13.3,12.725,26.787,43.519,42.5,49.552,12.91,61.23-2.931,86.4,12.55,24.066,16.8,25.057,29.285,25.057,29.285Z" transform="translate(2125 -723.694)"/>
      <path id="path-140-2" data-name="path-140" class="cls-4" d="M-1582.388,1296.271s46.02-5.577,16.734,51.6c1.4-4.183-19.523,16.733-34.863,27.891l-15.4,30.739s4.3,22.313,33.529,6.973c-.06-5.578,26.376-25.1,26.376-25.1s-2.789-22.53,9.761-40.5c-1.29,1.455-8.264-16.794,8.471-43.291,0,1.4-5.649-19.523-27.875-16.734C-1566.961,1287.843-1582.388,1296.271-1582.388,1296.271Z" transform="translate(2221.016 -623.821)"/>
      <path id="path-98-2" data-name="path-98" class="cls-5" d="M154.089,34.8S88.75,2.441,48.572.644C45.1.445,16.19-4.15,0,14.424c1.2,0,36.553,19.2,136.125,20.373C136.151,34.771,154.089,34.8,154.089,34.8Z" transform="matrix(-0.602, 0.799, -0.799, -0.602, 621.231, 824.918)"/>
      <path id="path-97-2" data-name="path-97" class="cls-6" d="M1.415,2.118C-.86.7-2.559,18.576,14.394,29.593c10.711,6.984,34.728,8.162,61.54,6.634-1.1.6,37.464,4.24,65.34-4.748a24.917,24.917,0,0,0,6.614-4.567,27.6,27.6,0,0,0,5.347-5.62C158.35,16.5,137.25,10.842,61.088,4.8,25.275,1.826,35.989-2.713,1.415,2.118Z" transform="matrix(-0.602, 0.799, -0.799, -0.602, 612.01, 817.578)"/>
      <path id="path-136-2" data-name="path-136" class="cls-7" d="M61.732,22.011C65.994,19.155,47.306.188,42.489,0-14.486,29.157,2.334,49.07,2.271,59.389,4.224,63.743,36.293,78.113,58,78.322,58,79.77,25.475,51.7,61.732,22.011Z" transform="matrix(-0.454, 0.891, -0.891, -0.454, 681.832, 707.853)"/>
      <ellipse id="ellipse-21-2" data-name="ellipse-21" class="cls-7" cx="29.432" cy="25.475" rx="29.432" ry="25.475" transform="matrix(0.574, -0.819, 0.819, 0.574, 611.724, 775.939)"/>
      <path id="ellipse-18-3" data-name="ellipse-18" class="cls-8" d="M17.25,29.175c9.7-.175,17.706-6.847,17.881-14.9S27.584-.171,17.883,0,.178,6.85,0,14.906,7.55,29.35,17.25,29.175Z" transform="translate(671.642 765.577) rotate(131)"/>
      <path id="ellipse-18-4" data-name="ellipse-18" class="cls-9" d="M9.416,15.925c5.295-.1,9.664-3.737,9.76-8.134S15.056-.094,9.761,0,.1,3.739,0,8.136,4.121,16.02,9.416,15.925Z" transform="translate(661.623 766.944) rotate(131)"/>
    </g>
  </g>
</svg>
