<svg xmlns="http://www.w3.org/2000/svg" xmlns:xlink="http://www.w3.org/1999/xlink" viewBox="2994 2512 400 505">
  <defs>
    <style>
      .cls-1 {
        clip-path: url(#clip-penguin-11);
      }

      .cls-2 {
        fill: #191919;
      }

      .cls-3 {
        fill: #dd8781;
      }

      .cls-4 {
        fill: #faf7f7;
      }

      .cls-5 {
        fill: #eac574;
      }

      .cls-6 {
        fill: #da7a36;
      }

      .cls-7 {
        fill: #915400;
      }

      .cls-8 {
        fill: #b95630;
      }
    </style>
    <clipPath id="clip-penguin-11">
      <rect x="2994" y="2512" width="400" height="505"/>
    </clipPath>
  </defs>
  <g id="penguin-11" class="cls-1">
    <g id="group-82" transform="matrix(0.97, -0.242, 0.242, 0.97, 4683.6, 672.839)">
      <path id="path-151" class="cls-2" d="M-1887.832,1405.976s22.634-12.595,26.011-13.908c31.326-10.524,51.115-8.007,65.67,4.632,10.389,8.076,26.9,46.3,28.715,73.674.3,14.68,10.62,30.94,21.356,46.282,23.155,33.257,34.986,123.814,34.986,123.814s18.488,52.472,20.414,89.749c.109,19.3-4.233,73.317-11.041,89.286a166.188,166.188,0,0,0-9.373,28.431s-21.394,8.93-30.088,0c.047-3.8-36.077,41.306-86.76-7.913-5.064-6.4-14.053,5.781-22.109,0-5.632-4.847-5.475,11.074-10.012-39.431.571-27.055-6.876-116.587,0-144.009-2.116-15.464-14.21-87.125-7.933-116.713,4.459-19.648,18.125-25.015,19.6-73.083,1.716-14.023-49.079-41.593-60.118-40.049l5.99-16.509Z" transform="translate(-144.554 23)"/>
      <path id="path-152" class="cls-2" d="M-1940.511,1463.894s29.852,42.364,60.868,73.421c9.114,7.5,37.393,56.229,41.022,82.749,4.135,14.9,5.516,18.9,3,38.392-6.248,5.534-20.112-28.294-20.112-28.294s-28.83-48.289-55.144-54.234C-1915.123,1569.047-1940.511,1463.894-1940.511,1463.894Z" transform="translate(54.831 84.777)"/>
      <path id="path-153" class="cls-2" d="M-1733.228,1486.053s-19.824,43.572-41.53,63.7c-14.98,16.413-42.339,57.086-40.524,88.462.11,19.31,1.375,22.7,3.886,44.77,5.128,10.542,15.245-17.009,22.779-32.3,10.766-31.459,37.332-55.4,44.633-58.157s20.866-10.757,23.592-26.718S-1733.228,1486.053-1733.228,1486.053Z" transform="translate(-277.289 102.236)"/>
      <path id="path-154" class="cls-3" d="M-1897.909,1641.652s2.117,25.733,5.14,29.425c2.24,2.736,6.814,1.156,15.973,1.117,2.48-.009,16.844,1.809,16.844,1.809s13.323,5.734,13.02,10.044-24.9-9.52-22.925,1.708c1.933,4.046-.455,9.035-17.011,5.931-7.028.237-9.985-2.91-16.26,5.288-3.591,2.448-8.81-14.447-19.846-3.1-5.9.511-1.46-18.711,2.2-24.5s-2.2-27.719-2.2-27.719Z" transform="translate(41.869 214.111)"/>
      <path id="path-155" class="cls-3" d="M-1809.665,1639.76s1.547,29.583-8.667,32.957-25.99,10.992-32.1,12-5.737,11.64,17.552,5.043c8.9.481.444,12.331,18.466,5.2,9.267-3.217,16.965-19.862,16.429-5.2,1.434,9.291,8.171,2.642,9.981-2.281s-.9-14.761-.9-14.761-6.594-24.423,0-32.957S-1809.665,1639.76-1809.665,1639.76Z" transform="translate(-159.704 218.45)"/>
      <path id="path-156" class="cls-4" d="M-1879.479,1435.307s39.634-3.627,74.631,40.149c21.805,14.288,19.113,7.583,45.06,37.588,4.288,7.222,31.762,67.169,39.976,173.148.4,56.548,1.358,109.094-21.163,122.716s-29.708,0-29.708,0-45.995,40.259-90.135-9.318c-3.505-4.012-9.785,11.3-23.922,0-31.877-95.439-28.934-269.453-9.321-314.44C-1876.286,1450.351-1879.479,1435.307-1879.479,1435.307Z" transform="translate(-115.083 62.193)"/>
      <path id="path-157" class="cls-5" d="M-1848.75,1401.581s12.067-7.868,29.1,0c3.739-.174,19.256-14.093,28.572-11.571,13.1,8.058,18.1,25.8,18.1,25.8s-27.122-10.709-43.6-1.609c-3.844,4.579-2.272,5.846-10.457,11.78-3.271,2.005-17.665,8.868-28.99-7.278C-1857.869,1406.607-1848.75,1401.581-1848.75,1401.581Z" transform="translate(-153.172 26.32)"/>
      <path id="ellipse-18" class="cls-6" d="M11.378,0C18.164.577,24.068,5.57,24.564,11.153s-4.6,9.642-11.389,9.066S.485,14.65-.011,9.067,4.592-.575,11.378,0Z" transform="translate(-1973.222 1441.099) rotate(149)"/>
      <path id="ellipse-18-2" data-name="ellipse-18" class="cls-7" d="M6.211,0c3.7.314,6.926,3.04,7.2,6.087S10.9,11.351,7.191,11.036.265,8-.006,4.949,2.507-.314,6.211,0Z" transform="translate(-1980.117 1439.937) rotate(149)"/>
      <path id="path-98" class="cls-3" d="M81.5,12.834S72.136.123,40.318-.013C38.487-.117,15.109.347,0,5.333c.631,0,19.62,6.955,72.042,7.514C72.052,12.834,81.5,12.834,81.5,12.834Z" transform="translate(-2009.603 1451.206) rotate(177)"/>
      <path id="path-97" class="cls-8" d="M.159.07c-2.081-1.334,16.663,16.877,36.5,18.977,1.878.235,18.471,3.482,33.153-1.4a57.833,57.833,0,0,0,8.475-5.025c3.184-2.727,8.5-6.448.3-5.814-8.6.091.9,1.158-39.194-2.054C31.679,3.886,17.388,3.169.159.07Z" transform="translate(-2009.638 1445.922) rotate(177)"/>
    </g>
  </g>
</svg>
