<svg xmlns="http://www.w3.org/2000/svg" xmlns:xlink="http://www.w3.org/1999/xlink" viewBox="584 34 800 503">
  <defs>
    <style>
      .cls-1 {
        clip-path: url(#clip-penguin-1);
      }

      .cls-2 {
        fill: #faf7f7;
      }

      .cls-3 {
        fill: #191919;
      }

      .cls-4 {
        fill: #eac574;
      }

      .cls-5 {
        fill: #dd8781;
      }

      .cls-6 {
        fill: #b95630;
      }

      .cls-7 {
        fill: #da7a36;
      }

      .cls-8 {
        fill: #915400;
      }
    </style>
    <clipPath id="clip-penguin-1">
      <rect x="584" y="34" width="800" height="503"/>
    </clipPath>
  </defs>
  <g id="penguin-1" class="cls-1">
    <g id="group-71" transform="matrix(-0.588, 0.809, -0.809, -0.588, 1675.269, 225.801)">
      <path id="path-132" class="cls-2" d="M-1659.654,1623.608s-91.114-114.74-123.941-141.411c-2.053,1.026-29.751-56.377-159.006-97.411,0,2.128-133.5-48.138-312.958-18.389,1.094-1.026-35.759,7.029-39.94,10.106-.077,2.052,505.663,226.712,505.663,226.712l43.085,31.8Z" transform="translate(2408.987 -998.842)"/>
      <path id="path-131" class="cls-3" d="M-1578.217,1652.418s-72.834,54.37-168.238-17.439c.213-.21-7.487-5.5-9.3-8.4-5.309-8.557-17.715-26.992-62.512-40.84,4.1-1.026-35.975-7.493-78.99-15.463,3.076,1.026-106.689-30.775-171.315-80.016,0-1.026-194.911-141.566-219.532-154.9-11.48-7.273-12.649-7.475-35.516-19.114-.323-.141-1.206-.511-2.079-.868-9.762-3.99,16.71-5.96,27.682-7.327,50.144-1.1,128.27,1.5,171.584,27.308,1.026-2.052,98.481,60.288,164.768,66.342,0-5.644,105.686,37.388,166.137,67.706,15.89,7.971,32.879,30.656,39.774,34.909,40.272,43.084,53.279,45.913,69.692,52.753,13,2.706,40.97-2.294,54.65-5.714,16.412,14.146,36.259,35.438,60.319,59.5C-1569.04,1610.851-1578.217,1652.418-1578.217,1652.418Z" transform="translate(2375 -935.204)"/>
      <path id="path-136" class="cls-4" d="M63.392,28.792C67.566,25.9,54.877.169,50.173,0-5.588,29.578.234,29.1.129,39.481c1.889,4.372,31.155,20.061,49.679,22.237C49.808,63.175,25.957,57.952,63.392,28.792Z" transform="translate(658.729 681.62) rotate(-8)"/>
      <path id="path-98" class="cls-5" d="M128.257,28.968S75.057,2.066,41.078.545C38.138.377,13.692-3.512,0,12.208c1.014,0,30.913,16.251,115.123,17.243C115.145,29.43,128.257,28.968,128.257,28.968Z" transform="translate(759.603 672.667)"/>
      <path id="path-97" class="cls-6" d="M.74.08C-2.607-2.011,3.623,37.609,56.978,34.567c-.927.507,38.468-2.029,62.042-9.636a21.071,21.071,0,0,0,5.594-3.865,23.354,23.354,0,0,0,4.522-4.756c4.326-4.057-3.386,2.048-67.8-3.065C52.431,12.021,27.143,9.779.74.08Z" transform="translate(759.796 684.351)"/>
      <path id="path-133" class="cls-3" d="M-2030.627,1603.185c43.085,16.413,79.975,0,79.975,0s-47.009-74.878-74.112-106.316c-15.982-20.538-67.454-57.819-124.9-88.594,4.1-1.026-75.911-30.775-30.772,15.388,1.023,0,41.462,36.224,77.659,87.466,15.084,25.915,18.768,20.246,25.949,50C-2072.727,1558.049-2062.429,1582.67-2030.627,1603.185Z" transform="translate(2515.433 -1058.313)"/>
      <ellipse id="ellipse-21" class="cls-4" cx="28.724" cy="25.646" rx="28.724" ry="25.646" transform="translate(699.243 652.498)"/>
      <path id="ellipse-18" class="cls-7" d="M16.886,29.359c9.47-.145,17.264-6.834,17.408-14.94S26.88-.142,17.411,0,.147,6.836,0,14.943,7.416,29.5,16.886,29.359Z" transform="translate(714.909 660.424) rotate(6)"/>
      <path id="ellipse-18-2" data-name="ellipse-18" class="cls-8" d="M9.217,16.025c5.169-.079,9.423-3.73,9.5-8.155S14.672-.078,9.5,0,.08,3.731,0,8.156,4.048,16.1,9.217,16.025Z" transform="translate(721.591 667.869) rotate(6)"/>
      <path id="path-135" class="cls-5" d="M-2162.085,1554.7l-62.575-47.381s-46.294-28.672-83.224-13.284c-2.053-2.051,7.429,8.348,18.464,20.517,9.1,9.544,22.614,17.769,33.51,20.516,11.29.144,28.17,5.152,45.61,25.669C-2208.247,1561.758-2162.085,1554.7-2162.085,1554.7Z" transform="translate(2395.668 -1196.58)"/>
      <path id="path-132-2" data-name="path-132" class="cls-2" d="M-1659.654,1623.608s-91.114-114.74-123.941-141.411c-2.053,1.026-29.751-56.377-159.006-97.411,0,2.128-133.5-48.138-312.958-18.389,1.094-1.026-35.759,7.029-39.94,10.106-.077,2.052,505.663,226.712,505.663,226.712l43.085,31.8Z" transform="translate(2408.987 -998.842)"/>
      <path id="path-131-2" data-name="path-131" class="cls-3" d="M-1578.217,1652.418s-72.834,54.37-168.238-17.439c.213-.21-7.487-5.5-9.3-8.4-5.309-8.557-17.715-26.992-62.512-40.84,4.1-1.026-35.975-7.493-78.99-15.463,3.076,1.026-106.689-30.775-171.315-80.016,0-1.026-194.911-141.566-219.532-154.9-11.48-7.273-12.649-7.475-35.516-19.114-.323-.141-1.206-.511-2.079-.868-9.762-3.99,16.71-5.96,27.682-7.327,50.144-1.1,128.27,1.5,171.584,27.308,1.026-2.052,98.481,60.288,164.768,66.342,0-5.644,105.686,37.388,166.137,67.706,15.89,7.971,32.879,30.656,39.774,34.909,40.272,43.084,53.279,45.913,69.692,52.753,13,2.706,40.97-2.294,54.65-5.714,16.412,14.146,36.259,35.438,60.319,59.5C-1569.04,1610.851-1578.217,1652.418-1578.217,1652.418Z" transform="translate(2375 -935.204)"/>
      <path id="path-136-2" data-name="path-136" class="cls-4" d="M63.392,28.792C67.566,25.9,54.877.169,50.173,0-5.588,29.578.234,29.1.129,39.481c1.889,4.372,31.155,20.061,49.679,22.237C49.808,63.175,25.957,57.952,63.392,28.792Z" transform="translate(658.729 681.62) rotate(-8)"/>
      <path id="path-98-2" data-name="path-98" class="cls-5" d="M125.965,27.37C112.866,21.211,69.519,1.818,41.078.545,38.138.377,13.692-3.512,0,12.208c1.014,0,30.913,16.251,115.123,17.243.012-.011,3.794-.211,7.27-.632C124.961,28.51,127.334,28.013,125.965,27.37Z" transform="translate(759.603 672.667)"/>
      <path id="path-97-2" data-name="path-97" class="cls-6" d="M.74.08C-2.607-2.011,3.623,37.609,56.978,34.567c-.927.507,38.468-2.029,62.042-9.636a21.071,21.071,0,0,0,5.594-3.865,23.354,23.354,0,0,0,4.522-4.756c4.326-4.057-3.386,2.048-67.8-3.065C52.431,12.021,27.143,9.779.74.08Z" transform="translate(759.796 684.351)"/>
      <path id="path-133-2" data-name="path-133" class="cls-3" d="M-2030.627,1603.185c43.085,16.413,79.975,0,79.975,0s-47.009-74.878-74.112-106.316c-15.982-20.538-67.454-57.819-124.9-88.594,4.1-1.026-75.911-30.775-30.772,15.388,1.023,0,41.462,36.224,77.659,87.466,15.084,25.915,18.768,20.246,25.949,50C-2072.727,1558.049-2062.429,1582.67-2030.627,1603.185Z" transform="translate(2515.433 -1058.313)"/>
      <ellipse id="ellipse-21-2" data-name="ellipse-21" class="cls-4" cx="28.724" cy="25.646" rx="28.724" ry="25.646" transform="translate(699.243 652.498)"/>
      <path id="ellipse-18-3" data-name="ellipse-18" class="cls-7" d="M16.886,29.359c9.47-.145,17.264-6.834,17.408-14.94S26.88-.142,17.411,0,.147,6.836,0,14.943,7.416,29.5,16.886,29.359Z" transform="translate(714.909 660.424) rotate(6)"/>
      <path id="ellipse-18-4" data-name="ellipse-18" class="cls-8" d="M9.217,16.025c5.169-.079,9.423-3.73,9.5-8.155S14.672-.078,9.5,0,.08,3.731,0,8.156,4.048,16.1,9.217,16.025Z" transform="translate(721.591 667.869) rotate(6)"/>
      <path id="path-135-2" data-name="path-135" class="cls-5" d="M-2162.085,1554.7l-62.575-47.381s-46.294-28.672-83.224-13.284c-2.053-2.051,7.429,8.348,18.464,20.517,9.1,9.544,22.614,17.769,33.51,20.516,11.29.144,28.17,5.152,45.61,25.669C-2208.247,1561.758-2162.085,1554.7-2162.085,1554.7Z" transform="translate(2395.668 -1196.58)"/>
    </g>
  </g>
</svg>
