<svg xmlns="http://www.w3.org/2000/svg" xmlns:xlink="http://www.w3.org/1999/xlink" viewBox="3758 2512 200 146">
  <defs>
    <style>
      .cls-1 {
        clip-path: url(#clip-penguin-footer);
      }

      .cls-2 {
        fill: #191919;
      }

      .cls-3 {
        fill: #faf7f7;
      }

      .cls-4 {
        fill: #eac574;
      }

      .cls-5 {
        fill: #da7a36;
      }

      .cls-6 {
        fill: #915400;
      }

      .cls-7 {
        fill: #dd8781;
      }

      .cls-8 {
        fill: #b95630;
      }
    </style>
    <clipPath id="clip-penguin-footer">
      <rect x="3758" y="2512" width="200" height="146"/>
    </clipPath>
  </defs>
  <g id="penguin-footer" class="cls-1">
    <g id="group-26" transform="translate(3748.962 2507)">
      <path id="path-151" class="cls-2" d="M149.5,18.528S128.467,7.134,125.327,5.948c-29.1-9.519-47.488-7.244-61.01,4.188-9.652,7.305-24.993,41.878-26.677,66.638-.281,13.278-9.867,27.984-19.842,41.859C13.916,124.063,5.337,131.27.925,138.669A20.153,20.153,0,0,0,0,140.488c13.333.826,137.109,8.812,134.761,8.648,2.3,1.391-20.539-32.132-21.909-75.608-1.6-12.682,45.6-37.618,55.851-36.222l-5.564-14.933Z" transform="matrix(0.998, -0.07, 0.07, 0.998, 0.038, 12.095)"/>
      <path id="path-156" class="cls-3" d="M103.392.065S88.121-1.3,68.341,8.421c-10.589,5.2-22.709,13.863-34.284,27.959C14.1,49.107,8.9,49.328.319,60.245a4.686,4.686,0,0,0-.312.516c.082,0,124.915,8.7,124.915,8.7.423,1.017-4.355-16.221-7.981-24.319C100.426,13.672,103.392.065,103.392.065Z" transform="matrix(0.998, -0.07, 0.07, 0.998, 16.585, 91.575)"/>
      <path id="path-157" class="cls-4" d="M70.39,10.742s-11.211-7.117-27.031,0C39.884,10.584,25.469-2.005,16.814.276,4.643,7.564,0,23.615,0,23.615s25.2-9.686,40.505-1.455c3.572,4.143,2.111,5.289,9.714,10.655,3.039,1.813,16.414,8.02,26.935-6.583C78.862,15.286,70.39,10.742,70.39,10.742Z" transform="matrix(0.998, -0.07, 0.07, 0.998, 51.193, 15.348)"/>
      <path id="ellipse-18" class="cls-5" d="M10.448,18.5c6.267-.6,11.767-5.211,12.285-10.3S18.591-.534,12.324.064.558,5.276.039,10.367,4.181,19.1,10.448,18.5Z" transform="translate(104.894 18.346) rotate(27)"/>
      <path id="ellipse-18-2" data-name="ellipse-18" class="cls-6" d="M5.7,10.1c3.42-.327,6.423-2.844,6.705-5.624S10.147-.292,6.727.035.3,2.88.021,5.659,2.282,10.426,5.7,10.1Z" transform="translate(107.35 24.38) rotate(27)"/>
      <path id="path-98" class="cls-7" d="M75.721,0S67.009,11.51,37.45,11.674c-1.7.1-23.417-.293-37.45-4.784C.586,6.89,18.236.574,66.935,0,66.948.013,75.721,0,75.721,0Z" transform="translate(130.55 29.971) rotate(-1)"/>
      <path id="path-97" class="cls-8" d="M.147,18.384C-1.788,19.593,15.649,3.1,34.079,1.172,35.824.957,51.243-2,64.876,2.4a53.869,53.869,0,0,1,7.866,4.534c2.954,2.463,7.89,5.821.276,5.259-7.989-.071.837-1.049-36.413,1.908C29.434,14.891,16.157,15.558.147,18.384Z" transform="translate(130.127 18.469) rotate(-1)"/>
    </g>
  </g>
</svg>
