<svg xmlns="http://www.w3.org/2000/svg" xmlns:xlink="http://www.w3.org/1999/xlink" viewBox="3105 815 200 144">
  <defs>
    <style>
      .cls-1 {
        clip-path: url(#clip-unit);
      }

      .cls-2 {
        fill: #191919;
      }

      .cls-3 {
        fill: #dd8781;
      }

      .cls-4 {
        fill: #faf7f7;
      }

      .cls-5 {
        fill: #eac574;
      }

      .cls-6 {
        fill: #da7a36;
      }

      .cls-7 {
        fill: #915400;
      }

      .cls-8 {
        fill: #b95630;
      }
    </style>
    <clipPath id="clip-unit">
      <rect x="3105" y="815" width="200" height="144"/>
    </clipPath>
  </defs>
  <g id="unit" class="cls-1">
    <g id="group-82" transform="matrix(0.996, -0.087, 0.087, 0.996, 3105.293, 822.756)">
      <path id="path-151" class="cls-2" d="M55.929,5.659s-6.422-3.48-7.38-3.842C39.663-1.09,34.049-.4,29.921,3.095c-2.947,2.231-7.631,12.786-8.146,20.347-.085,4.055-3.013,8.545-6.059,12.782C9.147,45.408,5.791,70.417,5.791,70.417S.547,84.908,0,95.2c-.032,5.332,1.2,20.249,3.133,24.659a45.105,45.105,0,0,1,2.658,7.85s6.07,2.467,8.535,0c-.014-1.049,10.234,11.408,24.611-2.184,1.437-1.768,3.987,1.6,6.273,0,1.6-1.339,1.553,3.057,2.84-10.89-.161-7.471,1.952-32.2,0-39.771.6-4.272,4.032-24.061,2.251-32.232-1.266-5.427-5.142-6.909-5.56-20.184-.487-3.872,13.923-11.486,17.053-11.06L60.1,6.832Z" transform="translate(15.801 0)"/>
      <path id="path-152" class="cls-2" d="M30.112,0A183.385,183.385,0,0,1,12.845,20.276C10.259,22.347,2.237,35.8,1.208,43.129c-1.172,4.114-1.565,5.219-.85,10.6,1.772,1.529,5.7-7.814,5.7-7.814S14.241,32.582,21.706,30.94C22.91,29.039,30.112,0,30.112,0Z" transform="translate(0 38.713)"/>
      <path id="path-153" class="cls-2" d="M3.73,0S9.356,12.034,15.513,17.592c4.248,4.534,12.008,15.766,11.493,24.432-.029,5.334-.389,6.269-1.1,12.364-1.456,2.912-4.325-4.7-6.462-8.918C16.39,36.781,8.854,30.17,6.783,29.408S.863,26.438.091,22.028,3.73,0,3.73,0Z" transform="translate(61.793 49.655)"/>
      <path id="path-154" class="cls-3" d="M14.462,0S13.861,7.107,13,8.126c-.636.755-1.933.319-4.531.308-.705,0-4.779.5-4.779.5S-.085,10.517,0,11.708s7.063-2.629,6.5.472c-.547,1.116.13,2.494,4.827,1.637,1.993.065,2.832-.8,4.612,1.461,1.019.676,2.5-3.99,5.63-.857,1.674.14.414-5.168-.623-6.766S21.572,0,21.572,0Z" transform="translate(7.241 123.524)"/>
      <path id="path-155" class="cls-3" d="M6.322,1.047s-.438,8.17,2.458,9.1,7.374,3.035,9.106,3.313,1.627,3.214-4.978,1.393c-2.526.132-.127,3.4-5.239,1.437C5.04,15.4,2.856,10.809,3.008,14.856,2.6,17.421.69,15.585.176,14.226s.257-4.075.257-4.075S2.3,3.4.433,1.047,6.322,1.047,6.322,1.047Z" transform="translate(47.53 123.152)"/>
      <path id="path-156" class="cls-4" d="M45.333.02s-11.243-1-21.171,11.088c-6.186,3.947-5.421,2.1-12.782,10.381C10.164,23.484,2.37,40.041.039,69.308c-.113,15.616-.383,30.129,6,33.891s8.428,0,8.428,0,13.048,11.119,25.57-2.573c.994-1.107,2.774,3.122,6.785,0,9.043-26.358,8.207-74.415,2.644-86.839C44.426,4.176,45.333.02,45.333.02Z" transform="translate(15.666 24.561)"/>
      <path id="path-157" class="cls-5" d="M21.493,3.28s-3.424-2.172-8.254,0C12.178,3.231,7.777-.613,5.134.085,1.417,2.31,0,7.211,0,7.211s7.694-2.957,12.368-.444c1.091,1.264.644,1.615,2.966,3.254.928.553,5.012,2.449,8.224-2.01A4.52,4.52,0,0,0,21.493,3.28Z" transform="translate(41.594 2.081)"/>
      <path id="ellipse-18" class="cls-6" d="M3.19,5.65C5.1,5.467,6.783,4.058,6.941,2.5S5.677-.163,3.763.02.17,1.611.012,3.165,1.277,5.832,3.19,5.65Z" transform="translate(57.887 4.138) rotate(31)"/>
      <path id="ellipse-18-2" data-name="ellipse-18" class="cls-7" d="M1.741,3.084A2.216,2.216,0,0,0,3.789,1.367C3.875.518,3.1-.089,2.054.011A2.216,2.216,0,0,0,.007,1.728C-.08,2.576.7,3.183,1.741,3.084Z" transform="translate(58.507 6.028) rotate(31)"/>
      <path id="path-98" class="cls-3" d="M23.121,0s-2.66,3.514-11.686,3.564C10.916,3.594,4.285,3.475,0,2.1.179,2.1,5.568.175,20.438,0,20.442,0,23.121,0,23.121,0Z" transform="translate(65.454 8.224) rotate(3)"/>
      <path id="path-97" class="cls-8" d="M.045,5.613C-.546,5.983,4.778.945,10.406.358c.533-.066,5.241-.969,9.4.374a16.449,16.449,0,0,1,2.4,1.385c.9.752,2.409,1.778.084,1.606-2.44-.022.256-.32-11.118.583C8.987,4.547,4.933,4.75.045,5.613Z" transform="translate(65.571 4.712) rotate(3)"/>
    </g>
    <g id="group-82-2" data-name="group-82" transform="matrix(0.996, -0.087, 0.087, 0.996, 3216.307, 839.684)">
      <path id="path-151-2" data-name="path-151" class="cls-2" d="M49.143,4.972S43.5,1.914,42.658,1.6C34.851-.958,29.918-.348,26.291,2.719,23.7,4.68,19.585,13.955,19.133,20.6c-.075,3.562-2.648,7.508-5.323,11.231C8.037,39.9,5.089,61.875,5.089,61.875S.481,74.607,0,83.654c-.028,4.685,1.055,17.792,2.753,21.667a39.639,39.639,0,0,1,2.335,6.9s5.333,2.168,7.5,0c-.012-.922,8.993,10.024,21.625-1.919,1.262-1.554,3.5,1.4,5.511,0,1.4-1.177,1.364,2.686,2.5-9.569-.142-6.565,1.715-28.292,0-34.946.528-3.753,3.542-21.142,1.978-28.322-1.112-4.769-4.518-6.071-4.885-17.736-.428-3.4,12.233-10.093,14.985-9.718L52.8,6Z" transform="translate(13.884 0)"/>
      <path id="path-152-2" data-name="path-152" class="cls-2" d="M26.459,0A161.118,161.118,0,0,1,11.287,17.816C9.015,19.635,1.965,31.461,1.061,37.9.031,41.511-.313,42.482.314,47.213c1.557,1.344,5.013-6.865,5.013-6.865s7.186-11.718,13.745-13.161C20.13,25.516,26.459,0,26.459,0Z" transform="translate(0 34.017)"/>
      <path id="path-153-2" data-name="path-153" class="cls-2" d="M3.278,0S8.221,10.574,13.631,15.458c3.733,3.984,10.551,13.853,10.1,21.467-.025,4.687-.341,5.509-.967,10.864-1.279,2.559-3.8-4.126-5.678-7.836C14.4,32.318,7.78,26.51,5.96,25.841S.759,23.23.08,19.356,3.278,0,3.278,0Z" transform="translate(54.296 43.631)"/>
      <path id="path-154-2" data-name="path-154" class="cls-3" d="M12.708,0s-.528,6.244-1.281,7.14c-.559.663-1.7.281-3.981.271-.62,0-4.2.439-4.2.439S-.075,9.241,0,10.288s6.205-2.31,5.713.414c-.481.981.115,2.192,4.242,1.439,1.751.057,2.488-.706,4.052,1.284.9.594,2.2-3.505,4.947-.753,1.471.123.364-4.541-.547-5.945S18.955,0,18.955,0Z" transform="translate(6.363 108.538)"/>
      <path id="path-155-2" data-name="path-155" class="cls-3" d="M5.554.92s-.385,7.179,2.16,8,6.48,2.667,8,2.911,1.429,2.824-4.374,1.224c-2.219.117-.111,2.991-4.6,1.263-2.31-.781-4.229-4.819-4.1-1.263-.357,2.253-2.036.64-2.488-.554S.38,8.919.38,8.919s1.644-5.928,0-8S5.554.92,5.554.92Z" transform="translate(41.764 108.211)"/>
      <path id="path-156-2" data-name="path-156" class="cls-4" d="M39.833.018S29.955-.862,21.23,9.76C15.795,13.228,16.467,11.6,10,18.882,8.931,20.635,2.082,35.183.034,60.9-.066,74.621-.3,87.373,5.31,90.678s7.405,0,7.405,0,11.465,9.77,22.467-2.261c.874-.973,2.438,2.744,5.963,0,7.945-23.16,7.211-65.387,2.323-76.3C39.036,3.669,39.833.018,39.833.018Z" transform="translate(13.766 21.581)"/>
      <path id="path-157-2" data-name="path-157" class="cls-5" d="M18.886,2.882a7.935,7.935,0,0,0-7.253,0C10.7,2.84,6.833-.538,4.511.074,1.245,2.03,0,6.337,0,6.337s6.761-2.6,10.868-.391c.958,1.111.566,1.419,2.606,2.859A5.244,5.244,0,0,0,20.7,7.039,3.971,3.971,0,0,0,18.886,2.882Z" transform="translate(36.548 1.828)"/>
      <path id="ellipse-18-3" data-name="ellipse-18" class="cls-6" d="M2.8,4.964A3.567,3.567,0,0,0,6.1,2.2C6.238.834,4.988-.143,3.307.017a3.567,3.567,0,0,0-3.3,2.764C-.128,4.148,1.122,5.125,2.8,4.964Z" transform="translate(50.864 3.636) rotate(31)"/>
      <path id="ellipse-18-4" data-name="ellipse-18" class="cls-7" d="M1.53,2.71A1.947,1.947,0,0,0,3.329,1.2C3.4.455,2.723-.078,1.8.009a1.947,1.947,0,0,0-1.8,1.509C-.07,2.264.612,2.8,1.53,2.71Z" transform="translate(51.409 5.296) rotate(31)"/>
      <path id="path-98-2" data-name="path-98" class="cls-3" d="M20.316,0S17.978,3.088,10.048,3.132A40.06,40.06,0,0,1,0,1.848C.157,1.848,4.893.154,17.958,0,17.962,0,20.316,0,20.316,0Z" transform="translate(57.513 7.226) rotate(3)"/>
      <path id="path-97-2" data-name="path-97" class="cls-8" d="M.04,4.932C-.48,5.257,4.2.831,9.143.314a19.012,19.012,0,0,1,8.263.329A14.453,14.453,0,0,1,19.517,1.86c.793.661,2.117,1.562.074,1.411-2.144-.019.225-.281-9.769.512C7.9,4,4.335,4.174.04,4.932Z" transform="translate(57.616 4.141) rotate(3)"/>
    </g>
  </g>
</svg>
