<?xml version="1.0" encoding="utf-8"?>
<!-- Generator: Adobe Illustrator 21.0.0, SVG Export Plug-In . SVG Version: 6.00 Build 0)  -->
<svg version="1.1" id="Layer_1" xmlns="http://www.w3.org/2000/svg" xmlns:xlink="http://www.w3.org/1999/xlink" x="0px" y="0px"
	 viewBox="0 0 600 601" style="enable-background:new 0 0 600 601;" xml:space="preserve">
<style type="text/css">
	.st0{clip-path:url(#SVGID_2_);}
	.st1{fill:#FFFFFF;}
	.st2{fill:none;stroke:#FFFFFF;}
	.st3{fill:#E8D766;}
	.st4{fill:#4D4D4D;}
	.st5{fill:#FFFF21;}
	.st6{font-family:'HelveticaNeue-Bold';}
	.st7{font-size:99px;}
	.st8{fill:#4D97FC;}
	.st9{fill:#FF873C;}
	.st10{fill:#191919;}
	.st11{fill:#FAF7F7;}
	.st12{fill:#EAC574;}
	.st13{fill:#DA7A36;}
	.st14{fill:#915400;}
	.st15{fill:#DD8781;}
	.st16{fill:#B95630;}
</style>
<g>
	<defs>
		<rect id="SVGID_1_" y="0" width="600" height="601"/>
	</defs>
	<clipPath id="SVGID_2_">
		<use xlink:href="#SVGID_1_"  style="overflow:visible;"/>
	</clipPath>
	<g id="yeph" class="st0">
		<g id="Group_2" transform="translate(-879.947 -134.947)">
			<g id="Ellipse_1" transform="translate(2634.947 5450.947)">
				<circle class="st1" cx="-1451.6" cy="-5015.6" r="295.4"/>
				<circle class="st2" cx="-1451.6" cy="-5015.6" r="294.9"/>
			</g>
			<circle id="Ellipse_2" class="st3" cx="1183.4" cy="435.4" r="239"/>
			<path id="Path_2" class="st4" d="M1012.1,428.2v-8.6l-6.9-12.1h3.4l5.4,9.3l5.8-9.3h2.7l-7.4,12v8.7H1012.1z M1036.6,427.8
				c-1.5,0.5-3.1,0.8-4.7,0.8c-2.1,0.1-4.1-0.7-5.5-2.2c-1.4-1.6-2.2-3.7-2.1-5.8c-0.1-2.1,0.6-4.1,1.9-5.7c1.2-1.4,2.9-2.3,4.8-2.2
				c1.7-0.1,3.2,0.6,4.3,2c1.1,1.6,1.6,3.6,1.5,5.6l0,0.9h-9.6c0.4,3.6,2.2,5.4,5.3,5.4c1.5-0.1,2.9-0.4,4.2-0.9L1036.6,427.8z
				 M1027.2,419h6.7c0-2.8-1.1-4.2-3.2-4.2S1027.5,416.2,1027.2,419L1027.2,419z M1041.5,428.2v-22.1h2.8v22.1H1041.5z
				 M1049.7,428.2v-22.1h2.8v22.1H1049.7z M1064,428.6c-2,0.1-3.9-0.7-5.2-2.2c-1.4-1.6-2.1-3.7-1.9-5.8c-0.1-2.1,0.6-4.2,2-5.8
				c1.4-1.4,3.3-2.2,5.3-2.1c2-0.1,3.9,0.7,5.3,2.1c1.4,1.6,2.1,3.7,2,5.8c0.1,2.1-0.6,4.2-2,5.8
				C1067.9,427.9,1066,428.7,1064,428.6L1064,428.6z M1064,426.5c2.9,0,4.4-2,4.4-5.9c0-3.9-1.4-5.8-4.3-5.8s-4.3,2-4.3,5.9
				C1059.8,424.6,1061.2,426.5,1064,426.5L1064,426.5z M1077.4,428.2l-4.3-15.2h2.7l3.3,11.8l3.6-11.8h2.8l3.1,11.8l3.8-11.8h2.4
				l-5,15.2h-2.8l-3.2-11.8l-3.6,11.8H1077.4z M1104.7,428.2v-20.7h11.6v2.2h-8.6v6.6h7.2v2.2h-7.2v7.5h9.2v2.2H1104.7z
				 M1121.2,433.8l2.5-5.5l-5.9-15.2h3l4.4,11.4l4.6-11.4h2.6l-8.3,20.7H1121.2z M1146.4,427.8c-1.5,0.5-3.1,0.8-4.7,0.8
				c-2.1,0.1-4.1-0.7-5.5-2.2c-1.4-1.6-2.2-3.7-2.1-5.8c-0.1-2.1,0.6-4.1,1.9-5.7c1.2-1.4,2.9-2.3,4.8-2.2c1.7-0.1,3.2,0.6,4.3,2
				c1.1,1.6,1.6,3.6,1.5,5.6l0,0.9h-9.6c0.4,3.6,2.2,5.4,5.3,5.4c1.5-0.1,2.9-0.4,4.2-0.9L1146.4,427.8z M1137,419h6.7
				c0-2.8-1.1-4.2-3.2-4.2S1137.3,416.2,1137,419L1137,419z M1161,428.2v-2.9c-0.9,2-2.9,3.3-5.1,3.2c-1.7,0.1-3.3-0.7-4.3-2
				c-1.1-1.6-1.7-3.5-1.6-5.5c-0.1-2.2,0.5-4.3,1.8-6.1c1.1-1.5,2.8-2.4,4.7-2.3c1.7,0,3.4,0.7,4.5,2.1v-8.6h2.8v22.1H1161z
				 M1161,416.7c-1.1-1.1-2.5-1.8-4.1-1.9c-2.6,0-4,2-4,6.1c0,3.6,1.2,5.3,3.5,5.3c1.5,0,3-0.8,4.5-2.5L1161,416.7z M1176.4,428.2
				v-20.7h5.6c2.5,0,4.3,0.4,5.4,1.3c1.2,1,1.8,2.6,1.6,4.2c0.1,2-0.7,3.9-2.2,5.2c-1.8,1.3-4,2-6.2,1.9h-1.3v8.2H1176.4z
				 M1179.3,417.8h1.2c1.4,0.1,2.9-0.3,4-1.2c1-0.9,1.5-2.1,1.4-3.4c0.1-1-0.3-2-1.1-2.7c-1.1-0.6-2.4-0.9-3.7-0.8h-1.8
				L1179.3,417.8z M1203.4,427.8c-1.5,0.5-3.1,0.8-4.7,0.8c-2.1,0.1-4.1-0.7-5.5-2.2c-1.4-1.6-2.2-3.7-2.1-5.8
				c-0.1-2.1,0.6-4.1,1.9-5.7c1.2-1.4,2.9-2.3,4.8-2.2c1.7-0.1,3.2,0.6,4.3,2c1.1,1.6,1.6,3.6,1.5,5.6l0,0.9h-9.6
				c0.4,3.6,2.2,5.4,5.3,5.4c1.5-0.1,2.9-0.4,4.2-0.9L1203.4,427.8z M1194,419h6.7c0-2.8-1.1-4.2-3.2-4.2S1194.3,416.2,1194,419
				L1194,419z M1208.2,428.2v-15.2h2.8v2.9c1.5-2.1,3.2-3.2,5.3-3.2c1.2-0.1,2.3,0.4,3.1,1.3c0.8,0.9,1.2,2.1,1.2,3.4v10.9h-2.8v-10
				c0.1-0.8-0.1-1.7-0.5-2.4c-0.4-0.5-1-0.8-1.6-0.7c-1.7,0-3.3,1.1-4.8,3.3v9.8H1208.2z M1226.1,433.3l0.3-2.4
				c1.5,0.7,3.1,1.1,4.7,1.1c3.1,0,4.7-1.6,4.7-4.9v-2.4c-0.8,2-2.8,3.3-5,3.2c-1.7,0.1-3.3-0.7-4.3-2c-1.1-1.5-1.7-3.4-1.6-5.4
				c-0.1-2,0.6-4,1.8-5.6c1.2-1.4,2.9-2.2,4.7-2.2c1.7,0,3.3,0.8,4.4,2.1v-1.7h2.8v11c0,1.8-0.1,3.5-0.4,5.3c-0.2,1-0.7,2-1.4,2.8
				c-1.2,1.3-3.1,1.9-5.6,1.9C1229.4,434.1,1227.7,433.8,1226.1,433.3z M1235.8,423v-6.3c-1-1.2-2.4-1.8-4-1.9c-1.2,0-2.3,0.5-3,1.5
				c-0.8,1.2-1.2,2.7-1.1,4.2c0,3.3,1.2,5,3.5,5C1233.1,425.4,1234.7,424.5,1235.8,423L1235.8,423z M1253.4,428.2v-2.9
				c-1.5,2.1-3.2,3.2-5.3,3.2c-1.2,0.1-2.3-0.4-3.2-1.3c-0.8-0.9-1.2-2.1-1.2-3.4v-10.9h2.8v10c-0.1,0.8,0.1,1.7,0.5,2.4
				c0.4,0.5,1,0.8,1.7,0.7c1.7,0,3.3-1.1,4.8-3.3v-9.8h2.8v15.2H1253.4z M1261.6,428.2v-15.2h2.8v15.2H1261.6z M1261.6,410.3v-2.8
				h2.8v2.8L1261.6,410.3z M1269.9,428.2v-15.2h2.8v2.9c1.5-2.1,3.2-3.2,5.3-3.2c1.2-0.1,2.3,0.4,3.1,1.3c0.8,0.9,1.2,2.1,1.2,3.4
				v10.9h-2.8v-10c0.1-0.8-0.1-1.7-0.5-2.4c-0.4-0.5-1-0.8-1.6-0.7c-1.7,0-3.3,1.1-4.8,3.3v9.8H1269.9z M1294.8,428.2v-20.7h2.9v8.7
				h9.8v-8.7h2.9v20.7h-2.9v-9.8h-9.8v9.8H1294.8z M1321.8,428.6c-2,0.1-3.9-0.7-5.2-2.2c-1.4-1.6-2.1-3.7-1.9-5.8
				c-0.1-2.1,0.6-4.2,2-5.8c1.4-1.5,3.3-2.2,5.3-2.1c2-0.1,3.9,0.7,5.3,2.1c1.4,1.6,2.1,3.7,2,5.8c0.1,2.1-0.6,4.2-2,5.8
				C1325.8,427.9,1323.9,428.7,1321.8,428.6L1321.8,428.6z M1321.9,426.5c2.9,0,4.4-2,4.4-5.9c0-3.9-1.4-5.8-4.3-5.8
				c-2.9,0-4.3,2-4.3,5.9C1317.6,424.6,1319,426.5,1321.9,426.5L1321.9,426.5z M1333.5,428.2v-15.2h2.8v2.9c1-1.9,3-3.1,5.2-3.2
				c2-0.1,3.7,1.3,4.2,3.2c1-1.9,2.9-3.2,5.1-3.2c1.2-0.1,2.3,0.4,3.1,1.2c0.8,0.9,1.2,2.1,1.1,3.3v11h-2.8v-10.6
				c0-1.7-0.7-2.6-2.1-2.6c-1.4,0-2.9,1-4.5,3v10.2h-2.8v-10.6c0-1.7-0.7-2.6-2.1-2.6s-2.9,1-4.5,3v10.2H1333.5z M1371.4,427.8
				c-1.5,0.5-3.1,0.8-4.7,0.8c-2.1,0.1-4.1-0.7-5.5-2.2c-1.4-1.6-2.2-3.7-2.1-5.8c-0.1-2.1,0.6-4.1,1.9-5.7c1.2-1.4,2.9-2.3,4.8-2.2
				c1.7-0.1,3.2,0.6,4.3,2c1.1,1.6,1.6,3.6,1.5,5.6l0,0.9h-9.6c0.4,3.6,2.2,5.4,5.3,5.4c1.5-0.1,2.9-0.4,4.2-0.9L1371.4,427.8z
				 M1362,419h6.7c0-2.8-1.1-4.2-3.2-4.2S1362.2,416.2,1362,419L1362,419z"/>
			<text transform="matrix(1 0 0 1 1046.4451 376.7378)" class="st5 st6 st7">Y</text>
			<text transform="matrix(1 0 0 1 1112.4773 376.7378)" class="st1 st6 st7">E</text>
			<text transform="matrix(1 0 0 1 1176.6287 376.7378)" class="st8 st6 st7">P</text>
			<text transform="matrix(1 0 0 1 1242.6611 376.7378)" class="st9 st6 st7">H</text>
			<g id="group-5" transform="translate(2820.173 5788.975)">
				<path id="path-151" class="st10" d="M-1541.9-5283c0,0-31.9-14.7-36.7-16.2c-43.7-11.4-70.7-6.7-89.9,10.7
					c-13.7,11.2-33.8,62-34.4,97.6c0.6,19.1-12.5,40.9-26.2,61.5c-3.2,4.9-5.9,10.1-8.3,15.4c96.1,1.5,63.5,0.6,174.5,0
					c-7.5-25.2-23.8-25.2-29.1-87.5c-3.3-18.1,64.6-57.4,79.8-56.2l-9.4-21L-1541.9-5283z"/>
				<path id="path-156" class="st11" d="M-1589.2-5191.4c0,0-54.7-1.9-99.8,57.4c-11.5,8-17.9,11.4-24.5,15.7
					c-7.7,5.1,143.9-13.1,139.2-22C-1594.2-5184.8-1589.2-5191.4-1589.2-5191.4z"/>
				<path id="path-157" class="st12" d="M-1583.8-5282.1c0,0-17.1-9.3-39.9,2.1c-5.2,0-27.4-16.9-40-12.9
					c-17.4,11.4-23.1,34.8-23.1,34.8s36.5-15.8,59.8-5.2c5.6,5.7,3.5,7.4,15.2,14.5c4.6,2.4,24.9,10.2,39.3-11.5
					C-1570.9-5276.3-1583.8-5282.1-1583.8-5282.1z"/>
				<path id="ellipse-18" class="st13" d="M-1608.5-5256.1c8.6,3.5,19,1.3,23.2-4.8c4.2-6.1,0.7-13.9-7.9-17.3
					c-8.6-3.5-19-1.3-23.2,4.8S-1617.1-5259.5-1608.5-5256.1z"/>
				<path id="ellipse-18-2" class="st14" d="M-1605.4-5261.2c4.7,1.9,10.4,0.7,12.7-2.6s0.4-7.6-4.3-9.4c-4.7-1.9-10.4-0.7-12.7,2.6
					S-1610.1-5263.1-1605.4-5261.2z"/>
				<path id="path-98" class="st15" d="M-1459.6-5269.5c0,0-12.9,16.5-56.7,16.8c-2.5,0.1-34.7-0.4-55.4-6.8c0.9,0,27-9.1,99.1-10
					C-1472.5-5269.4-1459.6-5269.5-1459.6-5269.5z"/>
				<path id="path-97" class="st16" d="M-1571.8-5259.4c-2.9,1.7,23-22,50.3-24.8c2.6-0.3,25.4-4.6,45.6,1.7c4.1,1.8,7.9,4,11.6,6.5
					c4.4,3.5,11.7,8.3,0.4,7.5c-11.8-0.1,1.2-1.5-53.9,2.8C-1528.4-5264.5-1548.1-5263.5-1571.8-5259.4z"/>
			</g>
			<path id="Exclusion_1" class="st1" d="M1173.4,730.6c-163.1-0.1-295.2-132.4-295.1-295.5c0.1-118.5,71-225.5,180.2-271.7
				c150.4-63.1,323.4,7.6,386.5,158c62.9,149.9-7.1,322.4-156.7,386C1251.9,722.8,1212.8,730.6,1173.4,730.6z M1183.4,196.6
				c-131.9,0.1-238.8,107.1-238.7,239c0.1,95.9,57.5,182.4,145.8,219.8c121.5,51.3,261.7-5.6,313-127.1s-5.6-261.7-127.1-313
				C1246.9,202.9,1215.3,196.5,1183.4,196.6L1183.4,196.6z"/>
		</g>
	</g>
</g>
</svg>
